<?xml version="1.0" encoding="UTF-8"?>
<!DOCTYPE svg PUBLIC "-//W3C//DTD SVG 1.1//EN" "http://www.w3.org/Graphics/SVG/1.1/DTD/svg11.dtd">
<!-- Creator: CorelDRAW -->
<svg xmlns="http://www.w3.org/2000/svg" xml:space="preserve" width="200px" height="200px" version="1.1" style="shape-rendering:geometricPrecision; text-rendering:geometricPrecision; image-rendering:optimizeQuality; fill-rule:evenodd; clip-rule:evenodd"
viewBox="0 0 200 200"
 xmlns:xlink="http://www.w3.org/1999/xlink"
 xmlns:xodm="http://www.corel.com/coreldraw/odm/2003">
 <defs>
  <style type="text/css">
   <![CDATA[
    .fil11 {fill:#070405}
    .fil2 {fill:#1C110D}
    .fil7 {fill:#4C321B}
    .fil10 {fill:#B22810}
    .fil12 {fill:#DD1214}
    .fil14 {fill:#E2FFFF}
    .fil13 {fill:#EC2414}
    .fil8 {fill:#F64E14}
    .fil5 {fill:#FF3A13}
    .fil6 {fill:#FF6C13}
    .fil4 {fill:#FFA30E}
    .fil3 {fill:#FFD108}
    .fil9 {fill:#FFE804}
    .fil0 {fill:url(#id0)}
    .fil1 {fill:url(#id1)}
   ]]>
  </style>
  <linearGradient id="id0" gradientUnits="userSpaceOnUse" x1="99.95" y1="-0.03" x2="99.95" y2="199.97">
   <stop offset="0" style="stop-opacity:1; stop-color:#211F9C"/>
   <stop offset="1" style="stop-opacity:1; stop-color:#1C1A7D"/>
  </linearGradient>
  <radialGradient id="id1" gradientUnits="userSpaceOnUse" gradientTransform="matrix(-0.10639 0.45265 -1.06541 -0.0449736 258 106)" cx="95.23" cy="142.81" r="121.44" fx="95.23" fy="142.81">
   <stop offset="0" style="stop-opacity:1; stop-color:#D4D4D4"/>
   <stop offset="1" style="stop-opacity:1; stop-color:#FDFFFF"/>
  </radialGradient>
 </defs>
 <g id="Camada_x0020_1">
  <metadata id="CorelCorpID_0Corel-Layer"/>
  <circle class="fil0" cx="100" cy="100" r="100"/>
  <path class="fil1" d="M136.76 137.63c-7.46,4.03 -28.58,5.15 -38.95,5.14 -10.99,-0.01 -30.45,-1.61 -38.57,-5.6 -2.34,-0.35 -4.84,-1.87 -6.45,-3.1 -1.9,-1.45 -3.32,-2.8 -2.44,-6.14 -5,1.66 -9.95,2.74 -14.58,4.8 -4.88,2.17 -8.26,4.12 -11.91,7.73 -1.61,1.6 -3.12,3.38 -3.38,6.17l0 1.88c0.45,4.72 4.24,7.95 7.95,10.31 12.72,8.11 40.94,13.65 55.41,13.61 3.09,-0.01 5.79,0.43 9.43,0.44l0.18 0 0.82 0c17.14,-0.01 28.53,-0.09 45.31,-3.24 10.66,-2 22.26,-4.94 30.08,-9.66 6.35,-3.83 9.27,-7.54 9.86,-10.99l0 -2.68c-1.18,-6.89 -11.26,-12.48 -20.37,-15.48 -3.83,-1.27 -12.18,-3.88 -15.83,-4.2 1.76,2.29 3.65,4.05 0.57,7.17 -1.41,1.41 -4.7,3.34 -7.13,3.84z"/>
  <path class="fil2" d="M78.15 72.95l-2.18 11.06c0.07,0.11 0.15,0.16 0.18,0.35l1.56 2.88c1.91,1.04 3.18,2.13 5.6,3.25 1.95,0.91 4.57,1.68 7,2.09l2.13 0.32 8.81 0.03c4.05,-0.43 6.18,-1.32 9.75,-2.18 1.17,-0.81 2.34,-1.02 3.7,-1.81 1.54,-0.9 2.38,-1.73 3.6,-2.44l0.29 -1.33c-0.62,-2.89 -1.54,-8.5 -2.42,-10.57 -0.48,-0.61 0.05,-0.09 -1.11,-0.5 -1.09,1.66 -3.34,2.12 -5.42,2.68l-5.41 0.82 -5.29 0.36 -6.26 -0.61c-2.75,-0.61 -5.53,-1.29 -7.79,-2.42 -2.9,-1.45 -3.91,-3.07 -5.8,-4.52l-0.94 2.54z"/>
  <path class="fil3" d="M56.49 132.92c1.37,1.9 4.58,2.34 6.89,3.19 1.88,0.69 1.4,1.11 3.21,1.71l4.13 0.96c17.22,2.15 38.23,1.49 55.5,0.36 0.83,-0.65 0.14,-0.24 1.35,-0.72 0.02,-0.01 0.8,-0.17 1.05,-0.22l-0.22 -0.96 -1.99 0.02 -4.9 -0.42c-5.19,-0.86 -8.22,-3.17 -12.43,-4.15 -3.21,-0.74 -8.26,2.23 -12.57,3.05 -7.35,1.4 -14.9,1.82 -22.29,1.69 -4.5,-0.08 -5.84,0.53 -6.54,-1.28 4.07,-1.57 18.2,-0.16 20.38,-6.01 -3.47,-2.29 -6.24,-2.18 -7.73,-4.36 -1.28,0.06 -3.77,-1.26 -5.03,-1.98 -2.05,-1.16 -2.27,-1.6 -3.53,-3.11l-0.43 -0.5c-0.3,3.93 3.22,3.73 4.92,5.99 -1.79,3.91 -13.94,2.04 -16.37,4.02 -1.22,0.99 -0.74,3.91 -3.4,2.72z"/>
  <path class="fil2" d="M120.16 100.47c-2.68,1.52 -5.2,2.87 -8.47,3.87 -4.03,1.45 -14.62,3.82 -18.71,2.24 -2.72,0.02 -4.54,-0.87 -6.96,-1.32 0.83,1.16 0.17,0.25 0.77,0.86 0.47,0.48 0.46,0.37 0.92,0.86 -1.8,2.09 -6.21,2.64 -9.26,3.31 -0.65,4.31 1.62,2.23 2.63,4.85l-1.99 -0.07c0.95,1.27 0.89,0.62 1.69,1.53l6.87 2.22c7.05,1.59 11.43,0.98 18.61,0.32 7.27,-1.17 11.21,-3.25 15.97,-6.55l0.69 -0.99 0.55 -1.56c-2.66,2.84 -5.99,4.58 -9.77,6.32 -3.34,1.54 -9.42,2.95 -13.67,2.31 1.46,-1.02 4.89,-1.8 6.74,-2.74 5.74,-2.93 7.44,-7.72 10.28,-9.81 3.07,-2.26 1.9,-3.04 4.36,-6.12l-1.25 0.47z"/>
  <path class="fil2" d="M80.34 60.73c0.52,1.2 3.56,3.62 5.13,4.49 2.11,1.16 4.59,1.67 7.2,2.08l6.76 0.31 5.66 -0.81 3.36 -0.77 4.34 -2.26 0.52 -0.86c0.32,-1.51 -0.21,-4.13 -0.7,-5.58 -0.35,-1 0,-0.35 -0.38,-0.81 -1.15,-1.86 -1.21,-4.75 -2.09,-6.47l-3.75 1.9c-2.34,1.1 -4.06,1.52 -6.95,1.78l-5.11 0.03c5.06,2.35 9.9,0.19 13.14,-0.4 -0.55,1.1 -0.64,1.12 -1.6,1.92 1.27,0.65 1.97,0.06 0.25,1.02 -0.72,0.4 -1.93,0.63 -2.93,1.06 1.22,0.54 2.02,0.31 3.09,1.28l-4.29 1.09 3.11 1.3c-1.47,1.37 -2.24,0.61 -3.79,1.44l3.82 1.12c-5.96,1.7 -11.96,2.24 -18,-0.9l-2.01 -1.64c3.81,0.3 7.72,1.48 11.37,0.6 -1.39,-1.04 -2.12,-0.86 -3.08,-2.23l4.78 -0.02c-1.38,-0.75 -2.58,-0.69 -3.3,-2.16l3.24 -0.5c-2.07,-1.13 -3.33,-0.93 -4.24,-3 -1.43,-0.17 -1.15,0.09 -1.97,-0.62 -2.03,0.13 -3.6,-0.45 -5.36,-1.22 -1.65,-0.72 -2.88,-1.88 -4.47,-2.14 -0.56,1.26 -1.75,8.95 -1.75,10.97z"/>
  <path class="fil2" d="M85.05 33.24c-0.56,6.69 1.21,7.88 7.97,8.32 5.27,0.47 7.05,-0.45 11.59,-1.56l3.59 -1.13 0.01 -2.14c0.18,-2.25 0.02,-3.73 -0.43,-5.58 -0.48,-1.96 -1.08,-2.5 -2.1,-4.02l-12.16 0c-2.79,0.13 -5.26,0.42 -6.49,1.01 -1.97,0.96 -1.76,2.51 -1.98,5.1z"/>
  <path class="fil4" d="M121.51 136.84l-2.5 -1.29c-6.9,-2.66 -11.8,-8.37 -13.37,-9.06 -4.65,2.87 -20.06,0.86 -25.31,-0.71 1.49,2.18 4.26,2.07 7.73,4.36 -2.18,5.85 -16.31,4.44 -20.38,6.01 0.7,1.81 2.04,1.2 6.54,1.28 7.39,0.13 14.94,-0.29 22.29,-1.69 4.31,-0.82 9.36,-3.79 12.57,-3.05 4.21,0.98 7.24,3.29 12.43,4.15z"/>
  <path class="fil5" d="M122.23 112.59c-0.81,7.69 -0.47,5.75 -3.41,9.1 0.07,0.07 0.17,0.1 0.18,0.25 0.02,0.15 0.14,0.21 0.16,0.27 0.02,0.06 0.11,0.21 0.13,0.29 0,0.02 0.07,1.19 0.08,1.35 5.3,0.93 10.03,3.81 9.45,9.28 -0.28,2.6 -1.43,2.04 -2.41,4.13l1.99 -0.02c6.16,2.53 19.64,-5.96 10.04,-11.92 -3.22,-1.99 -6.55,-2.66 -10.23,-4.17 -4.02,-1.65 -5.11,-2.96 -5.29,-9.55l-0.69 0.99z"/>
  <path class="fil6" d="M108.74 125.76c-1.29,1 -1.34,0.87 -3.1,0.73 1.57,0.69 6.47,6.4 13.37,9.06l2.5 1.29 4.9 0.42c0.98,-2.09 2.13,-1.53 2.41,-4.13 0.58,-5.47 -4.15,-8.35 -9.45,-9.28 -0.01,-0.16 -0.08,-1.33 -0.08,-1.35 -0.02,-0.08 -0.11,-0.23 -0.13,-0.29 -0.02,-0.06 -0.14,-0.12 -0.16,-0.27 -0.01,-0.15 -0.11,-0.18 -0.18,-0.25 -1.49,1.66 -7.23,3.63 -10.08,4.07z"/>
  <path class="fil7" d="M96.03 81.67c-0.98,0.39 -0.71,0.12 -1.71,0.33l-1.45 0.41c-0.08,0.02 -0.23,0.07 -0.33,0.14l3.19 2.28 -4.06 0.08c0.59,1.38 0.11,0.3 0.83,1.21 1.11,1.38 0.07,-0.63 0.96,1.12 -4.77,0.7 -6.36,0.07 -10.64,-0.86 0.76,1.45 0.75,1.14 2.12,2.06 7.35,4.92 15.68,3.1 22.65,1.11l-0.61 -0.36c-1.04,-0.48 -0.1,-0.11 -0.98,-0.4 -0.83,-0.28 -1.5,-0.4 -2.19,-0.58 1.18,-0.91 3.22,-0.99 5.59,-1.56l-4.47 -1.98c2.39,-1.69 4.5,-0.75 6.05,-3.5l-3.56 0.26c-1.18,-0.19 -0.06,0.26 -0.88,-0.33 2,-0.51 3.27,-1 3.88,-2.49 -3.07,-0.23 -5.82,1.12 -9.56,1.02 -3.65,-0.1 -5.93,-1.5 -9.63,-1.46 1.01,2.09 2.91,1.95 4.8,3.5z"/>
  <path class="fil7" d="M88.37 107.35c1.48,2.18 3.38,1.56 5.5,3.05 -1.71,0.12 -2.43,-0.19 -3.56,0.51 0.79,1.29 0.48,0.59 1.83,1.85l0.52 0.51c-3.78,0.27 -9.65,-2.49 -12.37,-1.49 3.91,7.4 20.9,6.99 24.02,4.38l-3.73 -1.04c2.87,-1.29 7.2,0 9.41,-3.1l-5.77 0.02c0.77,-2.22 0,-0.7 4.35,-2.59 1.99,-0.86 2.61,-1.12 3.59,-2.83 -4.46,-0.37 -3.24,1.48 -8.34,0.8 -1.55,-0.21 -1.59,-0.13 -3.22,0.13 -3.08,0.5 -11.64,-0.44 -12.23,-0.2z"/>
  <path class="fil8" d="M101.25 92.93c-0.85,4.05 -2.9,10.62 -5.2,13.75l-2.7 -0.26 -0.37 0.16c4.09,1.58 14.68,-0.79 18.71,-2.24 0.51,-2.4 0.31,-4.94 0.3,-7.39 0,-1.15 0.05,-2.42 0.02,-3.54 -0.04,-1.57 0.33,-2.8 -1.01,-2.66 -3.57,0.86 -5.7,1.75 -9.75,2.18z"/>
  <path class="fil9" d="M56.49 132.92c2.66,1.19 2.18,-1.73 3.4,-2.72 2.43,-1.98 14.58,-0.11 16.37,-4.02 -1.7,-2.26 -5.22,-2.06 -4.92,-5.99l-0.17 -1.75 -12.88 5c-1.83,0.89 -3.67,2.44 -4.42,4.19 -1.08,2.51 0.89,4.77 2.62,5.29z"/>
  <path class="fil3" d="M82.09 49.76c1.59,0.26 2.82,1.42 4.47,2.14 1.76,0.77 3.33,1.35 5.36,1.22l2.66 0.18 1.87 -11.25c-1.6,0.02 -2.19,0.15 -3.43,-0.49 -6.76,-0.44 -8.53,-1.63 -7.97,-8.32 -0.37,0.74 -2.93,15.07 -2.96,16.52z"/>
  <path class="fil10" d="M136.76 137.63l-10.54 1.51c-17.27,1.13 -38.28,1.79 -55.5,-0.36 -3.98,-0.14 -8.23,-1.61 -11.48,-1.61 8.12,3.99 27.58,5.59 38.57,5.6 10.37,0.01 31.49,-1.11 38.95,-5.14z"/>
  <path class="fil4" d="M79.98 102.44c0.72,0.8 -0.02,0.29 1.3,1 0.58,0.31 0.94,0.4 1.57,0.62 1.15,0.41 2.32,0.69 3.17,1.2 2.42,0.45 4.24,1.34 6.96,1.32l0.37 -0.16c-0.26,-4.57 -0.91,-8.2 -0.91,-13.52l-2.13 -0.32c-1.67,2.46 -6.84,2.72 -9.92,1.64l-0.41 8.22z"/>
  <path class="fil3" d="M78.15 72.95l0.94 -2.54c1.89,1.45 2.9,3.07 5.8,4.52 2.26,1.13 5.04,1.81 7.79,2.42 0.15,-3.08 1.04,-8.06 -0.01,-10.05 -2.61,-0.41 -5.09,-0.92 -7.2,-2.08 -1.57,-0.87 -4.61,-3.29 -5.13,-4.49 -0.06,0.09 -0.12,0.14 -0.13,0.3 -0.02,0.16 -0.11,0.24 -0.13,0.31 -0.03,0.08 -0.09,0.23 -0.12,0.32l-1.81 11.29z"/>
  <path class="fil6" d="M70.94 115.27c-0.06,1.35 0.06,2.26 0.23,3.17l0.17 1.75 0.43 0.5c1.26,1.51 1.48,1.95 3.53,3.11 1.26,0.72 3.75,2.04 5.03,1.98 5.25,1.57 20.66,3.58 25.31,0.71 -1.05,0.09 -1.4,0.38 -2.22,0.38l-1.65 -0.74c-0.66,-0.49 -2.22,-0.43 -4.39,-0.43 -3.18,0 -6.88,0.13 -9.64,-0.95 -4.02,0.4 -12.02,-1.59 -14.12,-7.22 -0.63,-1.67 -1.42,-4.65 -0.27,-6.08 -1.9,-2.96 0.29,-8.85 0.82,-13.12l1.45 1.04c-0.2,-1.05 1.69,-10.73 2.09,-12.13l-1.56 -2.88c-0.03,-0.19 -0.11,-0.24 -0.18,-0.35 -0.15,2.27 -0.92,5.34 -1.31,7.7 -0.44,2.64 -0.91,5.01 -1.37,7.79 -0.47,2.81 -2.78,13.51 -2.35,15.77z"/>
  <path class="fil11" d="M123.47 110.04l0.06 -0.88c0.05,-1.34 -1.22,-7.36 -1.68,-8.14l-0.44 -1.02c-2.46,3.08 -1.29,3.86 -4.36,6.12 -2.84,2.09 -4.54,6.88 -10.28,9.81 -1.85,0.94 -5.28,1.72 -6.74,2.74 4.25,0.64 10.33,-0.77 13.67,-2.31 3.78,-1.74 7.11,-3.48 9.77,-6.32z"/>
  <path class="fil11" d="M73.35 111.45c1.95,1.22 3.29,3.29 5.74,3.62l1.99 0.07c-1.01,-2.62 -3.28,-0.54 -2.63,-4.85 3.05,-0.67 7.46,-1.22 9.26,-3.31 -0.46,-0.49 -0.45,-0.38 -0.92,-0.86 -0.6,-0.61 0.06,0.3 -0.77,-0.86 -0.85,-0.51 -2.02,-0.79 -3.17,-1.2 -0.63,-0.22 -0.99,-0.31 -1.57,-0.62 -1.32,-0.71 -0.58,-0.2 -1.3,-1 -2.03,-0.22 -3.43,-1.61 -4.36,-3.07l-1.45 -1.04c-0.53,4.27 -2.72,10.16 -0.82,13.12z"/>
  <path class="fil8" d="M84.23 121.97c0.76,0.6 4.15,2.42 3.51,2.78 2.76,1.08 6.46,0.95 9.64,0.95 2.17,0 3.73,-0.06 4.39,0.43l1.65 0.74c0.82,0 1.17,-0.29 2.22,-0.38 1.76,0.14 1.81,0.27 3.1,-0.73l-5.7 -0.01c0.6,-0.91 0.77,-0.75 1.24,-1.43 0.77,-1.09 0.42,-1.71 1.98,-5.18 -7.18,0.66 -11.56,1.27 -18.61,-0.32 -0.82,1.65 -2.02,1.5 -3.42,3.15z"/>
  <path class="fil12" d="M106.26 119.14c-1.56,3.47 -1.21,4.09 -1.98,5.18 -0.47,0.68 -0.64,0.52 -1.24,1.43l5.7 0.01c2.85,-0.44 8.59,-2.41 10.08,-4.07 2.94,-3.35 2.6,-1.41 3.41,-9.1 -4.76,3.3 -8.7,5.38 -15.97,6.55z"/>
  <path class="fil7" d="M94.33 53.76l-0.44 -0.02c0.91,2.07 2.17,1.87 4.24,3l-3.24 0.5c0.72,1.47 1.92,1.41 3.3,2.16l-4.78 0.02c0.96,1.37 1.69,1.19 3.08,2.23 -3.65,0.88 -7.56,-0.3 -11.37,-0.6l2.01 1.64c6.04,3.14 12.04,2.6 18,0.9l-3.82 -1.12c1.55,-0.83 2.32,-0.07 3.79,-1.44l-3.11 -1.3 4.29 -1.09c-1.07,-0.97 -1.87,-0.74 -3.09,-1.28 1,-0.43 2.21,-0.66 2.93,-1.06 1.72,-0.96 1.02,-0.37 -0.25,-1.02 0.96,-0.8 1.05,-0.82 1.6,-1.92 -3.24,0.59 -8.08,2.75 -13.14,0.4z"/>
  <path class="fil12" d="M111 90.75c1.34,-0.14 0.97,1.09 1.01,2.66 0.03,1.12 -0.02,2.39 -0.02,3.54 0.01,2.45 0.21,4.99 -0.3,7.39 3.27,-1 5.79,-2.35 8.47,-3.87 -0.33,-3.32 -2.39,-11.25 -1.86,-13.97 -1.22,0.71 -2.06,1.54 -3.6,2.44 -1.36,0.79 -2.53,1 -3.7,1.81z"/>
  <path class="fil4" d="M123.47 110.04l-0.55 1.56c0.18,6.59 1.27,7.9 5.29,9.55 3.68,1.51 7.01,2.18 10.23,4.17 9.6,5.96 -3.88,14.45 -10.04,11.92l0.22 0.96c-0.25,0.05 -1.03,0.21 -1.05,0.22 -1.21,0.48 -0.52,0.07 -1.35,0.72l10.54 -1.51c2.43,-0.5 5.72,-2.43 7.13,-3.84 3.08,-3.12 1.19,-4.88 -0.57,-7.17 -4.73,-2.9 -10.38,-7.26 -17.54,-7.86l-2.1 -9.29c-0.03,-0.07 -0.08,-0.21 -0.15,-0.31l-0.06 0.88z"/>
  <path class="fil6" d="M93.02 41.56c1.24,0.64 1.83,0.51 3.43,0.49l1.26 0.02c0.65,3.61 1.79,7.93 1.73,11.66 2.89,-0.26 4.61,-0.68 6.95,-1.78 0,-3.73 -1.34,-7.76 -1.78,-11.95 -4.54,1.11 -6.32,2.03 -11.59,1.56z"/>
  <path class="fil6" d="M93.35 106.42l2.7 0.26c2.3,-3.13 4.35,-9.7 5.2,-13.75l-8.81 -0.03c0,5.32 0.65,8.95 0.91,13.52z"/>
  <path class="fil3" d="M75.62 99.37c0.93,1.46 2.33,2.85 4.36,3.07l0.41 -8.22c3.08,1.08 8.25,0.82 9.92,-1.64 -2.43,-0.41 -5.05,-1.18 -7,-2.09 -2.42,-1.12 -3.69,-2.21 -5.6,-3.25 -0.4,1.4 -2.29,11.08 -2.09,12.13z"/>
  <path class="fil4" d="M50.35 127.93c-0.88,3.34 0.54,4.69 2.44,6.14 1.61,1.23 4.11,2.75 6.45,3.1 3.25,0 7.5,1.47 11.48,1.61l-4.13 -0.96c-1.81,-0.6 -1.33,-1.02 -3.21,-1.71 -2.31,-0.85 -5.52,-1.29 -6.89,-3.19 -1.73,-0.52 -3.7,-2.78 -2.62,-5.29 0.75,-1.75 2.59,-3.3 4.42,-4.19l12.88 -5c-0.17,-0.91 -0.29,-1.82 -0.23,-3.17l-0.34 0.66c-0.98,2.65 0.64,1.01 -0.99,2.16 0,0 -2.79,0.74 -3.11,0.82 -2.62,0.72 -3.81,1.24 -6.14,2.16 -3.62,1.42 -4.83,2.41 -7.68,4.54 -1.68,1.25 -0.99,0.84 -2.33,2.32z"/>
  <path class="fil3" d="M87.74 124.75c0.64,-0.36 -2.75,-2.18 -3.51,-2.78 -0.72,-0.29 -0.49,-0.05 -1.13,-0.71 -0.38,-0.38 -0.64,-0.94 -0.87,-1.35 -0.62,-1.13 -0.96,-2.03 -1.45,-3.31 -0.8,-0.91 -0.74,-0.26 -1.69,-1.53 -2.45,-0.33 -3.79,-2.4 -5.74,-3.62 -1.15,1.43 -0.36,4.41 0.27,6.08 2.1,5.63 10.1,7.62 14.12,7.22z"/>
  <path class="fil7" d="M92.1 29.64c1.86,1.61 3.32,0.21 5.61,1.86 -1.67,1.06 -2.24,-0.15 -3.63,1.74 1.1,1.12 2.79,1.34 4.2,1.67 -1.73,2.2 -3.26,0.84 -5.19,2.64 2.5,1.13 7.25,1.53 9.91,0.14l-2.49 -1.24 2.93 -1.28 -2.84 -2.13c1.49,-1.51 1.92,-1.03 4.46,-1.32 -1.33,-0.61 -1.21,-0.42 -2.06,-1.58l2.92 -0.22c-2.69,-1.95 -10.31,-1.7 -13.82,-0.28z"/>
  <path class="fil4" d="M92.68 77.35l6.26 0.61c0.33,-2.68 2.14,-8.35 0.49,-10.35l-6.76 -0.31c1.05,1.99 0.16,6.97 0.01,10.05z"/>
  <path class="fil13" d="M104.61 40c0.44,4.19 1.78,8.22 1.78,11.95l3.75 -1.9c0.88,1.72 0.94,4.61 2.09,6.47 0,-1.33 -3.11,-18.6 -4.02,-19.79l-0.01 2.14 -3.59 1.13z"/>
  <path class="fil14" d="M92.77 147.56c1.5,4.25 12.53,2.28 13.47,1.5 0.81,-0.66 0.61,-0.43 0.99,-1.5 -0.86,-1.65 -0.87,-1.46 -2.87,-1.9 -3.2,-0.7 -9.86,-1.4 -11.59,1.9z"/>
  <path class="fil6" d="M99.43 67.61c1.65,2 -0.16,7.67 -0.49,10.35l5.29 -0.36 0.86 -10.8 -5.66 0.81z"/>
  <path class="fil13" d="M108.45 66.03c0.42,0.98 0.72,4.07 0.93,5.43 0.3,1.96 0.97,4.14 0.26,5.32 2.08,-0.56 4.33,-1.02 5.42,-2.68 -1.14,0.4 -0.2,0.19 -0.63,-0.28l-1.64 -10.05 -4.34 2.26z"/>
  <path class="fil8" d="M105.09 66.8l-0.86 10.8 5.41 -0.82c0.71,-1.18 0.04,-3.36 -0.26,-5.32 -0.21,-1.36 -0.51,-4.45 -0.93,-5.43l-3.36 0.77z"/>
  <path class="fil4" d="M91.92 53.12c0.82,0.71 0.54,0.45 1.97,0.62l0.44 0.02 5.11 -0.03c0.06,-3.73 -1.08,-8.05 -1.73,-11.66l-1.26 -0.02 -1.87 11.25 -2.66 -0.18z"/>
  <path class="fil4" d="M118.3 86.5c-0.53,2.72 1.53,10.65 1.86,13.97l1.25 -0.47 0.44 1.02 -3.26 -15.85 -0.29 1.33z"/>
  <path class="fil4" d="M84.23 121.97c1.4,-1.65 2.6,-1.5 3.42,-3.15l-6.87 -2.22c0.49,1.28 0.83,2.18 1.45,3.31 0.23,0.41 0.49,0.97 0.87,1.35 0.64,0.66 0.41,0.42 1.13,0.71z"/>
  <path class="fil6" d="M112.79 63.77l1.64 10.05c0.43,0.47 -0.51,0.68 0.63,0.28 1.16,0.41 0.63,-0.11 1.11,0.5l-2.05 -10.06c-0.56,-1.98 0.21,-0.59 -0.81,-1.63l-0.52 0.86z"/>
 </g>
</svg>
