<?xml version="1.0" encoding="UTF-8"?>
<!DOCTYPE svg PUBLIC "-//W3C//DTD SVG 1.1//EN" "http://www.w3.org/Graphics/SVG/1.1/DTD/svg11.dtd">
<!-- Creator: CorelDRAW -->
<svg xmlns="http://www.w3.org/2000/svg" xml:space="preserve" width="200px" height="200px" version="1.1" style="shape-rendering:geometricPrecision; text-rendering:geometricPrecision; image-rendering:optimizeQuality; fill-rule:evenodd; clip-rule:evenodd"
viewBox="0 0 200 200"
 xmlns:xlink="http://www.w3.org/1999/xlink"
 xmlns:xodm="http://www.corel.com/coreldraw/odm/2003">
 <defs>
  <style type="text/css">
   <![CDATA[
    .fil10 {fill:#67111E}
    .fil36 {fill:#850D1C}
    .fil2 {fill:#8C0A1C}
    .fil15 {fill:#980A1B}
    .fil8 {fill:#A20B1B}
    .fil32 {fill:#A6310E}
    .fil4 {fill:#B90D1B}
    .fil28 {fill:#C24211}
    .fil37 {fill:#C94D11}
    .fil6 {fill:#D00E18}
    .fil34 {fill:#D15213}
    .fil22 {fill:#D74913}
    .fil21 {fill:#DA3B13}
    .fil20 {fill:#DF6314}
    .fil30 {fill:#E15A13}
    .fil31 {fill:#E16614}
    .fil3 {fill:#E90E14}
    .fil14 {fill:#EA7D16}
    .fil35 {fill:#F16914}
    .fil23 {fill:#F37C13}
    .fil26 {fill:#F96213}
    .fil7 {fill:#FE0C13}
    .fil11 {fill:#FE6C13}
    .fil25 {fill:#FE8E14}
    .fil13 {fill:#FECE07}
    .fil24 {fill:#FEEC19}
    .fil1 {fill:#FF0B13}
    .fil5 {fill:#FF4411}
    .fil9 {fill:#FF7111}
    .fil17 {fill:#FF830D}
    .fil18 {fill:#FF8614}
    .fil16 {fill:#FFAC14}
    .fil12 {fill:#FFB40B}
    .fil19 {fill:#FFBC0B}
    .fil27 {fill:#FFCB07}
    .fil38 {fill:#FFDD14}
    .fil33 {fill:#FFF51D}
    .fil29 {fill:#FFF91F}
    .fil0 {fill:url(#id0)}
   ]]>
  </style>
  <linearGradient id="id0" gradientUnits="userSpaceOnUse" x1="99.95" y1="-0.03" x2="99.95" y2="199.97">
   <stop offset="0" style="stop-opacity:1; stop-color:#211F9C"/>
   <stop offset="1" style="stop-opacity:1; stop-color:#1C1A7D"/>
  </linearGradient>
 </defs>
 <g id="Camada_x0020_1">
  <metadata id="CorelCorpID_0Corel-Layer"/>
  <circle class="fil0" cx="100" cy="100" r="100"/>
  <path class="fil1" d="M77.2 124.65c19.08,-1.96 29.56,-2.41 47.97,1.05l2.14 0.52c0.74,0.32 0.3,0.08 0.76,0.45l1.46 -0.2c7.67,2.22 10,2.85 16.88,5.95 1.02,0.46 1.6,0.86 2.41,1.42 1.41,0.97 0.93,0.75 2.03,1.8 2.04,1.94 5.57,4.76 4.79,9.65 -0.6,3.74 -4.2,6.72 -6.83,8.36 -21.69,13.46 -77.56,12.56 -98.34,-3.85 -7.44,-5.87 -4.88,-12.69 3.29,-17.9 4.73,-3.01 16.6,-6.8 23.44,-7.25zm102.97 16.66l0 1.79c-0.76,8.17 -11.61,13.39 -18.19,15.76 -20.18,7.26 -28.17,6.25 -46.08,8.27l-0.54 0.05 -17.45 0c-20.45,-0.02 -57.01,-5.51 -72.29,-17.97 -3.62,-2.96 -5.38,-5.88 -5.79,-8.66l0 -2.59c0.87,-5.84 7.4,-10.79 14.22,-13.63 1.91,-0.79 4.41,-2 6.3,-2.44 0,-16.7 7.65,-37.28 17.77,-48.81 2.08,-2.37 4.46,-5.31 6.81,-7.26 0.92,-0.76 1.42,-1.48 2.3,-2.26 0.83,-0.74 1.92,-1.56 2.75,-2.2l5.63 -3.87c11.53,-6.96 12.41,-3.29 14.27,-8.92 1.23,-3.74 4.12,-9.55 6.78,-12.24 3.35,-3.39 4.84,-1.35 5.62,-3.51l2.36 1.82c4.8,2.79 9.33,13.84 9.42,17.59 7.67,1.79 22.38,11.63 25.07,16.93 -5.1,-3.83 -5.21,-5.03 -12.28,-9.2 -4.3,-2.54 -9.45,-4.99 -14.72,-6.45 -1.35,-6.66 -2.59,-11.73 -7.49,-16.25 -1.84,-1.7 1.61,0.79 -0.35,-0.27 -0.72,-0.39 0.11,-0.38 -0.57,-0.08 -1.23,-2.26 -1.81,-1.76 -3.82,-0.8 -2.57,-0.22 -5.66,4.99 -6.78,7.7 -0.73,1.77 -1.31,3.65 -1.98,5.62 -0.89,2.61 -1.06,3.72 -3.42,4.59 -3.11,-1.45 -16.76,7.61 -19.32,10.33 -1.3,1.39 -1.7,2.01 -2.95,3.13 -1.67,1.5 -4.51,4.83 -5.53,6.92 -2.22,3.43 -4.82,7.1 -6.96,11.41 -1.41,2.84 -5.1,10.55 -5.15,13.8 -1.79,1.5 -2.25,6.64 -2.79,9.07 -0.76,3.46 -1.49,6.42 -1.5,10.11 1.41,-0.41 2.41,-1.63 4.1,-2.55 1.51,-0.82 3.1,-1.49 5.01,-1.89 -2.5,1.28 -3.24,1.66 -5.24,3.54 -1.43,1.33 -3.44,2.49 -4.99,3.42 1.09,-0.18 13.48,-3.87 14.11,-4.59 2.74,-0.11 7.66,-1.53 10.74,-2.17 17.19,-3.58 43.12,-1.16 60.16,1.9 4.16,0.75 7.36,1.07 11.74,1.24 4,0.15 8.71,2.39 10.99,2.33 0.82,1 8.12,3.9 9.48,4.06 -0.4,-5.1 -0.13,-7.62 -1.19,-12.59 -0.55,-4.85 -1.58,-9.5 -2.92,-13.53 -1.23,-3.68 -4.04,-8.63 -4.6,-11.88 1.43,1.59 2.63,5.86 3.8,7.43 0.72,0.74 0.95,2.19 1.3,3.47l2.85 10.85c1.01,5.04 1.55,10.72 1.55,16.72 2.1,1.01 4.15,1.68 6.34,2.79 4.92,2.48 12.64,7.62 13.38,13.62 0.02,0.12 0.02,0.23 0.04,0.35zm-21.19 -10.61c3.22,-1.66 9.81,0.71 12.5,2.55 13.64,9.3 -1.25,24.54 -15.46,24.97 2.56,-4.05 8.17,-5.14 8.86,-12.38 0.84,-8.8 -4.28,-10.31 -5.9,-15.14zm-125.13 19.27c-2.56,0.61 -3.64,-0.6 -5.26,-1.83 -3.47,-2.62 -8.89,-7.38 -6.66,-12.73 3.53,-8.44 18,-11.81 26.85,-14.6 3.49,-1.09 6.61,-2.46 10.09,-3.57 5.16,-1.65 18.19,-4.84 23.31,-2.66 -0.4,0.4 -0.16,0.29 -0.92,0.7 -1.36,0.76 -5.73,1.36 -7.41,1.72 -9.79,2.08 -34.48,13.4 -38.64,24.09 -1.16,2.99 0.15,6.23 -1.36,8.88z"/>
  <path class="fil2" d="M77.2 124.65c-0.24,0.16 -0.41,0.28 -0.94,0.46l-7.73 2.17c-5.97,1.97 -19.65,6.56 -20.89,12.2 -1.35,6.19 5.18,11.15 8.82,13.09 2.51,1.33 13.75,5.65 16.49,5.36 3.39,-0.56 26.68,-0.57 27.53,-1.37 -3.52,-1.63 -24.24,-7.43 -18.89,-17.33 3.75,-6.95 23.38,-7.66 30.97,-7.87 -6.25,-7.75 -9.69,-4.15 -12.59,-7.55 5.97,-1.13 26.01,3.14 28.1,2.86 -0.46,-0.37 -0.02,-0.13 -0.76,-0.45l-2.14 -0.52c-18.41,-3.46 -28.89,-3.01 -47.97,-1.05z"/>
  <path class="fil3" d="M103.92 37.87c4.9,2.26 3.14,15.47 3.31,16.98l4.06 2.77c0.6,0.47 0.06,-0.14 0.64,0.58 0.77,0.95 0.11,-1.04 0.41,0.87 2.47,2.27 3.55,4.14 3.67,8.88 0,1.66 1.69,4.73 2.18,6.79 0.32,1.33 0.51,2.65 0.58,4.13 0.09,2.13 -0.44,2.75 0.71,3.91 1.05,1.1 0.96,0.54 1.89,2.1 2.91,4.84 3.44,10.45 -1.37,14.03l-6.32 5.16c6.96,-0.31 13.77,-1.44 18.34,-4.92 2.37,-1.81 3.67,-3.33 5.48,-5.93 1,-1.45 3.52,-7.4 3.86,-7.71 -1.31,-4.21 -4.54,-8.46 -6.43,-11.89 2.82,1.15 5.12,3.77 7.12,5.06l-0.87 -6.1c0.45,1.41 5.86,8.05 6.87,8.62l0.38 0.13 -0.65 -1.21 -0.76 -1.18 -0.76 -1.21c-0.69,-1.78 -2.18,-3.08 -3.33,-4.56 -0.63,-0.83 -2.88,-3.68 -3.8,-4.01 -5.1,-3.83 -5.21,-5.03 -12.28,-9.2 -4.3,-2.54 -9.45,-4.99 -14.72,-6.45 -1.35,-6.66 -2.59,-11.73 -7.49,-16.25 -1.84,-1.7 1.61,0.79 -0.35,-0.27 -0.72,-0.39 0.11,-0.38 -0.57,-0.08l0.2 0.96z"/>
  <path class="fil3" d="M87.72 54.02c-6.46,4.41 -6.45,2.95 -13.74,9.44 -8.64,7.69 -13.41,17.73 -17.1,29.3 -2.57,8.06 -1.96,12.53 -2.25,21 3.27,-0.74 6.72,-1.62 9.99,-2.57 3.66,-1.05 6.68,-1.32 10.43,-2.14 -0.99,-3.84 -1.88,-5 -2.15,-9.61 -0.65,-11.11 1.42,-18.45 5.19,-28.41 6.11,-16.13 14.17,-13.99 14.9,-18.52 0.49,-3.04 0.29,-7.03 2.38,-8.98 0.68,-0.98 1.26,-2.63 2,-3.82 0.87,-1.4 1.66,-2.46 2.53,-3.6 -2.57,-0.22 -5.66,4.99 -6.78,7.7 -0.73,1.77 -1.31,3.65 -1.98,5.62 -0.89,2.61 -1.06,3.72 -3.42,4.59z"/>
  <path class="fil4" d="M100.48 156.56c6.09,1.59 6.61,3.8 12.34,0.24 3.82,-2.07 6.83,-6.35 5.86,-12.84 -0.84,-5.61 -3.86,-8.99 -6.12,-12.6 -7.59,0.21 -27.22,0.92 -30.97,7.87 -5.35,9.9 15.37,15.7 18.89,17.33z"/>
  <path class="fil2" d="M112.82 156.8c1.86,1.68 11.09,0.66 15.46,1.92 2.99,0.41 19.57,-3.54 23.97,-11.5 1.27,-2.31 2.09,-7.15 -0.4,-9.1 0.41,1.5 0.88,2.16 0.2,3.3 -2.03,-1.28 0.88,-0.08 -1.32,-1.49 -1.74,-1.11 -4.56,-2.01 -6.6,-2.49 -10.21,-2.45 -21.37,-5.72 -31.57,-6.08 2.26,3.61 5.28,6.99 6.12,12.6 0.97,6.49 -2.04,10.77 -5.86,12.84z"/>
  <path class="fil5" d="M33.85 149.97c1.51,-2.65 0.2,-5.89 1.36,-8.88 4.16,-10.69 28.85,-22.01 38.64,-24.09 1.68,-0.36 6.05,-0.96 7.41,-1.72 0.76,-0.41 0.52,-0.3 0.92,-0.7 -5.12,-2.18 -18.15,1.01 -23.31,2.66 -3.48,1.11 -6.6,2.48 -10.09,3.57 -8.85,2.79 -23.32,6.16 -26.85,14.6 -2.23,5.35 3.19,10.11 6.66,12.73 1.62,1.23 2.7,2.44 5.26,1.83z"/>
  <path class="fil6" d="M113.68 104.07l-9.05 4.92c6.45,-0.24 15.45,0.99 21.78,2.03 2.57,0.41 19.35,3.41 20.56,4.01l-0.01 -0.68c-0.01,-6.74 0.21,-9.29 -1.29,-15.72 -0.84,-3.59 -2.71,-10.31 -4.31,-13.12 -0.34,0.31 -2.86,6.26 -3.86,7.71 -1.81,2.6 -3.11,4.12 -5.48,5.93 -4.57,3.48 -11.38,4.61 -18.34,4.92z"/>
  <path class="fil7" d="M95.37 43.53c-2.09,1.95 -1.89,5.94 -2.38,8.98 -0.73,4.53 -8.79,2.39 -14.9,18.52 -3.77,9.96 -5.84,17.3 -5.19,28.41 0.27,4.61 1.16,5.77 2.15,9.61l12.95 -2.12c-3.6,-3.68 -15.04,-10.3 -9.57,-21.13 0.65,-1.28 1.64,-2.15 2.57,-3.12 2.96,-3.12 0.62,-7.86 3.65,-13.08 2.41,-4.14 -1.58,-4.39 1.54,-8.37 1.73,-2.21 3.35,-3.68 6.18,-5.21 1.54,-0.83 6.5,-3.03 7.96,-3.47l0.12 -0.06c0.12,-0.06 0.26,-0.1 0.37,-0.12 0.88,-0.19 1.16,-0.35 2.31,0.14l1.34 1 2.76 1.34c-0.17,-1.51 1.59,-14.72 -3.31,-16.98 0.5,5.07 -2.14,12.42 -5.21,13.86 -1.75,0.82 -3.44,0.27 -4.16,-0.94 -1.01,-2.15 0.33,-5.19 0.82,-7.26z"/>
  <path class="fil8" d="M56.51 116.72c2.74,-0.11 7.66,-1.53 10.74,-2.17 17.19,-3.58 43.12,-1.16 60.16,1.9 4.16,0.75 7.36,1.07 11.74,1.24 4,0.15 8.71,2.39 10.99,2.33 -1.42,-2.11 -2.45,-0.3 -3.17,-4.99 -1.21,-0.6 -17.99,-3.6 -20.56,-4.01 -6.33,-1.04 -15.33,-2.27 -21.78,-2.03l-0.86 0.12c-0.16,0.26 0.04,0.26 -0.77,0.67 -0.15,0.08 -0.66,0.14 -0.79,0.15l0.03 2.27c-1.75,0.56 -3.99,0.54 -5.52,-0.33l-1.13 -0.8c-0.4,-0.29 -2.35,-1.51 -2.9,-1.37 1.05,-0.13 2.47,-0.25 3.53,-0.29l2.2 -0.42c-1.23,-0.81 -4.28,-2.29 -5.32,-2.59l-4.33 0.49 3.09 2c-0.51,0.38 0.03,0.1 -0.87,0.47 -1.09,0.45 -16.73,1.31 -27.17,4.42 -2.7,0.81 -5.81,2.34 -8.18,2.91l0.87 0.03z"/>
  <path class="fil4" d="M129.53 126.47c0.95,1.17 1.85,1.13 3.42,1.62 5.32,1.67 17.52,5.13 18.9,10.03 2.49,1.95 1.67,6.79 0.4,9.1 -4.4,7.96 -20.98,11.91 -23.97,11.5l-1.19 0.57c-0.5,0.18 -1.04,0.26 -1.56,0.36 -6,1.2 -3.84,0.88 -10.32,0.38 -7.57,-0.59 -21.13,-0.51 -28.88,-0.21 -2.45,0.1 -4.96,0.4 -7.35,-0.15 -1.06,-0.24 -1.93,-0.47 -3.08,-0.71l-2.12 -0.55c-0.95,-0.42 -0.38,-0.13 -0.83,-0.48 -2.74,0.29 -13.98,-4.03 -16.49,-5.36 -3.64,-1.94 -10.17,-6.9 -8.82,-13.09 1.24,-5.64 14.92,-10.23 20.89,-12.2l7.73 -2.17c0.53,-0.18 0.7,-0.3 0.94,-0.46 -6.84,0.45 -18.71,4.24 -23.44,7.25 -8.17,5.21 -10.73,12.03 -3.29,17.9 20.78,16.41 76.65,17.31 98.34,3.85 2.63,-1.64 6.23,-4.62 6.83,-8.36 0.78,-4.89 -2.75,-7.71 -4.79,-9.65 -1.1,-1.05 -0.62,-0.83 -2.03,-1.8 -0.81,-0.56 -1.39,-0.96 -2.41,-1.42 -6.88,-3.1 -9.21,-3.73 -16.88,-5.95z"/>
  <path class="fil5" d="M156.02 158.22c14.21,-0.43 29.1,-15.67 15.46,-24.97 -2.69,-1.84 -9.28,-4.21 -12.5,-2.55 1.62,4.83 6.74,6.34 5.9,15.14 -0.69,7.24 -6.3,8.33 -8.86,12.38z"/>
  <path class="fil9" d="M59.92 74.4c1.01,-0.45 0.17,0.01 0.89,-0.51l2.22 -2.52c-0.59,2.5 -5.94,10.29 -8.33,18.45 -1.1,3.79 -3.35,20.8 -7.53,18.8 -1.26,-1.18 -0.72,-2.59 -0.36,-4.6 0.29,-1.6 0.62,-2.82 1,-4.41 -1.79,1.5 -2.25,6.64 -2.79,9.07 -0.76,3.46 -1.49,6.42 -1.5,10.11 1.41,-0.41 2.41,-1.63 4.1,-2.55 1.51,-0.82 3.1,-1.49 5.01,-1.89 1.32,-0.23 1.25,0.02 2,-0.59 0.29,-8.47 -0.32,-12.94 2.25,-21 3.69,-11.57 8.46,-21.61 17.1,-29.3 7.29,-6.49 7.28,-5.03 13.74,-9.44 -3.11,-1.45 -16.76,7.61 -19.32,10.33 -1.3,1.39 -1.7,2.01 -2.95,3.13 -1.67,1.5 -4.51,4.83 -5.53,6.92z"/>
  <path class="fil10" d="M112.56 131.36c10.2,0.36 21.36,3.63 31.57,6.08 2.04,0.48 4.86,1.38 6.6,2.49 2.2,1.41 -0.71,0.21 1.32,1.49 0.68,-1.14 0.21,-1.8 -0.2,-3.3 -1.38,-4.9 -13.58,-8.36 -18.9,-10.03 -1.57,-0.49 -2.47,-0.45 -3.42,-1.62l-1.46 0.2c-2.09,0.28 -22.13,-3.99 -28.1,-2.86 2.9,3.4 6.34,-0.2 12.59,7.55z"/>
  <path class="fil6" d="M75.05 109.05c-3.75,0.82 -6.77,1.09 -10.43,2.14 -3.27,0.95 -6.72,1.83 -9.99,2.57 -0.75,0.61 -0.68,0.36 -2,0.59 -2.5,1.28 -3.24,1.66 -5.24,3.54 -1.43,1.33 -3.44,2.49 -4.99,3.42 1.09,-0.18 13.48,-3.87 14.11,-4.59l-0.87 -0.03c2.37,-0.57 5.48,-2.1 8.18,-2.91 10.44,-3.11 26.08,-3.97 27.17,-4.42 0.9,-0.37 0.36,-0.09 0.87,-0.47l-3.09 -2 4.33 -0.49c-1.19,-1.46 -7.8,-4.27 -11.7,-9.26 -3.7,-4.73 -1.17,-11.32 1.24,-13.62 1.16,-1.11 0.1,-0.5 1.62,-0.84l0.55 -7.23c0.28,-1.86 1.19,-4.98 2.27,-6.09 0.04,-1.09 -0.02,-2.08 0.01,-3.11 0.04,-1.48 -0.2,-1.26 0.56,-2.1 -0.07,-3.75 6.12,-8.08 10.01,-9.11 0.04,-0.04 -0.88,-0.96 0.71,-0.15 0.58,-0.85 0.25,-0.33 0.72,-0.83 0.08,-0.09 0.35,-0.35 0.43,-0.44 0.48,-0.52 0.45,-0.28 0.81,-1.07 -1.46,0.44 -6.42,2.64 -7.96,3.47 -2.83,1.53 -4.45,3 -6.18,5.21 -3.12,3.98 0.87,4.23 -1.54,8.37 -3.03,5.22 -0.69,9.96 -3.65,13.08 -0.93,0.97 -1.92,1.84 -2.57,3.12 -5.47,10.83 5.97,17.45 9.57,21.13l-12.95 2.12z"/>
  <path class="fil11" d="M141.36 85.51c1.6,2.81 3.47,9.53 4.31,13.12 1.5,6.43 1.28,8.98 1.29,15.72l7.87 -1.52 0.17 -1.32c1.15,-5.58 -4.72,-20.16 -8.27,-26.17 -0.68,-1.16 -1.5,-2.34 -2.31,-3.39 -1.07,-1.37 -1.81,-2.03 -2.37,-3.27 -2,-1.29 -4.3,-3.91 -7.12,-5.06 1.89,3.43 5.12,7.68 6.43,11.89z"/>
  <path class="fil12" d="M59.92 74.4c-2.22,3.43 -4.82,7.1 -6.96,11.41 -1.41,2.84 -5.1,10.55 -5.15,13.8 -0.38,1.59 -0.71,2.81 -1,4.41 -0.36,2.01 -0.9,3.42 0.36,4.6 4.18,2 6.43,-15.01 7.53,-18.8 2.39,-8.16 7.74,-15.95 8.33,-18.45l-2.22 2.52c-0.72,0.52 0.12,0.06 -0.89,0.51z"/>
  <path class="fil13" d="M94.22 69.15c1.25,-0.5 1.37,-0.87 2.86,-0.96 1.07,2.27 1.33,4.47 0.07,7.06 -2.97,6.12 -7.59,5.12 -4.54,-3.63 -3.14,2.7 -4.87,19.35 8.51,11.76 0.54,-3.87 -0.05,-9.35 0.46,-13.82 -0.04,-1.94 -1.27,-3.46 -3.42,-3.24 -0.87,0.09 -1.66,0.55 -2.4,1.05 -1.29,0.88 -1.01,0.5 -1.54,1.78z"/>
  <path class="fil6" d="M142.05 78.68c0.56,1.24 1.3,1.9 2.37,3.27 0.81,1.05 1.63,2.23 2.31,3.39 3.55,6.01 9.42,20.59 8.27,26.17 0.05,0.09 0.14,0.11 0.16,0.26 0.01,0.15 0.11,0.21 0.13,0.27 0.13,0.52 0.11,0.38 0.13,0.93 1.2,-0.41 1.89,-1.3 3.01,-1.48 -0.55,-4.85 -1.58,-9.5 -2.92,-13.53 -1.23,-3.68 -4.04,-8.63 -4.6,-11.88l-2.48 -4.75 -0.38 -0.13c-1.01,-0.57 -6.42,-7.21 -6.87,-8.62l0.87 6.1z"/>
  <path class="fil14" d="M103.66 71.92c-0.58,2.37 -0.21,5.06 0.01,7.53l0.65 10.01c1.81,-0.32 3.56,-2.23 4.44,-3.73 1.01,-1.73 1.67,-3.99 1.87,-6.49 0.38,-4.66 -0.86,-10.05 -5.81,-11.07 -0.79,1.24 -0.98,1.92 -1.16,3.75z"/>
  <path class="fil15" d="M72.95 157.93c0.45,0.35 -0.12,0.06 0.83,0.48l2.12 0.55c1.15,0.24 2.02,0.47 3.08,0.71 2.39,0.55 4.9,0.25 7.35,0.15 7.75,-0.3 21.31,-0.38 28.88,0.21 6.48,0.5 4.32,0.82 10.32,-0.38 0.52,-0.1 1.06,-0.18 1.56,-0.36l1.19 -0.57c-4.37,-1.26 -13.6,-0.24 -15.46,-1.92 -5.73,3.56 -6.25,1.35 -12.34,-0.24 -0.85,0.8 -24.14,0.81 -27.53,1.37z"/>
  <path class="fil16" d="M88.28 75.21c-0.12,1.61 -0.55,2.81 -0.61,4.43 -0.08,1.86 0.33,2.86 0.4,4.67 0.74,0.74 -0.04,-0.12 0.64,0.94l0.89 1.3 -0.15 -2.23c3.04,3.3 5.07,5.97 11.76,6.02l-0.09 -6.96c-13.38,7.59 -11.65,-9.06 -8.51,-11.76 0.35,-1.24 0.9,-1.8 1.61,-2.47 0.53,-1.28 0.25,-0.9 1.54,-1.78 0.74,-0.5 1.53,-0.96 2.4,-1.05 2.15,-0.22 3.38,1.3 3.42,3.24l0.53 -1.73c0.03,-0.1 0.08,-0.25 0.13,-0.37l0.05 -1.54c-0.81,-1.09 -0.77,-2.86 -1.69,-4.07 -0.32,1.51 -0.3,1.27 0.46,2.55 -3.32,-0.03 -6.36,1.91 -8.16,3.56 -2.73,2.5 -2.74,3.92 -4.62,7.25z"/>
  <path class="fil17" d="M99.9 36.11c-0.87,1.14 -1.66,2.2 -2.53,3.6 -0.74,1.19 -1.32,2.84 -2,3.82 -0.49,2.07 -1.83,5.11 -0.82,7.26 0.72,1.21 2.41,1.76 4.16,0.94 3.07,-1.44 5.71,-8.79 5.21,-13.86l-0.2 -0.96c-1.23,-2.26 -1.81,-1.76 -3.82,-0.8z"/>
  <path class="fil18" d="M105.94 65.43l1.28 0.39c0.87,1.13 3.29,1.3 5.52,5.27 4.85,8.59 1.02,21.74 -6.74,23.04l-2.14 0.73c-0.47,0.8 -0.63,1.27 -0.31,2.54 1.26,0.81 3.01,0.58 4.84,0.52 2.27,-1.03 4.94,-3.18 5.68,-5.22l-0.55 0.37c-0.05,0.05 -0.18,0.14 -0.25,0.19 -2.1,1.72 -2.81,3.53 -7.66,3.98 1.04,-1.24 1.43,-1.01 3,-2.13 2.64,-1.9 5.08,-5.17 6.3,-8.53 2.46,-6.79 1.83,-10.9 -0.52,-16.94 2.39,1.44 5.59,9.04 3.65,13.42 0.44,-0.03 -0.07,0.09 0.57,-0.04 0.77,-0.16 0.75,-0.2 0.87,-0.24 -1.15,-1.16 -0.62,-1.78 -0.71,-3.91 -0.07,-1.48 -0.26,-2.8 -0.58,-4.13 -0.49,-2.06 -2.18,-5.13 -2.18,-6.79l-0.71 1.68c-0.79,-1.37 -1.52,-2.73 -2.52,-3.93 -1.16,-1.4 -1.84,-1.52 -2.82,-3.21l-2.26 -1.22c-0.95,1.74 -3.14,2.09 -1.76,4.16z"/>
  <path class="fil16" d="M84.98 89.09c1.02,0.84 1.18,1.51 2.01,2.82 0.63,0.98 1.22,1.77 1.9,2.66 0.82,1.09 1.18,1.43 2.37,2.2 0.93,0.6 1.7,0.77 2.18,1.74 -1.95,0.12 -3.77,-0.01 -5.44,-0.75 -3.8,-1.69 -2.3,-1.67 -4.12,-0.34 1.48,1.91 6.24,4.97 8.1,6.23 2.87,1.96 7.39,2.8 9.36,4.53l-0.17 -8.62c-6.65,-0.41 -11.1,-4.03 -13.59,-8.08 -0.44,-1.32 -1.12,-2.26 -1.68,-3.74l-1.1 -3.51c-0.47,-0.98 0.17,-0.13 -0.59,-0.87l0.77 5.73z"/>
  <path class="fil19" d="M87.58 91.48c2.49,4.05 6.94,7.67 13.59,8.08l-0.07 -4.33c-4.94,-0.41 -10.98,-4.63 -11.5,-8.68l-0.89 -1.3c-0.68,-1.06 0.1,-0.2 -0.64,-0.94l0.35 1.42c-0.89,0.3 -0.16,0.55 -1.34,-0.82 -0.02,3.51 0.69,3.89 1.6,6.53 -0.45,0.3 0.91,1.01 -1.1,0.04z"/>
  <path class="fil19" d="M87.08 69.36c-1.08,1.11 -1.99,4.23 -2.27,6.09 1.19,-1.54 2.59,-8.33 7.09,-10.53 -2.16,2.73 -5.26,7.38 -4.6,11.07l0.98 -0.78c1.88,-3.33 1.89,-4.75 4.62,-7.25 1.8,-1.65 4.84,-3.59 8.16,-3.56 -0.76,-1.28 -0.78,-1.04 -0.46,-2.55l0.22 -1.64c-6.13,0.52 -10.27,3.31 -13.14,8.22 -0.06,0.1 -0.12,0.2 -0.18,0.29 -0.06,0.11 -0.15,0.23 -0.21,0.31 -0.05,0.09 -0.13,0.23 -0.21,0.33z"/>
  <path class="fil20" d="M104.82 68.17c4.95,1.02 6.19,6.41 5.81,11.07 -0.2,2.5 -0.86,4.76 -1.87,6.49 -0.88,1.5 -2.63,3.41 -4.44,3.73l-0.8 0.52c1.35,-0.32 0.52,0.05 0.66,1.04 0.07,0.44 0,1.61 0.07,2.32l0.69 0.28c1.73,-1.32 3.33,-1.7 5.21,-4.62 3.15,-4.92 3.19,-11.81 1.11,-16.8 -1.82,-4.36 -4.32,-3.28 -5.08,-4.75 -1.02,0.19 -0.3,-0.02 -1.36,0.72z"/>
  <path class="fil21" d="M93.1 106.4c1.04,0.3 4.09,1.78 5.32,2.59 1.63,0.37 2.05,1.11 3.79,0.94 0.13,-0.01 0.64,-0.07 0.79,-0.15 0.81,-0.41 0.61,-0.41 0.77,-0.67 -0.12,-1.39 -0.52,-0.61 0.09,-1.17 -0.77,0.61 -1.12,1.08 -1.91,1.28l-0.61 -1.04c-1.97,-1.73 -6.49,-2.57 -9.36,-4.53 -1.86,-1.26 -6.62,-4.32 -8.1,-6.23 -0.94,-0.74 -1.83,-2.29 -2.3,-3.73 -1.91,-4.22 0.73,-7.93 2.63,-10.33l0.05 -0.68c-1.52,0.34 -0.46,-0.27 -1.62,0.84 -2.41,2.3 -4.94,8.89 -1.24,13.62 3.9,4.99 10.51,7.8 11.7,9.26z"/>
  <path class="fil22" d="M106.18 67.45c0.76,1.47 3.26,0.39 5.08,4.75 2.08,4.99 2.04,11.88 -1.11,16.8 -1.88,2.92 -3.48,3.3 -5.21,4.62 1.62,0.14 0.76,0.11 1.06,0.51 7.76,-1.3 11.59,-14.45 6.74,-23.04 -2.23,-3.97 -4.65,-4.14 -5.52,-5.27 0.56,1.07 -0.47,-1.55 0.38,1.12 -1.71,0.17 -0.7,-0.18 -1.42,0.51z"/>
  <path class="fil23" d="M118.04 83.06l-0.34 2.27c0.63,-0.83 0.2,-0.86 0.98,-1.16l0.41 0.08c1.78,2 1.94,4.78 1.49,7.96 -0.47,3.37 -1.25,4.74 -2.89,6.86 -0.68,0.97 -0.83,0.75 -1.83,1.37 -1.34,0.82 -3.85,2.64 -4.57,3.93 -1.01,0.63 -2.67,1.47 -4.1,2.04 -1.46,0.57 -2.03,0.96 -3.33,1.53 -0.61,0.56 -0.21,-0.22 -0.09,1.17l0.86 -0.12 9.05 -4.92 6.32 -5.16c4.81,-3.58 4.28,-9.19 1.37,-14.03 -0.93,-1.56 -0.84,-1 -1.89,-2.1 -0.12,0.04 -0.1,0.08 -0.87,0.24 -0.64,0.13 -0.13,0.01 -0.57,0.04z"/>
  <path class="fil24" d="M114.07 92.7c1.3,-1.39 3.3,-4.91 3.63,-7.37l0.34 -2.27c1.94,-4.38 -1.26,-11.98 -3.65,-13.42 2.35,6.04 2.98,10.15 0.52,16.94 -1.22,3.36 -3.66,6.63 -6.3,8.53 -1.57,1.12 -1.96,0.89 -3,2.13 4.85,-0.45 5.56,-2.26 7.66,-3.98 0.07,-0.05 0.2,-0.14 0.25,-0.19l0.55 -0.37z"/>
  <path class="fil25" d="M101.58 69.56c-0.51,4.47 0.08,9.95 -0.46,13.82l0.09 6.96c-6.69,-0.05 -8.72,-2.72 -11.76,-6.02l0.15 2.23c0.52,4.05 6.56,8.27 11.5,8.68l0.07 4.33c0.41,-1.1 0.33,-2.91 0.29,-4.41l0.04 -4.75c0.08,-2.16 -0.39,-5.61 0.27,-7.45 -0.14,-2.39 -0.37,-5.12 -0.3,-7.51 0.06,-2.15 0.7,-4.27 0.8,-6.07l-0.03 -1.91c-0.05,0.12 -0.1,0.27 -0.13,0.37l-0.53 1.73z"/>
  <path class="fil26" d="M146.96 114.35l0.01 0.68c0.72,4.69 1.75,2.88 3.17,4.99 2.03,0.2 3.98,1.92 5.47,2.01l-0.19 -9.06c-0.02,-0.55 0,-0.41 -0.13,-0.93 -0.02,-0.06 -0.12,-0.12 -0.13,-0.27 -0.02,-0.15 -0.11,-0.17 -0.16,-0.26l-0.17 1.32 -7.87 1.52z"/>
  <path class="fil27" d="M84.81 75.45l-0.55 7.23 -0.05 0.68c0.76,0.74 0.12,-0.11 0.59,0.87l1.1 3.51c0.56,1.48 1.24,2.42 1.68,3.74 2.01,0.97 0.65,0.26 1.1,-0.04 -0.91,-2.64 -1.62,-3.02 -1.6,-6.53 1.18,1.37 0.45,1.12 1.34,0.82l-0.35 -1.42c-0.07,-1.81 -0.48,-2.81 -0.4,-4.67 0.06,-1.62 0.49,-2.82 0.61,-4.43l-0.98 0.78c-0.66,-3.69 2.44,-8.34 4.6,-11.07 -4.5,2.2 -5.9,8.99 -7.09,10.53z"/>
  <path class="fil28" d="M117.7 85.33c-0.33,2.46 -2.33,5.98 -3.63,7.37 -0.74,2.04 -3.41,4.19 -5.68,5.22l-2.23 1.05 -1.34 1.22c0.48,1.23 0.49,1.36 2.02,2.12 2.24,-1.75 4.09,-1.74 6.09,-4 1.01,-1.13 3.29,-4.14 3.75,-5.9l-0.35 0.17c2.37,-0.97 2.84,-6.01 2.76,-8.33l-0.41 -0.08c-0.78,0.3 -0.35,0.33 -0.98,1.16z"/>
  <path class="fil29" d="M94.22 69.15c-0.71,0.67 -1.26,1.23 -1.61,2.47 -3.05,8.75 1.57,9.75 4.54,3.63 1.26,-2.59 1,-4.79 -0.07,-7.06 -1.49,0.09 -1.61,0.46 -2.86,0.96z"/>
  <path class="fil20" d="M106.84 102.31l0 -0.03c0.98,0.5 1.15,0.73 2.12,1.12 1.06,0.43 1.46,0.31 2.33,0.97 0.72,-1.29 3.23,-3.11 4.57,-3.93 1,-0.62 1.15,-0.4 1.83,-1.37 0.02,-1.58 1.61,-6.74 -1.01,-6.66 -0.46,1.76 -2.74,4.77 -3.75,5.9 -2,2.26 -3.85,2.25 -6.09,4z"/>
  <path class="fil16" d="M98.37 54.89l0.95 0c-1.27,5.63 -6.55,3.5 -9.47,8.49l-0.42 0.81c-0.35,0.61 -0.43,0.74 -0.92,1.34 -0.81,1 -0.64,0.56 -0.72,0.99l-0.14 -2.37c-0.76,0.84 -0.52,0.62 -0.56,2.1 -0.03,1.03 0.03,2.02 -0.01,3.11 0.08,-0.1 0.16,-0.24 0.21,-0.33 0.06,-0.08 0.15,-0.2 0.21,-0.31 0.06,-0.09 0.12,-0.19 0.18,-0.29 2.87,-4.91 7.01,-7.7 13.14,-8.22 0.21,-1.33 0.73,-2.43 0.79,-3.79 0.02,-0.3 -0.09,-1.98 -0.14,-2.19 -0.61,-2.78 0.32,-1.1 -1.02,-1.74l-0.12 0.06c-0.36,0.79 -0.33,0.55 -0.81,1.07 -0.08,0.09 -0.35,0.35 -0.43,0.44 -0.47,0.5 -0.14,-0.02 -0.72,0.83z"/>
  <path class="fil8" d="M155.42 112.97l0.19 9.06c-1.49,-0.09 -3.44,-1.81 -5.47,-2.01 0.82,1 8.12,3.9 9.48,4.06 -0.4,-5.1 -0.13,-7.62 -1.19,-12.59 -1.12,0.18 -1.81,1.07 -3.01,1.48z"/>
  <path class="fil13" d="M81.58 93.69c0.47,1.44 1.36,2.99 2.3,3.73 1.82,-1.33 0.32,-1.35 4.12,0.34 1.67,0.74 3.49,0.87 5.44,0.75 -0.48,-0.97 -1.25,-1.14 -2.18,-1.74 -1.19,-0.77 -1.55,-1.11 -2.37,-2.2 -0.68,-0.89 -1.27,-1.68 -1.9,-2.66 -0.83,-1.31 -0.99,-1.98 -2.01,-2.82 0.75,1.73 1.65,2.78 2.15,4.41 -2.47,-0.41 -2.54,-1.5 -4.25,-2.33 -0.81,1.76 0.08,1.92 -1.3,2.52z"/>
  <path class="fil30" d="M100.82 60.21l-0.22 1.64c0.92,1.21 0.88,2.98 1.69,4.07 -0.08,-1.73 -0.08,-0.55 0.37,-0.92 1.74,0.14 1.38,-0.18 3.28,0.43 -1.38,-2.07 0.81,-2.42 1.76,-4.16 -0.95,-0.03 -0.35,0.35 -0.68,-0.39 -2.22,-0.48 -3.05,-1 -5.55,-0.98 0.85,-2.72 1.64,-3.24 0.82,-6.65l2.06 1 0.12 -0.74 -1.34 -1c-1.15,-0.49 -1.43,-0.33 -2.31,-0.14 -0.11,0.02 -0.25,0.06 -0.37,0.12 1.34,0.64 0.41,-1.04 1.02,1.74 0.05,0.21 0.16,1.89 0.14,2.19 -0.06,1.36 -0.58,2.46 -0.79,3.79z"/>
  <path class="fil28" d="M107.02 60.88l-0.29 -0.49c1.49,-0.27 2.58,-0.08 3.67,0.21 -0.67,-2.64 -2.55,-3.86 -4.24,-4.96 -0.5,-0.32 -1.06,-0.8 -1.81,-1.39l-2.06 -1c0.82,3.41 0.03,3.93 -0.82,6.65 2.5,-0.02 3.33,0.5 5.55,0.98z"/>
  <path class="fil31" d="M107.02 60.88c0.33,0.74 -0.27,0.36 0.68,0.39l2.26 1.22c2.29,0.44 3.21,2.27 5.23,3.03 -0.69,-3.19 -2.21,-4.42 -2.85,-6.45 -0.3,-1.91 0.36,0.08 -0.41,-0.87 -0.58,-0.72 -0.04,-0.11 -0.64,-0.58l-4.06 -2.77 -2.76 -1.34 -0.12 0.74c0.75,0.59 1.31,1.07 1.81,1.39 1.69,1.1 3.57,2.32 4.24,4.96 -1.09,-0.29 -2.18,-0.48 -3.67,-0.21l0.29 0.49z"/>
  <path class="fil32" d="M101.95 109.22c0.79,-0.2 1.14,-0.67 1.91,-1.28 1.3,-0.57 1.87,-0.96 3.33,-1.53 -1.58,-1.28 -2.8,0.53 -1.61,-3.67l1.26 -0.46 0 0.03c-1.53,-0.76 -1.54,-0.89 -2.02,-2.12l1.34 -1.22 -3.02 0.66c-1.62,0.57 -1.11,1.43 -1.19,4.37 -0.05,1.78 0,3.44 0,5.22z"/>
  <path class="fil33" d="M81.58 93.69c1.38,-0.6 0.49,-0.76 1.3,-2.52 1.71,0.83 1.78,1.92 4.25,2.33 -0.5,-1.63 -1.4,-2.68 -2.15,-4.41l-0.77 -5.73c-1.9,2.4 -4.54,6.11 -2.63,10.33z"/>
  <path class="fil22" d="M116.68 92.41c2.62,-0.08 1.03,5.08 1.01,6.66 1.64,-2.12 2.42,-3.49 2.89,-6.86 0.45,-3.18 0.29,-5.96 -1.49,-7.96 0.08,2.32 -0.39,7.36 -2.76,8.33l0.35 -0.17z"/>
  <path class="fil34" d="M101.77 82.95c-0.66,1.84 -0.19,5.29 -0.27,7.45 1.34,0.26 1.26,0.28 2.02,-0.42l0.8 -0.52 -0.65 -10.01c-0.47,1.56 -0.85,2.53 -1.9,3.5z"/>
  <path class="fil33" d="M87.65 64.15l0.14 2.37c0.08,-0.43 -0.09,0.01 0.72,-0.99 0.49,-0.6 0.57,-0.73 0.92,-1.34 0.24,-4.9 5.6,-5.28 7.6,-7.7 1.09,-1.3 0.36,0.02 0.63,-1.45 -3.89,1.03 -10.08,5.36 -10.01,9.11z"/>
  <path class="fil35" d="M101.77 82.95c1.05,-0.97 1.43,-1.94 1.9,-3.5 -0.22,-2.47 -0.59,-5.16 -0.01,-7.53 -0.18,-0.94 -0.64,-1.86 -1.39,-2.55 -0.1,1.8 -0.74,3.92 -0.8,6.07 -0.07,2.39 0.16,5.12 0.3,7.51z"/>
  <path class="fil30" d="M101.46 95.15c0.04,1.5 0.12,3.31 -0.29,4.41l0.17 8.62 0.61 1.04c0,-1.78 -0.05,-3.44 0,-5.22 0.08,-2.94 -0.43,-3.8 1.19,-4.37l3.02 -0.66 2.23 -1.05c-1.83,0.06 -3.58,0.29 -4.84,-0.52 -0.32,-1.27 -0.16,-1.74 0.31,-2.54l-2.4 0.29z"/>
  <path class="fil36" d="M102.21 109.93c-1.74,0.17 -2.16,-0.57 -3.79,-0.94l-2.2 0.42c-1.06,0.04 -2.48,0.16 -3.53,0.29 0.55,-0.14 2.5,1.08 2.9,1.37l1.13 0.8c1.53,0.87 3.77,0.89 5.52,0.33l-0.03 -2.27z"/>
  <path class="fil37" d="M102.29 65.92l-0.05 1.54 0.03 1.91c0.75,0.69 1.21,1.61 1.39,2.55 0.18,-1.83 0.37,-2.51 1.16,-3.75 1.06,-0.74 0.34,-0.53 1.36,-0.72 0.72,-0.69 -0.29,-0.34 1.42,-0.51 -0.85,-2.67 0.18,-0.05 -0.38,-1.12l-1.28 -0.39c-1.9,-0.61 -1.54,-0.29 -3.28,-0.43 -0.45,0.37 -0.45,-0.81 -0.37,0.92z"/>
  <path class="fil38" d="M109.96 62.49c0.98,1.69 1.66,1.81 2.82,3.21 1,1.2 1.73,2.56 2.52,3.93l0.71 -1.68c-0.12,-4.74 -1.2,-6.61 -3.67,-8.88 0.64,2.03 2.16,3.26 2.85,6.45 -2.02,-0.76 -2.94,-2.59 -5.23,-3.03z"/>
  <path class="fil28" d="M107.19 106.41c1.43,-0.57 3.09,-1.41 4.1,-2.04 -0.87,-0.66 -1.27,-0.54 -2.33,-0.97 -0.97,-0.39 -1.14,-0.62 -2.12,-1.12l-1.26 0.46c-1.19,4.2 0.03,2.39 1.61,3.67z"/>
  <path class="fil13" d="M97.66 55.04c-0.27,1.47 0.46,0.15 -0.63,1.45 -2,2.42 -7.36,2.8 -7.6,7.7l0.42 -0.81c2.92,-4.99 8.2,-2.86 9.47,-8.49l-0.95 0c-1.59,-0.81 -0.67,0.11 -0.71,0.15z"/>
  <path class="fil28" d="M101.5 90.4l-0.04 4.75 2.4 -0.29 2.14 -0.73c-0.3,-0.4 0.56,-0.37 -1.06,-0.51l-0.69 -0.28c-0.07,-0.71 0,-1.88 -0.07,-2.32 -0.14,-0.99 0.69,-1.36 -0.66,-1.04 -0.76,0.7 -0.68,0.68 -2.02,0.42z"/>
  <path class="fil7" d="M148.43 81.33l2.48 4.75c1.43,1.59 2.63,5.86 3.8,7.43 -0.18,-2.63 -5,-11.75 -5.99,-12.82 -0.99,-1.06 -0.1,-0.21 -0.94,-0.57l0.65 1.21z"/>
  <path class="fil7" d="M147.78 80.12l0.11 -0.86c-0.18,-0.13 -0.79,-0.29 -0.87,-0.32l0.76 1.18z"/>
  <polygon class="fil7" points="147.02,78.94 147.13,78.12 146.26,77.73 "/>
 </g>
</svg>
