<?xml version="1.0" encoding="UTF-8"?>
<!DOCTYPE svg PUBLIC "-//W3C//DTD SVG 1.1//EN" "http://www.w3.org/Graphics/SVG/1.1/DTD/svg11.dtd">
<!-- Creator: CorelDRAW -->
<svg xmlns="http://www.w3.org/2000/svg" xml:space="preserve" width="200px" height="200px" version="1.1" style="shape-rendering:geometricPrecision; text-rendering:geometricPrecision; image-rendering:optimizeQuality; fill-rule:evenodd; clip-rule:evenodd"
viewBox="0 0 200 200"
 xmlns:xlink="http://www.w3.org/1999/xlink"
 xmlns:xodm="http://www.corel.com/coreldraw/odm/2003">
 <defs>
  <style type="text/css">
   <![CDATA[
    .fil0 {fill:none}
    .fil84 {fill:#F5AF7E}
    .fil85 {fill:#FFC692}
    .fil2 {fill:#FED3A1;fill-rule:nonzero}
    .fil8 {fill:#FAC2BB;fill-rule:nonzero}
    .fil78 {fill:#FCB82E;fill-rule:nonzero}
    .fil36 {fill:#FCB52F;fill-rule:nonzero}
    .fil32 {fill:#F9A431;fill-rule:nonzero}
    .fil27 {fill:#F89C32;fill-rule:nonzero}
    .fil34 {fill:#F58434;fill-rule:nonzero}
    .fil46 {fill:#F47F34;fill-rule:nonzero}
    .fil28 {fill:#F26935;fill-rule:nonzero}
    .fil26 {fill:#F26836;fill-rule:nonzero}
    .fil23 {fill:#F16136;fill-rule:nonzero}
    .fil24 {fill:#F15D36;fill-rule:nonzero}
    .fil25 {fill:#F05736;fill-rule:nonzero}
    .fil77 {fill:#EF4E36;fill-rule:nonzero}
    .fil29 {fill:#EE3537;fill-rule:nonzero}
    .fil5 {fill:#ED3237;fill-rule:nonzero}
    .fil52 {fill:#FCD726;fill-rule:nonzero}
    .fil51 {fill:#FCD526;fill-rule:nonzero}
    .fil53 {fill:#FCD427;fill-rule:nonzero}
    .fil3 {fill:#F5AF7D;fill-rule:nonzero}
    .fil39 {fill:#FCE221;fill-rule:nonzero}
    .fil38 {fill:#FBDD23;fill-rule:nonzero}
    .fil50 {fill:#FBD727;fill-rule:nonzero}
    .fil6 {fill:#E83338;fill-rule:nonzero}
    .fil31 {fill:#EE9335;fill-rule:nonzero}
    .fil44 {fill:#E96E37;fill-rule:nonzero}
    .fil69 {fill:#E15537;fill-rule:nonzero}
    .fil67 {fill:#DD3338;fill-rule:nonzero}
    .fil33 {fill:#E17637;fill-rule:nonzero}
    .fil68 {fill:#DC5138;fill-rule:nonzero}
    .fil30 {fill:#DC4D38;fill-rule:nonzero}
    .fil42 {fill:#DB5738;fill-rule:nonzero}
    .fil66 {fill:#D33438;fill-rule:nonzero}
    .fil37 {fill:#D85E38;fill-rule:nonzero}
    .fil57 {fill:#D55238;fill-rule:nonzero}
    .fil45 {fill:#D23D38;fill-rule:nonzero}
    .fil7 {fill:#CE3438;fill-rule:nonzero}
    .fil40 {fill:#D06538;fill-rule:nonzero}
    .fil56 {fill:#CB4438;fill-rule:nonzero}
    .fil12 {fill:#C83438;fill-rule:nonzero}
    .fil81 {fill:#C53337;fill-rule:nonzero}
    .fil35 {fill:#C33437;fill-rule:nonzero}
    .fil13 {fill:#C13437;fill-rule:nonzero}
    .fil41 {fill:#C54C38;fill-rule:nonzero}
    .fil48 {fill:#C03437;fill-rule:nonzero}
    .fil10 {fill:#BF3437;fill-rule:nonzero}
    .fil43 {fill:#BB3437;fill-rule:nonzero}
    .fil11 {fill:#B43336;fill-rule:nonzero}
    .fil55 {fill:#B63D37;fill-rule:nonzero}
    .fil49 {fill:#B13335;fill-rule:nonzero}
    .fil59 {fill:#A93235;fill-rule:nonzero}
    .fil15 {fill:#A73234;fill-rule:nonzero}
    .fil47 {fill:#A33234;fill-rule:nonzero}
    .fil14 {fill:#A03234;fill-rule:nonzero}
    .fil61 {fill:#9C3133;fill-rule:nonzero}
    .fil71 {fill:#993133;fill-rule:nonzero}
    .fil9 {fill:#983133;fill-rule:nonzero}
    .fil58 {fill:#953432;fill-rule:nonzero}
    .fil62 {fill:#923032;fill-rule:nonzero}
    .fil21 {fill:#8B3031;fill-rule:nonzero}
    .fil63 {fill:#892F30;fill-rule:nonzero}
    .fil20 {fill:#842F30;fill-rule:nonzero}
    .fil60 {fill:#833130;fill-rule:nonzero}
    .fil19 {fill:#812E2F;fill-rule:nonzero}
    .fil73 {fill:#792D2E;fill-rule:nonzero}
    .fil22 {fill:#772D2D;fill-rule:nonzero}
    .fil74 {fill:#6F2D2C;fill-rule:nonzero}
    .fil79 {fill:#6E2D2C;fill-rule:nonzero}
    .fil17 {fill:#662D2B;fill-rule:nonzero}
    .fil54 {fill:#612D2B;fill-rule:nonzero}
    .fil16 {fill:#632D2B;fill-rule:nonzero}
    .fil64 {fill:#5E2D2C;fill-rule:nonzero}
    .fil65 {fill:#552D2D;fill-rule:nonzero}
    .fil82 {fill:#472E2D;fill-rule:nonzero}
    .fil75 {fill:#482E2E;fill-rule:nonzero}
    .fil70 {fill:#412E2D;fill-rule:nonzero}
    .fil18 {fill:#3F2D2D;fill-rule:nonzero}
    .fil72 {fill:#3F2D2D;fill-rule:nonzero}
    .fil80 {fill:#392C2D;fill-rule:nonzero}
    .fil76 {fill:#302A2B;fill-rule:nonzero}
    .fil83 {fill:#302A2B;fill-rule:nonzero}
    .fil1 {fill:url(#id0)}
    .fil4 {fill:url(#id1);fill-rule:nonzero}
   ]]>
  </style>
  <linearGradient id="id0" gradientUnits="userSpaceOnUse" x1="99.95" y1="-0.03" x2="99.95" y2="199.97">
   <stop offset="0" style="stop-opacity:1; stop-color:#211F9C"/>
   <stop offset="1" style="stop-opacity:1; stop-color:#1C1A7D"/>
  </linearGradient>
  <linearGradient id="id1" gradientUnits="userSpaceOnUse" x1="93.99" y1="78.06" x2="88.61" y2="78.06">
   <stop offset="0" style="stop-opacity:1; stop-color:#FCC593"/>
   <stop offset="1" style="stop-opacity:1; stop-color:#F5AF7E"/>
  </linearGradient>
 </defs>
 <g id="Camada_x0020_1">
  <metadata id="CorelCorpID_0Corel-Layer"/>
  <g id="_2402046595568">
   <rect class="fil0" x="15.62" y="15.79" width="168.76" height="168.42"/>
   <circle class="fil1" cx="100" cy="100" r="100"/>
   <path class="fil2" d="M125.33 123.95c0.09,8.69 -12.22,15.86 -27.5,16.02 -15.27,0.15 -29.98,-7.07 -27.82,-15.44 2.06,-7.92 12.23,-15.85 27.5,-16.01 15.27,-0.16 27.73,6.76 27.82,15.43z"/>
   <polygon class="fil3" points="114.25,129.41 79.91,129.77 79.52,90.5 113.85,90.14 "/>
   <path class="fil4" d="M123.53 67.7c-1.18,-0.57 -0.18,-1.08 -1.6,0.71 -0.21,-19.57 -6.63,-39.09 -25.86,-38.36 -17.75,0.68 -25.77,19.21 -25.64,38.66 -1.28,-1.65 -0.32,-1.15 -1.45,-0.69 -2.01,0.83 -2.4,5.44 -0.87,10.28 1.53,4.85 4.42,8.11 6.43,7.28l0.36 -0.21c3.95,14.94 12.9,28.23 22.56,28.12 9.64,-0.09 17.25,-13.48 20.38,-28.43 1.95,0.18 4.57,-2.74 6.13,-7.04 1.74,-4.75 1.54,-9.38 -0.44,-10.32z"/>
   <path class="fil5" d="M147.79 134.57c0.66,-8.59 -5.71,-11.72 -14.66,-13.65 0,0 -17.46,-9.78 -18.69,-9.35 -5.73,2.02 -11.56,12.57 -16.87,12.67 -10.2,0.21 -18.24,-11.72 -18.24,-11.72l-18.77 10.35c-9.56,1.78 -14.16,3.67 -13.51,12.49 -0.29,0.33 0.9,4.38 1.01,4.62l17.91 42.77 64.56 -0.83 15.17 -40.84c0.41,-1.86 2.1,-5.65 2.1,-5.65l-0.03 -0.23c0.02,-0.2 0,-0.42 0.02,-0.63z"/>
   <path class="fil6" d="M102.18 24.03c-0.98,-3.85 -3.46,-9.19 -6.29,-9.16 -2.84,0.03 -5.21,5.42 -6.11,9.3 -13.3,4.17 -23.14,20.75 -22.99,35.65 0.11,9.44 3.74,9.99 9.66,8.51 4.85,-4.1 11.29,-5.68 17.73,-5.21 0.25,-0.01 0.5,-0.02 0.75,-0.03l0.33 -0.01c0.68,-0.03 1.36,-0.02 2.04,0.03 3.18,-0.18 6.45,0.05 9.57,0.78l0.43 0.1 0.27 0.06c1.48,-0.09 2.96,0.12 4.36,0.58 0.89,0.14 1.77,0.42 2.62,0.81 1.67,0.59 3.18,1.6 4.44,2.9 4.35,0.18 7.01,-1.74 6.93,-9.15 -0.16,-14.9 -10.35,-31.26 -23.74,-35.16z"/>
   <path class="fil7" d="M123.75 59.34c-3.22,-1.01 -6.96,-1.83 -11.06,-2.41 0.26,0 0.52,0.01 0.78,0.01 0.33,0 0.65,-0.01 0.97,-0.01 0.33,-0.01 0.65,-0.01 0.97,-0.01 0.13,0 0.25,0 0.37,0 0.21,0.01 0.42,0.02 0.63,0.03 2.09,0.46 4.16,1.06 6.18,1.82 0.38,0.19 0.77,0.39 1.16,0.57zm-14.11 -2.8c-3.79,-0.42 -7.84,-0.64 -12.06,-0.64 -0.42,0 -0.84,0 -1.26,0.01 -1.24,0.01 -2.46,0.04 -3.67,0.09 0.17,-0.28 0.36,-0.54 0.56,-0.79 4.01,0.1 8.03,0.47 12.03,0.71 1.5,0.09 2.94,0.35 4.4,0.62z"/>
   <path class="fil8" d="M123.73 47.08c-1.63,-4.71 -4.1,-9.18 -7.18,-12.95 1.03,1.14 2.02,2.38 2.96,3.72 2.06,2.93 3.37,6.01 4.22,9.23z"/>
   <path class="fil7" d="M124.69 52.09c-0.19,-0.91 -0.39,-1.8 -0.62,-2.69 -0.58,-2.12 -1.22,-3.93 -2.16,-5.85 -0.78,-1.59 -1.35,-3.49 -2.37,-4.95 -1.2,-1.72 -3.23,-3.37 -3.86,-5.15l-0.08 0.04c0.38,1.22 0.58,2.45 0.62,3.66 -1.09,-1.12 -2.31,-2.05 -3.65,-2.73 -0.03,-0.04 -0.06,-0.08 -0.09,-0.12l-0.58 -0.2c0.23,0.1 0.46,0.2 0.67,0.32 1.32,1.71 2.45,3.65 3.41,5.72 -0.56,2.81 -2.02,5.36 -4.17,7.31 -2.21,2 -4.8,2.31 -7.49,2.73 -0.65,0.1 -1.3,0.2 -1.94,0.29 2.57,-1.78 5.06,-4.08 4.99,-6.29 -0.01,-0.55 -0.1,-1.08 -0.25,-1.6 -0.11,-0.63 -0.35,-1.27 -0.77,-1.89 -0.15,-0.22 -0.31,-0.39 -0.5,-0.54 -0.3,-0.38 -0.65,-0.74 -1.03,-1.08 0.01,-0.2 0.02,-0.4 0.02,-0.6 0.26,-2.98 -0.34,-6.08 -1.74,-8.59 -0.35,-0.96 -1.1,-1.84 -1.98,-2.62 -0.67,-0.64 -1.43,-1.2 -2.27,-1.62 -0.04,-0.03 -0.08,-0.05 -0.13,-0.08 -0.07,-1.94 0.34,-3.75 -0.1,-5.75 -0.39,-1.78 -1.82,-3.15 -2.36,-4.64 0.78,1.41 2.63,2.84 3.42,4.34 0.96,1.78 0.97,3.34 1.58,5.16 5.83,1.66 10.96,4.69 15.29,9.46 3.08,3.77 5.55,8.24 7.18,12.95 0.43,1.63 0.74,3.3 0.96,5.01z"/>
   <path class="fil8" d="M96.12 14.88c-0.01,0 -0.02,0 -0.03,0l-0.08 -0.28c0.03,0.09 0.06,0.19 0.11,0.28z"/>
   <path class="fil7" d="M96.28 15.47l-0.19 -0.59c0.01,0 0.02,0 0.03,0 0.03,0.08 0.07,0.16 0.11,0.23 0,0.11 0.01,0.23 0.05,0.36zm-0.02 -0.3c-0.01,-0.02 -0.02,-0.04 -0.03,-0.06 0,-0.01 0,-0.02 0,-0.03 0.01,0.03 0.02,0.06 0.03,0.09z"/>
   <path class="fil8" d="M96.24 14.9c-0.03,-0.01 -0.05,-0.01 -0.07,-0.01 -0.05,-0.18 -0.09,-0.37 -0.11,-0.56 0.19,0.18 0.19,0.36 0.18,0.57z"/>
   <path class="fil7" d="M96.23 15.08c-0.02,-0.06 -0.04,-0.13 -0.06,-0.19 0.02,0 0.04,0 0.07,0.01 0,0.06 -0.01,0.12 -0.01,0.18z"/>
   <path class="fil7" d="M67.83 59.68c-0.2,-3.37 0.97,-7.16 1.89,-10.34 0.79,-2.77 1.83,-5.64 3.17,-8.23 -0.04,0.11 -0.1,0.22 -0.15,0.33 -0.8,1.63 -1.49,3.34 -2.03,5.14 -0.82,2.45 -1.45,4.94 -1.87,7.39 -0.3,1.73 -0.71,3.49 -0.58,5.25 1.27,-1.18 3.06,-2.41 4.79,-2.66 -0.32,0.15 -0.64,0.3 -0.95,0.48 -0.66,0.39 -1.26,0.91 -1.86,1.42 -0.05,0.01 -0.09,0.02 -0.14,0.04 -0.81,0.24 -1.48,1.04 -2.27,1.18zm8.39 -2.15c1.17,-0.34 2.34,-0.64 3.53,-0.91 -1.16,0.37 -2.31,0.76 -3.53,0.91zm-2.53 -1.21c-0.27,-3.69 -0.27,-7.04 0.77,-10.72 1.28,-4.45 2.98,-8.99 5.68,-12.55 1.7,-2.26 3.57,-4.01 5.77,-5.54 0.88,-0.61 2.36,-1.24 3.11,-2.03 0.64,-0.28 1.14,-0.61 1.42,-1.48 1.03,-3.15 1.6,-6.99 4.67,-8.18 -1.8,1.76 -3.24,5.21 -3.31,7.88 -0.04,1.67 -0.09,1.48 -1.23,2.38 -1.43,1.1 -2.87,2.12 -3.94,3.72 -1.31,1.95 -2.06,4.76 -2.81,7.04 -1.36,4.13 -1.75,8.76 -1.18,13.1 0.18,1.32 0.64,2.47 1.12,3.61 -0.65,0.13 -1.29,0.25 -1.93,0.37 -1.53,0.28 -2.95,0.79 -4.44,1.29 -1.18,0.4 -2.48,0.67 -3.7,1.11zm10.86 -0.34c-0.34,-0.06 -0.68,-0.08 -1.01,-0.09 0.35,-0.05 0.71,-0.11 1.06,-0.15 0.03,0.07 0.05,0.15 0.07,0.22 -0.04,0.01 -0.08,0.02 -0.12,0.02zm10.56 -40.16c0.02,-0.02 0.03,-0.03 0.05,-0.05l0.19 -0.11 0.16 0c-0.02,0.01 -0.04,0.03 -0.06,0.04 -0.12,0.04 -0.23,0.08 -0.34,0.12zm0.4 -0.13l0.01 -0.03 0.09 0c-0.03,0.01 -0.07,0.01 -0.1,0.03z"/>
   <path class="fil5" d="M96.32 55.91c-21.88,0.23 -39.56,6.43 -39.48,13.84 0.04,3.89 4.99,7.33 12.81,9.7 0.24,-1.08 0.54,-2.15 0.99,-3.19 4.29,-9.99 13.95,-13.87 23.58,-13.14 0.24,-0.01 0.47,-0.02 0.71,-0.03l0.33 -0.01c0.68,-0.03 1.36,-0.02 2.04,0.03 3.18,-0.18 6.45,0.05 9.57,0.78l0.43 0.1 0.27 0.06c1.48,-0.09 2.96,0.12 4.36,0.58 0.89,0.14 1.77,0.42 2.62,0.81 3.41,1.21 6.15,4.1 7.42,7.82 0.32,0.74 0.51,1.5 0.56,2.3 0.2,1.21 0.21,2.41 0.13,3.58 8.26,-2.55 13.47,-6.21 13.43,-10.23 -0.08,-7.41 -17.89,-13.24 -39.77,-13z"/>
   <path class="fil9" d="M94.26 63.12c0.22,-0.01 0.45,-0.02 0.67,-0.03l0.33 -0.01c0.68,-0.03 1.36,-0.02 2.04,0.03 3.18,-0.18 6.45,0.05 9.57,0.78l0.43 0.1 0.27 0.06c1.48,-0.09 2.96,0.12 4.36,0.58 0.89,0.14 1.77,0.42 2.62,0.81 3.41,1.21 6.15,4.1 7.42,7.82 0.09,0.21 0.15,0.43 0.22,0.65 1.21,-1.17 1.89,-2.43 1.88,-3.76 -0.06,-5.62 -12.25,-10.05 -27.22,-9.89 -14.97,0.17 -27.07,4.85 -27,10.47 0.01,1.25 0.65,2.44 1.76,3.53 4.67,-8.51 13.67,-11.83 22.65,-11.14z"/>
   <path class="fil10" d="M67.46 60.46c0.63,-0.53 1.38,-0.9 2.02,-1.39 0.25,-0.19 0.51,-0.4 0.76,-0.61 0.59,-0.16 1.18,-0.19 1.79,-0.33 0.74,-0.18 1.49,-0.29 2.24,-0.38 -0.84,0.36 -1.67,0.72 -2.51,1.08 -0.94,0.33 -1.86,0.69 -2.75,1.07 -0.53,0.18 -1.05,0.37 -1.55,0.56zm58.45 -0.39c-0.19,-0.07 -0.39,-0.14 -0.59,-0.21 0.11,0.01 0.22,0.02 0.32,0.02 0,0 0,0 0.01,0l-0.08 -0.89c0,0 0.01,0 0.01,0 0.02,0 0.04,-0.04 0.05,-0.12 0.06,0.41 0.15,0.81 0.28,1.2zm-56.22 -0.39c0.7,-0.27 1.39,-0.56 2.07,-0.85 1.28,-0.46 2.59,-0.86 3.9,-1.23 0.18,-0.02 0.36,-0.04 0.54,-0.06 0.01,-0.01 0.01,-0.01 0.02,-0.01 -1.82,0.53 -3.61,1.13 -5.4,1.81 -0.39,0.11 -0.76,0.22 -1.13,0.34zm10.06 -3.06c1.21,-0.38 2.41,-0.73 3.69,-0.73 0.03,0 0.06,0 0.1,0 -1.28,0.2 -2.54,0.45 -3.79,0.73zm4.85 -0.88c-0.01,-0.05 -0.03,-0.1 -0.04,-0.15 2.02,-0.27 4.06,-0.38 6.11,-0.4 -1.74,0.08 -3.48,0.22 -5.21,0.43 -0.28,0.04 -0.57,0.08 -0.86,0.12zm-0.41 -1.15c-0.14,-0.35 -0.29,-0.69 -0.43,-1.04 2.11,-0.43 4.23,-0.89 6.35,-1.31 0.62,0.43 1.24,0.82 1.88,1.2 -2.63,0.27 -5.26,0.67 -7.8,1.15zm40.92 -0.45c-0.07,-0.32 -0.16,-0.64 -0.25,-0.97 -0.01,0.02 -0.02,0.04 -0.04,0.06 -0.03,-0.38 -0.08,-0.76 -0.13,-1.14 0.14,0.68 0.28,1.36 0.42,2.05z"/>
   <path class="fil11" d="M122.59 58.77c-2.02,-0.76 -4.09,-1.36 -6.18,-1.82 1.6,0.13 3.2,0.64 4.75,1.17 0.44,0.15 0.92,0.39 1.43,0.65zm-3.45 -3.54c-1.52,0 -3.05,-0.28 -4.58,-0.59 -4.55,-0.92 -9.09,-1.44 -13.69,-1.58 -0.54,-0.01 -1.08,-0.02 -1.63,-0.02 -0.4,0 -0.81,0.01 -1.21,0.01 1.09,-0.56 2.74,-1.47 4.35,-2.58 0.64,-0.09 1.29,-0.19 1.94,-0.29 2.69,-0.42 5.28,-0.73 7.49,-2.73 2.15,-1.95 3.61,-4.5 4.17,-7.31 1.56,3.39 2.63,7.12 3.24,10.74 0.16,0.97 -0.01,2.88 0.08,4.35 -0.05,0 -0.1,0 -0.16,0zm4.31 -0.94c-0.72,-6.23 -3.14,-12.98 -7.23,-17.14 -0.04,-1.21 -0.24,-2.44 -0.62,-3.66l0.08 -0.04c0.63,1.78 2.66,3.43 3.86,5.15 1.02,1.46 1.59,3.36 2.37,4.95 0.94,1.92 1.58,3.73 2.16,5.85 0.23,0.89 0.43,1.78 0.62,2.69 0.05,0.38 0.1,0.76 0.13,1.14 -0.33,0.56 -0.84,0.84 -1.37,1.06z"/>
   <path class="fil11" d="M70.24 58.46c0.6,-0.51 1.2,-1.03 1.86,-1.42 0.31,-0.18 0.63,-0.33 0.95,-0.48 0.2,-0.02 0.41,-0.04 0.61,-0.04 0.01,0 0.03,0 0.05,0 -0.01,-0.07 -0.01,-0.13 -0.02,-0.2 1.22,-0.44 2.52,-0.71 3.7,-1.11 1.49,-0.5 2.91,-1.01 4.44,-1.29 0.64,-0.12 1.28,-0.24 1.93,-0.37 0.14,0.35 0.29,0.69 0.43,1.04 -0.48,0.09 -0.95,0.18 -1.42,0.28 -2.97,0.6 -5.74,1.7 -8.5,2.88 -0.75,0.09 -1.5,0.2 -2.24,0.38 -0.61,0.14 -1.2,0.17 -1.79,0.33zm5.42 -0.86c1.72,-0.49 3.45,-0.92 5.11,-1.31 1.26,-0.31 2.52,-0.53 3.79,-0.7 0.01,0.05 0.03,0.1 0.04,0.15 -0.35,0.04 -0.71,0.1 -1.06,0.15 -0.04,0 -0.07,0 -0.1,0 -1.28,0 -2.48,0.35 -3.69,0.73 -1.19,0.27 -2.36,0.57 -3.53,0.91 -0.01,0 -0.01,0 -0.02,0.01 -0.18,0.02 -0.36,0.04 -0.54,0.06z"/>
   <path class="fil12" d="M67.03 60.87c0.13,-0.15 0.27,-0.29 0.43,-0.41 0.5,-0.19 1.02,-0.38 1.55,-0.56 -0.21,0.1 -0.42,0.19 -0.63,0.29 0.44,-0.16 0.88,-0.33 1.31,-0.51 0.37,-0.12 0.74,-0.23 1.13,-0.34 -1.27,0.47 -2.53,0.98 -3.79,1.53zm58.92 -0.69c-0.25,-0.11 -0.49,-0.22 -0.74,-0.34 0.04,0.01 0.07,0.02 0.11,0.02 0.2,0.07 0.4,0.14 0.59,0.21 0.01,0.04 0.03,0.08 0.04,0.11z"/>
   <path class="fil13" d="M121.73 72.68c-0.79,-2.02 -2.02,-3.78 -3.55,-5.11 0.28,0.24 0.55,0.5 0.81,0.77 0,0 0,0 0.01,0 1.16,1.21 2.1,2.68 2.75,4.33 -0.01,0 -0.01,0.01 -0.02,0.01z"/>
   <path class="fil14" d="M119 68.34c-0.01,0 -0.01,0 -0.01,0 -0.26,-0.27 -0.53,-0.53 -0.81,-0.77 -0.36,-0.31 -0.73,-0.59 -1.12,-0.85 0.01,0 0.01,0 0.01,0 0.7,0.47 1.34,1.01 1.93,1.62z"/>
   <path class="fil13" d="M106.87 63.89c-1.82,-0.42 -3.7,-0.66 -5.57,-0.77 -0.01,0 -0.02,-0.01 -0.02,-0.02 1.88,0.11 3.76,0.37 5.59,0.79z"/>
   <path class="fil15" d="M119.94 64.83c-0.12,-0.07 -0.25,-0.15 -0.38,-0.22 0.13,0.07 0.26,0.15 0.38,0.22z"/>
   <path class="fil16" d="M121.75 72.67c-0.65,-1.65 -1.59,-3.12 -2.75,-4.33 -0.59,-0.61 -1.23,-1.15 -1.93,-1.62 1.04,0.19 2.08,0.4 3.08,0.77 0.58,0.23 1.25,0.73 1.84,0.73l-0.24 0.21c0,0.31 0.19,0.45 0.42,0.45 0.1,0 0.2,-0.02 0.3,-0.06 -0.06,-3.07 -3.72,-4.42 -5.79,-5.15 -2.8,-1 -5.88,-1.88 -8.9,-2.38 1.75,0.2 3.44,0.53 5.16,1.11 1.94,0.65 4.56,1.1 6.62,2.21 0.13,0.07 0.26,0.15 0.38,0.22 0.59,0.36 1.11,0.77 1.56,1.27 1.53,1.73 1.89,3.84 0.67,5.99 -0.11,0.21 -0.28,0.38 -0.42,0.58zm-17.25 -11.79c-0.08,0 -0.16,-0.01 -0.24,-0.01 -1.29,-0.09 -2.58,-0.17 -3.88,-0.23 0.37,-0.06 0.75,-0.08 1.13,-0.08 0.98,0 2,0.16 2.99,0.32zm-4.32 -0.25c-1.18,-0.06 -2.37,-0.1 -3.55,-0.12 0.44,-0.12 0.94,-0.17 1.46,-0.17 0.69,0 1.4,0.08 2.06,0.12l0.03 0.17z"/>
   <path class="fil13" d="M71.98 73.65c0,0 -0.01,-0.01 -0.02,-0.01 1.24,-2.1 2.75,-3.86 4.46,-5.3 0.01,-0.01 0.02,-0.01 0.03,-0.01 1.2,-1.01 2.5,-1.87 3.87,-2.59 -3.33,1.74 -6.23,4.35 -8.34,7.91zm45.08 -6.93c0,0 0,0 0,0 -0.76,-0.51 -1.57,-0.93 -2.43,-1.25 0.86,0.32 1.67,0.73 2.43,1.25zm-2.43 -1.25c-0.01,0 -0.02,0 -0.04,-0.01 0.02,0.01 0.03,0.01 0.04,0.01zm-0.04 -0.01c-0.02,-0.01 -0.03,-0.01 -0.04,-0.02 -0.85,-0.39 -1.73,-0.67 -2.62,-0.81 -1.18,-0.39 -2.42,-0.6 -3.67,-0.6 -0.23,0 -0.46,0.01 -0.69,0.02l-0.27 -0.06 -0.43 -0.1 0 0 0.43 0.1 0.27 0.06c0.23,-0.01 0.46,-0.02 0.69,-0.02 1.25,0 2.49,0.21 3.67,0.6 0.89,0.14 1.77,0.42 2.62,0.81l0 0c0.01,0.01 0.02,0.01 0.04,0.02zm-20.33 -2.34c0,0 0,0 0,0 0.22,-0.01 0.45,-0.02 0.67,-0.03l0.33 -0.01c0.26,-0.01 0.52,-0.02 0.79,-0.02 0.41,0 0.83,0.02 1.25,0.05 0.67,-0.04 1.35,-0.06 2.03,-0.06 0.65,0 1.3,0.01 1.95,0.05l0 0c-0.65,-0.04 -1.3,-0.05 -1.95,-0.05 -0.68,0 -1.36,0.02 -2.03,0.06 -0.42,-0.03 -0.84,-0.05 -1.25,-0.05 -0.27,0 -0.53,0.01 -0.79,0.02l-0.33 0.01c-0.22,0.01 -0.45,0.02 -0.67,0.03z"/>
   <path class="fil14" d="M76.42 68.34c3.43,-2.91 7.68,-4.56 12.17,-5.1 -2.91,0.35 -5.72,1.17 -8.27,2.5 -1.37,0.72 -2.67,1.58 -3.87,2.59 -0.01,0 -0.02,0 -0.03,0.01zm40.64 -1.62l0 0c-0.76,-0.52 -1.57,-0.93 -2.43,-1.25 0,0 0,0 0,0 -0.01,0 -0.02,0 -0.04,-0.01 0,0 0,0 0,0 -0.02,-0.01 -0.03,-0.01 -0.04,-0.02l0 0c0.05,0.02 0.1,0.04 0.15,0.06l0.01 0c0.01,0.01 0.02,0.01 0.03,0.02 0,0 0.01,0 0.01,0 0.01,0 0.02,0.01 0.03,0.01 0,0 0.01,0 0.01,0.01 0.01,0 0.02,0 0.03,0 0,0.01 0.01,0.01 0.02,0.01 0,0 0.01,0.01 0.01,0.01 0.01,0 0.02,0 0.03,0.01 0,0 0,0 0.01,0 0.01,0.01 0.02,0.01 0.03,0.01l0 0c0.75,0.3 1.47,0.68 2.14,1.14z"/>
   <path class="fil15" d="M71.96 73.64l0 -0.01c4.36,-7.35 12.06,-10.6 20.02,-10.6 0.46,0 0.91,0.01 1.36,0.03 -0.45,-0.02 -0.89,-0.03 -1.34,-0.03 -1.15,0 -2.29,0.07 -3.41,0.21 -4.49,0.54 -8.74,2.19 -12.17,5.1 -1.71,1.44 -3.22,3.2 -4.46,5.3z"/>
   <path class="fil16" d="M71.96 73.63c-0.38,-0.45 -0.72,-0.95 -0.99,-1.51 -1.26,-2.71 0.21,-4.45 2.35,-5.68 2.74,-1.58 5.75,-2.89 8.7,-3.94 4.42,-1.56 8.96,-2 13.51,-2 0.37,0 0.73,0 1.1,0.01 -0.19,0.06 -0.37,0.13 -0.54,0.21 0.78,0.89 2.8,0.95 3.87,1.45 0.47,0.21 0.9,0.56 1.32,0.93 -0.65,-0.04 -1.3,-0.05 -1.95,-0.05 -0.68,0 -1.36,0.02 -2.03,0.06 -0.42,-0.03 -0.84,-0.05 -1.25,-0.05 -0.27,0 -0.53,0.01 -0.79,0.02l-0.33 0.01c-0.22,0.01 -0.45,0.02 -0.67,0.03 -0.31,-0.03 -0.61,-0.05 -0.92,-0.06 -0.45,-0.02 -0.9,-0.03 -1.36,-0.03 -7.96,0 -15.66,3.25 -20.02,10.6zm42.96 -8.05l0 0 0 0zm-0.03 -0.01c-0.01,0 -0.01,0 -0.01,0 0,0 0,0 0.01,0zm-0.04 -0.01c0,0 -0.01,-0.01 -0.01,-0.01 0,0 0.01,0.01 0.01,0.01zm-0.03 -0.02c-0.01,0 -0.02,0 -0.03,0 0.01,0 0.02,0 0.03,0zm-0.04 -0.01c-0.01,0 -0.02,-0.01 -0.03,-0.01 0.01,0 0.02,0.01 0.03,0.01zm-0.04 -0.01c-0.01,-0.01 -0.02,-0.01 -0.03,-0.02 0.01,0.01 0.02,0.01 0.03,0.02zm-0.04 -0.02c-0.05,-0.02 -0.1,-0.04 -0.15,-0.06 0.05,0.02 0.1,0.04 0.15,0.06zm-6.92 -4.21c-0.41,-0.05 -0.82,-0.09 -1.24,-0.13 -0.66,-0.05 -1.35,-0.17 -2.04,-0.28 1.08,0.08 2.18,0.22 3.28,0.41zm-7.59 -0.62l-0.01 -0.04c0.07,0 0.14,0.01 0.2,0.01 -0.06,0.01 -0.12,0.02 -0.19,0.03z"/>
   <path class="fil17" d="M117.07 66.72c0,0 0,0 -0.01,0 -0.67,-0.46 -1.39,-0.84 -2.14,-1.14 0.76,0.3 1.48,0.68 2.15,1.14zm-2.15 -1.14c-0.01,0 -0.02,0 -0.03,-0.01 0.01,0.01 0.02,0.01 0.03,0.01zm-0.04 -0.01c-0.01,-0.01 -0.02,-0.01 -0.03,-0.01 0.01,0 0.02,0 0.03,0.01zm-0.04 -0.02c-0.01,0 -0.02,0 -0.02,-0.01 0,0.01 0.01,0.01 0.02,0.01zm-0.05 -0.01c0,-0.01 -0.01,-0.01 -0.01,-0.01 0,0 0.01,0 0.01,0.01zm-0.04 -0.02c0,0 -0.01,0 -0.01,0 0,0 0.01,0 0.01,0zm-0.04 -0.02l-0.01 0 0.01 0z"/>
   <path class="fil18" d="M122.17 68.88c-0.23,0 -0.42,-0.14 -0.42,-0.45l0.24 -0.21c-0.59,0 -1.26,-0.5 -1.84,-0.73 -1,-0.37 -2.04,-0.58 -3.08,-0.77 -0.67,-0.46 -1.39,-0.84 -2.15,-1.14l0 0c-0.01,0 -0.02,0 -0.03,-0.01 -0.01,0 -0.01,0 -0.01,0 -0.01,-0.01 -0.02,-0.01 -0.03,-0.01 0,0 -0.01,-0.01 -0.01,-0.01 -0.01,0 -0.02,0 -0.02,-0.01 -0.01,0 -0.02,0 -0.03,0 0,-0.01 -0.01,-0.01 -0.01,-0.01 -0.01,0 -0.02,-0.01 -0.03,-0.01 0,0 -0.01,0 -0.01,0 -0.01,-0.01 -0.02,-0.01 -0.03,-0.02l-0.01 0c-0.05,-0.02 -0.1,-0.04 -0.15,-0.06l0 0c-0.85,-0.39 -1.73,-0.67 -2.62,-0.81 -1.18,-0.39 -2.42,-0.6 -3.67,-0.6 -0.23,0 -0.46,0.01 -0.69,0.02l-0.27 -0.06 -0.43 -0.1c-1.83,-0.42 -3.71,-0.68 -5.59,-0.79 -0.42,-0.37 -0.85,-0.72 -1.32,-0.93 -1.07,-0.5 -3.09,-0.56 -3.87,-1.45 0.17,-0.08 0.35,-0.15 0.54,-0.21 1.18,0.02 2.37,0.06 3.55,0.12l0.01 0.04c0.07,-0.01 0.13,-0.02 0.19,-0.03 1.3,0.06 2.59,0.14 3.88,0.23 0.08,0 0.16,0.01 0.24,0.01 0.69,0.11 1.38,0.23 2.04,0.28 0.42,0.04 0.83,0.08 1.24,0.13 3.02,0.5 6.1,1.38 8.9,2.38 2.07,0.73 5.73,2.08 5.79,5.15 -0.1,0.04 -0.2,0.06 -0.3,0.06z"/>
   <path class="fil19" d="M69.01 59.9c0.89,-0.38 1.81,-0.74 2.75,-1.07 -0.68,0.29 -1.37,0.58 -2.07,0.85 -0.23,0.08 -0.45,0.15 -0.68,0.22z"/>
   <path class="fil20" d="M68.38 60.19c0.21,-0.1 0.42,-0.19 0.63,-0.29 0.23,-0.07 0.45,-0.14 0.68,-0.22 -0.43,0.18 -0.87,0.35 -1.31,0.51z"/>
   <path class="fil14" d="M125.63 58.87c-0.21,-1.36 -0.09,-2.8 -0.39,-4.16 -0.05,-0.19 -0.09,-0.38 -0.13,-0.57 0.18,0.72 0.31,1.43 0.41,2.2 0.07,0.54 0.11,1.07 0.11,1.58 0.01,0.33 0.02,0.75 0,0.95zm-32.42 -3.66c-0.63,-0.02 -1.26,-0.03 -1.9,-0.03 -0.21,0 -0.43,0 -0.64,0.01 0.87,-0.04 1.75,-0.07 2.63,-0.09 -0.03,0.04 -0.06,0.07 -0.09,0.11z"/>
   <path class="fil21" d="M124.99 59.74c-0.41,-0.13 -0.82,-0.27 -1.24,-0.4 -0.39,-0.18 -0.78,-0.38 -1.16,-0.57 0.8,0.3 1.6,0.62 2.4,0.97zm-8.58 -2.79c-0.21,-0.01 -0.42,-0.02 -0.63,-0.03 -0.12,0 -0.24,0 -0.37,0 -0.32,0 -0.64,0 -0.97,0.01 -0.32,0 -0.64,0.01 -0.97,0.01 -0.26,0 -0.52,-0.01 -0.78,-0.01 -0.99,-0.15 -2.02,-0.28 -3.05,-0.39 -1.46,-0.27 -2.9,-0.53 -4.4,-0.62 -4,-0.24 -8.02,-0.61 -12.03,-0.71 0.03,-0.04 0.06,-0.07 0.09,-0.11 0.5,-0.01 1,-0.01 1.5,-0.01 0.21,0 0.41,0 0.62,0 0.27,0.07 0.55,0.11 0.8,0.11 0.2,0 0.39,-0.03 0.55,-0.09 4.4,0.09 8.8,0.44 13.16,0.85 2.2,0.2 4.36,0.53 6.48,0.99z"/>
   <path class="fil15" d="M125.21 59.84c-0.46,-0.08 -0.96,-0.27 -1.46,-0.5 0.42,0.13 0.83,0.27 1.24,0.4 0.07,0.04 0.15,0.07 0.22,0.1zm-12.52 -2.91c-0.68,-0.02 -1.36,-0.08 -2.04,-0.2 -0.34,-0.06 -0.68,-0.13 -1.01,-0.19 1.03,0.11 2.06,0.24 3.05,0.39z"/>
   <path class="fil19" d="M125.64 59.88c-0.1,0 -0.21,-0.01 -0.32,-0.02 -0.03,-0.01 -0.06,-0.02 -0.09,-0.03 -0.06,-2.25 -0.17,-4.45 -0.41,-6.6 0.02,-0.02 0.03,-0.04 0.04,-0.06 0.09,0.33 0.18,0.65 0.25,0.97 0.04,0.19 0.08,0.38 0.13,0.57 0.3,1.36 0.18,2.8 0.39,4.16 -0.01,0.08 -0.03,0.12 -0.05,0.12 0,0 -0.01,0 -0.01,0l0.08 0.89c-0.01,0 -0.01,0 -0.01,0zm-53.88 -1.05c0.84,-0.36 1.67,-0.72 2.51,-1.08 0.46,-0.05 0.93,-0.1 1.39,-0.15 -1.31,0.37 -2.62,0.77 -3.9,1.23zm12.8 -3.24c-0.12,-0.34 -0.24,-0.67 -0.37,-1 2.54,-0.48 5.17,-0.88 7.8,-1.15 0.62,0.36 1.25,0.7 1.89,1.03 -0.21,0.2 -0.4,0.42 -0.58,0.63 -0.88,0.02 -1.76,0.05 -2.63,0.09 -2.05,0.02 -4.09,0.13 -6.11,0.4z"/>
   <path class="fil22" d="M125.23 59.83c-0.08,-0.03 -0.16,-0.06 -0.24,-0.09 -0.8,-0.35 -1.6,-0.67 -2.4,-0.97 -0.51,-0.26 -0.99,-0.5 -1.43,-0.65 -1.55,-0.53 -3.15,-1.04 -4.75,-1.17 -2.12,-0.46 -4.28,-0.79 -6.48,-0.99 -4.36,-0.41 -8.76,-0.76 -13.16,-0.85 0.43,-0.17 0.65,-0.62 0.34,-1.53 0.07,-0.05 0.14,-0.11 0.21,-0.16 0.19,-0.1 0.43,-0.22 0.71,-0.37 0.4,0 0.81,-0.01 1.21,-0.01 0.55,0 1.09,0.01 1.63,0.02 4.6,0.14 9.14,0.66 13.69,1.58 1.53,0.31 3.06,0.59 4.58,0.59 0.06,0 0.11,0 0.16,0 0.04,0.63 0.13,1.18 0.31,1.53 0.52,1.03 2.96,1.47 4.05,2.24 0.04,-1.5 -0.03,-3.08 -0.21,-4.71 0.53,-0.22 1.04,-0.5 1.37,-1.06 0.24,2.15 0.35,4.35 0.41,6.6zm-31.93 -4.73c0.18,-0.21 0.37,-0.43 0.58,-0.63 0.14,0.07 0.28,0.14 0.42,0.21 0.3,0.16 0.71,0.31 1.12,0.41 -0.21,0 -0.41,0 -0.62,0 -0.5,0 -1,0 -1.5,0.01z"/>
   <path class="fil22" d="M74.27 57.75c2.76,-1.18 5.53,-2.28 8.5,-2.88 0.47,-0.1 0.94,-0.19 1.42,-0.28 0.13,0.33 0.25,0.66 0.37,1 -1.27,0.17 -2.53,0.39 -3.79,0.7 -1.66,0.39 -3.39,0.82 -5.11,1.31 -0.46,0.05 -0.93,0.1 -1.39,0.15z"/>
   <path class="fil20" d="M125.32 59.86c-0.04,0 -0.07,-0.01 -0.11,-0.02 -0.07,-0.03 -0.15,-0.06 -0.22,-0.1 0.08,0.03 0.16,0.06 0.24,0.09 0.03,0.01 0.06,0.02 0.09,0.03z"/>
   <path class="fil23" d="M72.89 41.11c3.58,-7.53 9.1,-13.87 16.39,-15.97 -0.07,0.11 -0.16,0.23 -0.26,0.34 -0.36,0.15 -0.76,0.29 -1.19,0.49 -1.51,0.7 -3.07,1.59 -4.48,2.47 -2.17,1.35 -4.03,3.47 -5.73,5.68 0.13,-0.26 0.26,-0.51 0.4,-0.75 0.25,-0.3 0.5,-0.6 0.76,-0.9 0,0 0,0 0,0.01l-0.13 0.16c-0.02,0.01 -0.04,0.03 -0.05,0.05l0.05 -0.05c0.06,-0.06 0.13,-0.07 0.13,-0.16l0.09 -0.12c-0.03,0.03 -0.06,0.07 -0.09,0.11 -0.01,-0.03 -0.01,-0.06 -0.02,-0.09 -0.28,0.27 -0.52,0.62 -0.74,0.99 -1.82,2.23 -3.45,4.58 -4.79,7.12 -0.12,0.21 -0.23,0.42 -0.34,0.62z"/>
   <path class="fil24" d="M68.26 59.22c-0.13,-1.76 0.28,-3.52 0.58,-5.25 0.42,-2.45 1.05,-4.94 1.87,-7.39 -0.45,1.45 -0.79,2.96 -1.04,4.53 -0.08,0.48 -0.33,2.22 -0.04,2.61 0.17,0.22 0.35,0.31 0.53,0.31 0.54,0 1.06,-0.84 1.26,-1.31 0.94,-2.22 1.25,-4.8 1.68,-7.18 0.65,-3.57 2.17,-6.74 3.76,-9.84 0.25,-0.49 0.49,-1.05 0.76,-1.58 1.7,-2.21 3.56,-4.33 5.73,-5.68 1.41,-0.88 2.97,-1.77 4.48,-2.47 0.43,-0.2 0.83,-0.34 1.19,-0.49 -0.75,0.79 -2.23,1.42 -3.11,2.03 -2.2,1.53 -4.07,3.28 -5.77,5.54 -2.7,3.56 -4.4,8.1 -5.68,12.55 -1.04,3.68 -1.04,7.03 -0.77,10.72 -0.22,0.07 -0.43,0.16 -0.64,0.24 -1.73,0.25 -3.52,1.48 -4.79,2.66zm4.48 -17.78c0.05,-0.11 0.11,-0.22 0.15,-0.33 0.11,-0.2 0.22,-0.41 0.34,-0.62 -0.17,0.32 -0.33,0.63 -0.49,0.95z"/>
   <path class="fil25" d="M73.05 56.56c0.21,-0.08 0.42,-0.17 0.64,-0.24 0.01,0.07 0.01,0.13 0.02,0.2 -0.02,0 -0.04,0 -0.05,0 -0.2,0 -0.41,0.02 -0.61,0.04z"/>
   <path class="fil26" d="M70.71 46.58c0.54,-1.8 1.23,-3.51 2.03,-5.14 -0.77,1.67 -1.45,3.39 -2.03,5.14z"/>
   <path class="fil27" d="M73.23 40.49c1.34,-2.54 2.97,-4.89 4.79,-7.12 -0.14,0.24 -0.27,0.49 -0.4,0.75 -0.89,1.16 -1.74,2.35 -2.56,3.47 -0.66,0.9 -1.27,1.88 -1.83,2.9z"/>
   <path class="fil27" d="M70.16 54.03c-0.18,0 -0.36,-0.09 -0.53,-0.31 -0.29,-0.39 -0.04,-2.13 0.04,-2.61 0.25,-1.57 0.59,-3.08 1.04,-4.53 0.58,-1.75 1.26,-3.47 2.03,-5.14 0.16,-0.32 0.32,-0.63 0.49,-0.95 0.56,-1.02 1.17,-2 1.83,-2.9 0.82,-1.12 1.67,-2.31 2.56,-3.47 -0.27,0.53 -0.51,1.09 -0.76,1.58 -1.59,3.1 -3.11,6.27 -3.76,9.84 -0.43,2.38 -0.74,4.96 -1.68,7.18 -0.2,0.47 -0.72,1.31 -1.26,1.31z"/>
   <path class="fil27" d="M78.02 33.37c0.22,-0.37 0.46,-0.72 0.74,-0.99 0.01,0.03 0.01,0.06 0.02,0.09 -0.26,0.3 -0.51,0.6 -0.76,0.9zm0.58 -0.68c0.01,-0.02 0.03,-0.04 0.05,-0.05l-0.05 0.05zm0.05 -0.05l0.13 -0.16c0,0.09 -0.07,0.1 -0.13,0.16zm0.13 -0.16c0,-0.01 0,-0.01 0,-0.01 0.03,-0.04 0.06,-0.08 0.09,-0.11l-0.09 0.12z"/>
   <path class="fil28" d="M93.76 24.25c-0.21,0 -0.44,-0.04 -0.68,-0.14 -1.12,-0.44 -0.84,-1.63 -0.63,-2.77 0.34,-1.79 1.59,-4.58 3,-5.64 0.02,0 0.04,-0.01 0.06,-0.01l-0.08 0.29c0.22,-0.28 0.41,-0.4 0.6,-0.4 0.57,0 0.95,1.22 0.97,1.88 0.06,1.92 -0.35,3.57 -1.28,5.19 -0.51,0.88 -1.11,1.6 -1.96,1.6zm1.75 -8.59c0,0 0,-0.01 0.01,-0.01l0 0.01 -0.01 0z"/>
   <path class="fil26" d="M95.45 15.7c0.02,-0.01 0.04,-0.03 0.06,-0.04l0.01 0 -0.01 0.03c-0.02,0 -0.04,0.01 -0.06,0.01z"/>
   <path class="fil29" d="M75.46 58.14c0.55,-0.21 1.1,-0.42 1.66,-0.6 2.39,-0.77 4.97,-1.13 7.43,-1.56 0.05,0.01 0.09,0.02 0.14,0.03l0 0c-0.01,-0.02 -0.01,-0.03 -0.02,-0.05 0.27,-0.04 0.54,-0.09 0.8,-0.14l-0.3 0.12 -0.09 0.22c0.15,-0.15 0.42,-0.21 0.74,-0.21 0.53,0 1.19,0.18 1.5,0.4 -4.26,0.38 -8.25,0.99 -11.86,1.79z"/>
   <path class="fil5" d="M84.69 56.01c-0.05,-0.01 -0.09,-0.02 -0.14,-0.03 0.04,0 0.08,-0.01 0.12,-0.02 0.01,0.02 0.01,0.03 0.02,0.05z"/>
   <path class="fil29" d="M63.34 75.27c-1.04,0 -2.62,-1.42 -3.31,-1.99 -1.62,-1.35 -3.14,-3.5 -2.07,-5.74 1.03,-2.15 3.44,-3.97 5.45,-4.68 2.18,-0.78 4.31,-1.82 6.47,-2.51 1.89,-0.6 3.71,-1.48 5.58,-2.21 3.61,-0.8 7.6,-1.41 11.86,-1.79 0.04,0.02 0.06,0.04 0.09,0.06 -0.99,0.59 -2.49,0.85 -3.63,1.11 -1.89,0.43 -3.87,1.07 -5.62,2.04 -2.13,1.18 -4.3,2.26 -6.36,3.63 -2.24,1.47 -4.86,3.06 -6.37,5.52 -0.55,0.9 -1.09,1.77 -1.21,2.9 -0.11,0.94 0.24,2.01 -0.01,2.9 -0.15,0.55 -0.47,0.76 -0.87,0.76z"/>
   <path class="fil24" d="M115.98 40.14c-0.96,-2.07 -2.09,-4.01 -3.41,-5.72 1.34,0.68 2.56,1.61 3.65,2.73 0.03,1.02 -0.05,2.02 -0.24,2.99z"/>
   <path class="fil25" d="M119.3 55.23c-0.09,-1.47 0.08,-3.38 -0.08,-4.35 -0.61,-3.62 -1.68,-7.35 -3.24,-10.74 0.19,-0.97 0.27,-1.97 0.24,-2.99 4.09,4.16 6.51,10.91 7.23,17.14 -0.23,0.1 -0.47,0.19 -0.7,0.28 -1.13,0.46 -2.28,0.65 -3.45,0.66z"/>
   <path class="fil30" d="M123.66 59c-1.09,-0.77 -3.53,-1.21 -4.05,-2.24 -0.18,-0.35 -0.27,-0.9 -0.31,-1.53 1.17,-0.01 2.32,-0.2 3.45,-0.66 0.23,-0.09 0.47,-0.18 0.7,-0.28 0.18,1.63 0.25,3.21 0.21,4.71z"/>
   <path class="fil24" d="M112.57 34.42c-0.21,-0.12 -0.44,-0.22 -0.67,-0.32l0.58 0.2c0.03,0.04 0.06,0.08 0.09,0.12z"/>
   <path class="fil29" d="M124.3 77.3c-0.03,0 -0.05,0 -0.08,0 1.52,-1.97 3.73,-2.72 4.28,-5.72 0.3,-1.65 -0.06,-3.54 -0.81,-4.99 -0.6,-1.16 -2.07,-1.93 -2.15,-3.26l-0.19 0.01c0.28,-0.36 0.8,-0.49 1.42,-0.49 1.34,0 3.14,0.63 3.94,0.96 1.94,0.81 3.95,2.87 3.74,5.33 -0.4,4.65 -6.43,8.16 -10.15,8.16z"/>
   <path class="fil31" d="M107.37 44.18c0.13,4.57 -10.61,9.51 -10.61,9.51 0,0 -11,-4.22 -11.13,-8.78 -0.13,-4.57 4.64,-8.44 10.64,-8.63 6.01,-0.21 10.98,3.33 11.1,7.9z"/>
   <path class="fil31" d="M103.32 30.99c0.11,3.91 -3.02,7.18 -6.99,7.31 -3.97,0.14 -7.28,-2.93 -7.39,-6.83 -0.11,-3.91 6.99,-7.32 6.99,-7.32 0,0 7.28,2.93 7.39,6.84z"/>
   <path class="fil32" d="M104.84 38.02c0.15,5.53 -3.54,10.14 -8.23,10.3 -4.7,0.15 -8.63,-4.2 -8.79,-9.73 -0.15,-5.53 3.53,-10.14 8.23,-10.3 4.7,-0.15 8.63,4.2 8.79,9.73z"/>
   <path class="fil31" d="M103.09 38.08c0.12,4.33 -2.81,7.94 -6.54,8.07 -3.74,0.12 -6.86,-3.29 -6.99,-7.62 -0.12,-4.33 2.81,-7.94 6.55,-8.07 3.73,-0.12 6.86,3.29 6.98,7.62z"/>
   <path class="fil33" d="M102.81 29.5c-0.09,-0.17 -0.2,-0.35 -0.33,-0.53 -0.32,-0.47 -0.68,-0.95 -1.06,-1.36 0.62,0.52 1.13,1.13 1.39,1.89zm-0.62 -0.62c-0.6,-0.86 -1.34,-1.65 -2.1,-2.21 0.01,0 0.01,0 0.02,0 0.08,0.05 0.16,0.1 0.24,0.15 0.27,0.18 0.54,0.37 0.8,0.57 0.38,0.41 0.74,0.94 1.04,1.49zm-2.08 -2.21c-0.01,0 -0.02,0 -0.03,0 -0.02,-0.02 -0.05,-0.04 -0.08,-0.06 0.04,0.02 0.07,0.04 0.11,0.06zm-4.28 -2.17c-0.03,-0.02 -0.06,-0.04 -0.09,-0.06l0.06 -0.04 0.03 0.1z"/>
   <path class="fil34" d="M94.74 30.67l-0.03 -0.07c0.12,0 0.24,-0.01 0.35,-0.01 -0.1,0.03 -0.21,0.05 -0.32,0.08z"/>
   <path class="fil33" d="M96.46 46.15c-2.5,-0.08 -6.33,-2.47 -5.99,-5.54 1.15,1.88 3.26,3.05 5.28,3.05 0.22,0 0.45,-0.01 0.66,-0.04 0.02,0.84 0.04,1.68 0.05,2.53zm-0.02 -14.87c-0.39,-0.4 -0.69,-0.59 -1.57,-0.61l0.03 0.33 -0.16 -0.33c0.11,-0.03 0.22,-0.05 0.32,-0.08 0.17,0 0.33,-0.01 0.49,-0.01 0.22,0 0.43,0.01 0.64,0.02 0.06,0.11 0.12,0.24 0.18,0.39 0.03,0.1 0.05,0.19 0.07,0.29z"/>
   <path class="fil35" d="M107.12 42.58c-0.25,-0.87 -0.68,-1.69 -1.27,-2.43 0.19,0.15 0.35,0.32 0.5,0.54 0.42,0.62 0.66,1.26 0.77,1.89z"/>
   <path class="fil33" d="M101.68 50.73c0.08,-0.11 0.15,-0.23 0.18,-0.37 -0.01,0 -0.03,0 -0.04,0 0.52,-0.4 1.01,-0.87 1.55,-1.31 0.21,-0.17 0.4,-0.34 0.59,-0.52 -0.03,0.05 -0.05,0.09 -0.08,0.13 1.83,-0.3 2.97,-2.89 3,-4.82 0.03,-1.44 -0.63,-3.28 -1.69,-4.12 0.23,0.13 0.46,0.27 0.66,0.43 0.59,0.74 1.02,1.56 1.27,2.43 0.35,2 -0.66,3.98 -1.94,5.51 -0.61,0.72 -1.34,1.25 -2.12,1.68 -0.47,0.27 -0.92,0.64 -1.38,0.96z"/>
   <path class="fil33" d="M104.87 39.5c0,0 -0.01,0 -0.01,-0.01 0,-0.03 0.01,-0.06 0.01,-0.09l0 0.1z"/>
   <path class="fil36" d="M94.81 25.14c-0.54,0.55 -1.31,0.76 -1.92,1.2 -0.73,0.54 -1.42,1.13 -2.11,1.75 -0.97,0.88 -1.91,2.49 -1.54,3.98 0.55,-1.93 2.05,-3.43 3.64,-4.12 1.16,-0.5 2.04,-1.15 2.04,-2.74l-0.15 0.07 0.04 -0.14z"/>
   <path class="fil36" d="M91.38 30.75c-1.59,1.27 -2.81,3.54 -3.15,5.77 -0.21,1.32 -0.19,2.67 0.12,3.95 0.32,1.32 0.77,3.56 1.88,4.28 -0.11,-0.54 -0.49,-1.03 -0.67,-1.57 -0.24,-0.75 -0.38,-1.58 -0.35,-2.38 0.27,0.27 0.4,0.85 0.69,1.04 0.1,-0.88 -0.52,-1.9 -0.58,-2.81 -0.07,-1.07 0.41,-2.01 0.36,-3l-0.43 0.68c-0.43,-0.86 0.28,-2.42 0.59,-3.22 0.3,-0.77 0.86,-2.23 1.49,-2.48l0.05 -0.26z"/>
   <path class="fil33" d="M104.81 39.77c-0.02,-0.03 -0.03,-0.05 -0.05,-0.08 0.01,-0.04 0.01,-0.08 0.02,-0.12l0.05 0.1c-0.01,0.03 -0.02,0.06 -0.02,0.1zm0.04 -0.19c-0.02,-0.01 -0.05,-0.02 -0.07,-0.03 0,-0.04 0,-0.07 0.01,-0.1 0.01,-0.02 0.02,-0.03 0.02,-0.05l0 0.07c0.02,0.01 0.03,0.02 0.05,0.02 0,0.03 -0.01,0.07 -0.01,0.09z"/>
   <path class="fil34" d="M104.76 39.69c-0.01,-0.03 -0.03,-0.07 -0.04,-0.11 0.02,-0.04 0.04,-0.09 0.07,-0.13 -0.01,0.03 -0.01,0.06 -0.01,0.1 -0.01,-0.01 -0.01,-0.01 -0.02,-0.01l0.02 0.03c-0.01,0.04 -0.01,0.08 -0.02,0.12z"/>
   <path class="fil33" d="M105.19 39.72c-0.1,-0.06 -0.21,-0.12 -0.32,-0.18l0 -0.04c0.11,0.06 0.22,0.14 0.32,0.22z"/>
   <path class="fil37" d="M103.88 48.66c0.03,-0.04 0.05,-0.08 0.08,-0.13 0.94,-0.9 1.61,-1.95 1.88,-3.45 0.29,-1.57 0.35,-3.47 -0.6,-4.75 -0.05,-0.07 -0.1,-0.13 -0.15,-0.19 -0.04,-0.26 -0.11,-0.46 -0.24,-0.56 0,-0.02 0.01,-0.06 0.01,-0.09 0,0.01 0.01,0.01 0.01,0.01l0 0.04c0.11,0.06 0.22,0.12 0.32,0.18 1.06,0.84 1.72,2.68 1.69,4.12 -0.03,1.93 -1.17,4.52 -3,4.82z"/>
   <path class="fil36" d="M87.81 40.24c-0.94,0.53 -1.45,2.39 -1.54,3.53 -0.12,1.44 0.76,3.55 1.92,4.15 0.01,-0.3 -0.01,-0.62 -0.01,-0.92 0.52,-0.13 1.51,0.62 2.06,0.77 0.86,0.23 1.66,0.29 2.53,0.12 -0.47,-0.49 -1.32,-0.74 -1.86,-1.26 -0.62,-0.58 -1.19,-1.36 -1.65,-2.09 -0.65,-1.01 -1.88,-2.89 -1.45,-4.17l0 -0.13z"/>
   <path class="fil36" d="M94.59 31.38c-2.56,0.71 -4.3,4.83 -3.61,7.69 0.9,3.69 5.39,2.17 6.25,-0.76 0.5,-1.71 0.26,-3.74 -0.61,-5.27 -0.44,-0.77 -1.29,-1.96 -2.14,-1.53l0.11 -0.13z"/>
   <path class="fil38" d="M87.98 42.19c-0.23,-0.61 -0.34,-1.23 -0.18,-1.76 0.14,0.53 0.11,1.18 0.18,1.76z"/>
   <path class="fil39" d="M87.04 45.82c-0.56,-0.43 -0.68,-1.85 -0.49,-3.15 0.34,-0.79 0.93,-1.46 1.24,-2.27 0,0.01 0,0.02 0.01,0.03 -0.16,0.53 -0.05,1.15 0.18,1.76 0.02,0.13 0.04,0.26 0.07,0.38 0.28,1.2 0.89,1.93 1.45,2.89 -0.04,0 -0.08,0 -0.11,0 -0.73,0 -1.22,-0.65 -1.8,-1 -0.18,-0.1 -0.22,-0.2 -0.26,-0.2 -0.04,0 -0.07,0.09 -0.18,0.37 -0.13,0.31 -0.12,0.84 -0.11,1.19z"/>
   <path class="fil40" d="M98.6 52.36c0.32,-0.23 0.64,-0.45 1,-0.62 0.18,-0.08 0.36,-0.16 0.54,-0.23 0.05,-0.02 0.1,-0.04 0.16,-0.05 0.14,-0.05 0.32,-0.1 0.5,-0.17 -0.62,0.53 -1.43,0.77 -2.2,1.07z"/>
   <path class="fil41" d="M99.6 51.74c0.17,-0.09 0.35,-0.17 0.54,-0.23 -0.18,0.07 -0.36,0.15 -0.54,0.23z"/>
   <path class="fil41" d="M104.82 39.78c-0.01,0 -0.01,-0.01 -0.01,-0.01 0,-0.04 0.01,-0.07 0.02,-0.1l-0.05 -0.1c0,-0.01 0,-0.01 0,-0.02 0.02,0.01 0.05,0.02 0.07,0.03 -0.01,0.07 -0.02,0.14 -0.03,0.2z"/>
   <path class="fil42" d="M104.78 39.57l-0.02 -0.03c0.01,0 0.01,0 0.02,0.01 0,0.01 0,0.01 0,0.02z"/>
   <path class="fil43" d="M105.09 40.14c-0.12,-0.15 -0.21,-0.26 -0.27,-0.36 0.01,-0.06 0.02,-0.13 0.03,-0.2 0.13,0.1 0.2,0.3 0.24,0.56z"/>
   <path class="fil40" d="M97.97 52.87c0.19,-0.16 0.38,-0.31 0.57,-0.45 -0.18,0.13 -0.37,0.29 -0.57,0.45zm-1.17 -0.17c-0.01,-0.01 -0.01,-0.03 -0.01,-0.04 -0.33,-1.37 -0.33,-2.88 -0.32,-4.34 0.01,0 0.02,0 0.04,0 0.04,1.48 0.12,2.95 0.29,4.38z"/>
   <path class="fil44" d="M96.47 48.32c0,-0.29 0,-0.58 0,-0.87 0,-0.43 -0.01,-0.87 -0.01,-1.3 0,0 0.01,0 0.02,0 0,0.72 0.01,1.45 0.03,2.17 -0.02,0 -0.03,0 -0.04,0z"/>
   <path class="fil40" d="M96.46 46.15c0,0 0,0 0,0 0,0 0.01,0 0.02,0 0,0 0,0 0,0 -0.01,0 -0.02,0 -0.02,0zm-0.05 -2.53c-0.02,-1.21 -0.06,-2.42 -0.09,-3.63 0.05,0.61 0.09,1.23 0.11,1.85 0.01,0.59 0.02,1.18 0.03,1.77 -0.02,0.01 -0.03,0.01 -0.05,0.01z"/>
   <path class="fil41" d="M96.48 46.15c-0.01,0 -0.02,0 -0.02,0 -0.01,-0.85 -0.03,-1.69 -0.05,-2.53 0.02,0 0.03,0 0.05,-0.01 0.01,0.84 0.01,1.69 0.02,2.54z"/>
   <path class="fil41" d="M101.66 50.37c-0.79,0 -1.57,-0.33 -2.25,-0.8 0.48,-0.29 1.05,-0.51 1.38,-0.74 0.89,-0.62 1.57,-1.31 2.18,-2.27 0.45,-0.68 0.86,-1.37 1.21,-2.11 0.41,0.18 0.5,0.93 0.53,1.39 0.08,1.08 -0.26,1.85 -0.75,2.69 -0.19,0.18 -0.38,0.35 -0.59,0.52 -0.54,0.44 -1.03,0.91 -1.55,1.31 -0.05,0.01 -0.11,0.01 -0.16,0.01z"/>
   <path class="fil43" d="M103.96 48.53c0.49,-0.84 0.83,-1.61 0.75,-2.69 -0.03,-0.46 -0.12,-1.21 -0.53,-1.39 0.31,-0.65 0.56,-1.34 0.73,-2.09 0.08,-0.37 0.28,-1.5 0.18,-2.22 0.05,0.06 0.1,0.12 0.15,0.19 0.95,1.28 0.89,3.18 0.6,4.75 -0.27,1.5 -0.94,2.55 -1.88,3.45z"/>
   <path class="fil40" d="M100.37 29.51c-0.05,-0.03 -0.1,-0.06 -0.15,-0.09 0.05,0.02 0.09,0.04 0.13,0.07 0.01,0 0.02,0.01 0.02,0.02zm-0.37 -2.9c-0.58,-0.36 -1.17,-0.66 -1.77,-1 -0.01,-0.01 -0.02,-0.02 -0.03,-0.03 -0.19,-0.15 -0.41,-0.32 -0.64,-0.49 0.04,0.02 0.07,0.05 0.11,0.07 0.71,0.5 1.49,0.89 2.21,1.37 0.04,0.02 0.08,0.05 0.12,0.08z"/>
   <path class="fil44" d="M98.42 47.48c-0.43,0 -0.79,-0.14 -0.93,-0.67 -0.1,-0.39 0.05,-0.64 0.31,-0.84 0.42,-0.11 0.82,-0.26 1.2,-0.45 0.51,-0.16 1,-0.42 1.45,-0.74 1.1,-0.8 1.69,-2.01 2.12,-3.41 0.37,-1.01 0.56,-2.12 0.52,-3.29 -0.01,-0.5 -0.07,-0.99 -0.16,-1.45 -0.17,-1.79 -0.74,-3.21 -2.1,-4.36 -0.44,-0.46 -0.94,-0.75 -1.52,-1 -0.29,-0.16 -0.59,-0.31 -0.9,-0.42 -0.15,-0.14 -0.26,-0.29 -0.3,-0.46 -0.17,-0.68 0.63,-1.11 1.04,-1.32 0,-0.02 0,-0.04 0,-0.05 0.14,0.05 0.27,0.1 0.41,0.14 0.23,0.07 0.45,0.16 0.66,0.26 0.05,0.03 0.1,0.06 0.15,0.09 0.47,0.59 1.2,1.05 1.66,1.67 0.41,0.56 0.69,1.14 1,1.76 0.03,-0.12 0.05,-0.24 0.07,-0.36 0.03,0.06 0.06,0.12 0.1,0.18 0.74,1.21 1.34,2.43 1.48,3.97 0.07,0.69 0.07,1.46 0,2.14 -0.03,0.35 -0.02,0.55 0.04,0.71 -0.24,0.53 -0.33,1.39 -0.46,2.11 -0.67,1.71 -1.77,3.4 -2.8,4.37 -0.46,0.43 -0.99,0.92 -1.55,1.3 -0.06,-0.02 -0.12,-0.02 -0.19,-0.02 -0.19,0 -0.41,0.04 -0.64,0.07 -0.22,0.03 -0.45,0.07 -0.66,0.07zm3.86 -15.09l0.18 0.46c1.87,2.67 1.44,7.24 0.07,10.05 -1.04,2.1 -2.41,3.15 -4.19,4.22 5.21,-0.42 7.92,-8.03 5.25,-13.1 -0.35,-0.67 -0.99,-1.07 -1.31,-1.63z"/>
   <path class="fil40" d="M97.8 45.97c0.01,-0.01 0.03,-0.03 0.05,-0.04 0.34,-0.1 0.7,-0.22 1.05,-0.37 0.04,-0.01 0.07,-0.02 0.1,-0.04 -0.38,0.19 -0.78,0.34 -1.2,0.45zm0.12 -2.81c-0.01,-1.5 -0.25,-2.9 -0.37,-4.45 -0.03,-0.41 -0.08,-0.86 -0.12,-1.33 0.11,-0.86 0.06,-1.76 -0.14,-2.62 0.02,-0.59 0.08,-1.16 0.22,-1.66 0.07,-0.24 0.2,-0.51 0.37,-0.77 0.56,0.19 1.16,0.29 1.62,0.85 1.56,1.89 1.63,5.76 0.48,7.89 -0.53,0.99 -1.25,1.67 -2.06,2.09zm4.65 -1.79c0.03,-0.09 0.05,-0.18 0.08,-0.27 0.16,-0.55 0.25,-1.15 0.29,-1.76 0.02,-0.29 0.04,-0.58 0.04,-0.87 0.02,-0.66 0.01,-1.27 -0.05,-1.84 0.09,0.46 0.15,0.95 0.16,1.45 0.04,1.17 -0.15,2.28 -0.52,3.29zm-3.26 -10.1c-0.07,-0.02 -0.13,-0.05 -0.19,-0.08 -0.07,-0.03 -0.15,-0.06 -0.22,-0.09 -0.12,-0.05 -0.24,-0.09 -0.36,-0.14 -0.05,-0.04 -0.09,-0.08 -0.13,-0.11 0.31,0.11 0.61,0.26 0.9,0.42z"/>
   <path class="fil41" d="M102.88 30.82c-0.38,0 -0.8,-0.49 -1.12,-0.7 -0.48,-0.33 -1.02,-0.73 -1.57,-0.87 0.05,0.08 0.1,0.16 0.16,0.24 -0.04,-0.03 -0.08,-0.05 -0.13,-0.07 -0.35,-0.21 -0.71,-0.4 -1.08,-0.56 -0.08,-0.3 -0.44,-0.38 -0.57,-0.62 0.26,-0.03 0.58,-0.08 0.87,-0.08 0.11,0 0.22,0.01 0.32,0.03 0.28,0.06 0.47,0.23 0.74,0.23 0.02,0 0.04,0 0.05,0 -0.12,-0.98 -1.6,-2.25 -2.32,-2.81 0.6,0.34 1.19,0.64 1.77,1 0.03,0.02 0.06,0.04 0.08,0.06 -0.11,-0.03 -0.22,-0.06 -0.31,-0.1l-0.18 -0.12c0.05,0.05 0.11,0.09 0.18,0.12l0.11 0.08c0.07,0 0.14,0 0.21,0.02 0.76,0.56 1.5,1.35 2.1,2.21 0.38,0.71 0.66,1.44 0.72,1.94 -0.01,0 -0.02,0 -0.03,0z"/>
   <path class="fil42" d="M100.22 29.42c-0.21,-0.1 -0.43,-0.19 -0.66,-0.26 -0.14,-0.04 -0.27,-0.09 -0.41,-0.14 0,-0.06 0,-0.11 -0.01,-0.16 0.37,0.16 0.73,0.35 1.08,0.56z"/>
   <path class="fil42" d="M102.93 36.63c-0.2,-1.08 -0.6,-2.07 -1.14,-2.93 -0.13,-0.26 -0.27,-0.51 -0.41,-0.74 -0.17,-0.27 -0.35,-0.5 -0.55,-0.69 1.36,1.15 1.93,2.57 2.1,4.36z"/>
   <path class="fil41" d="M97.85 45.93c0.12,-0.09 0.26,-0.17 0.41,-0.24 0.15,-0.02 0.29,-0.04 0.43,-0.07 0.07,-0.02 0.14,-0.04 0.21,-0.06 -0.35,0.15 -0.71,0.27 -1.05,0.37zm0.2 -0.72c-0.15,-0.14 -0.22,-0.41 -0.18,-0.88 0.03,-0.4 0.05,-0.79 0.05,-1.17 0.81,-0.42 1.53,-1.1 2.06,-2.09 1.15,-2.13 1.08,-6 -0.48,-7.89 -0.46,-0.56 -1.06,-0.66 -1.62,-0.85 0.09,-0.15 0.2,-0.29 0.32,-0.42 0.08,0.08 0.16,0.15 0.24,0.19 0.84,0.5 1.67,0.55 2.21,1.55 0.81,1.46 1.16,3.44 1.12,5.18 -0.05,1.9 -0.83,3.94 -2.07,5.17 -0.38,0.38 -1.02,0.85 -1.65,1.21zm4.89 -5.87c0.11,-1.92 -0.34,-4.02 -1.15,-5.64 0.54,0.86 0.94,1.85 1.14,2.93 0.06,0.57 0.07,1.18 0.05,1.84 0,0.29 -0.02,0.58 -0.04,0.87zm-3.82 -8.15c-0.03,-0.01 -0.05,-0.02 -0.07,-0.03 -0.05,-0.02 -0.1,-0.04 -0.15,-0.06 0.07,0.03 0.15,0.06 0.22,0.09z"/>
   <path class="fil41" d="M100.03 47.39c-0.01,-0.01 -0.03,-0.01 -0.05,-0.02 0.53,-0.29 1.02,-0.64 1.48,-1.05 -0.09,0.09 -0.17,0.17 -0.26,0.25 -0.35,0.31 -0.75,0.59 -1.17,0.82z"/>
   <path class="fil42" d="M99.98 47.37c-0.02,-0.01 -0.04,-0.01 -0.07,-0.01 0.56,-0.38 1.09,-0.87 1.55,-1.3 1.03,-0.97 2.13,-2.66 2.8,-4.37 0,0.02 0,0.03 -0.01,0.05 -0.23,0.67 -0.52,1.33 -0.86,1.95 -0.25,0.36 -0.49,0.71 -0.66,1.09 -0.38,0.56 -0.81,1.08 -1.27,1.54 -0.46,0.41 -0.95,0.76 -1.48,1.05z"/>
   <path class="fil42" d="M99 45.52c0.06,-0.02 0.12,-0.06 0.18,-0.08 0.84,-0.4 1.63,-0.93 2.16,-1.6 0.53,-0.68 0.92,-1.49 1.19,-2.36 0.01,-0.03 0.02,-0.07 0.04,-0.11 -0.43,1.4 -1.02,2.61 -2.12,3.41 -0.45,0.32 -0.94,0.58 -1.45,0.74zm1.83 -13.25c-0.11,-0.1 -0.22,-0.19 -0.34,-0.28 -0.37,-0.28 -0.75,-0.51 -1.14,-0.69 -0.01,-0.01 -0.03,-0.02 -0.04,-0.03 0.58,0.25 1.08,0.54 1.52,1z"/>
   <path class="fil41" d="M98.9 45.56c0.09,-0.04 0.19,-0.08 0.28,-0.12 -0.06,0.02 -0.12,0.06 -0.18,0.08 -0.03,0.02 -0.06,0.03 -0.1,0.04zm3.63 -4.08c0.21,-0.69 0.34,-1.41 0.41,-2.14 -0.04,0.61 -0.13,1.21 -0.29,1.76 -0.03,0.09 -0.05,0.18 -0.08,0.27 -0.02,0.04 -0.03,0.08 -0.04,0.11zm-3.18 -10.18c-0.08,-0.04 -0.15,-0.07 -0.23,-0.11 0.06,0.03 0.12,0.06 0.19,0.08 0.01,0.01 0.03,0.02 0.04,0.03zm-0.45 -0.2c-0.11,-0.04 -0.22,-0.08 -0.33,-0.11 -0.01,-0.01 -0.02,-0.02 -0.03,-0.03 0.12,0.05 0.24,0.09 0.36,0.14z"/>
   <path class="fil45" d="M99.18 45.44c1.49,-0.8 2.68,-2.22 3.35,-3.96 -0.27,0.87 -0.66,1.68 -1.19,2.36 -0.53,0.67 -1.32,1.2 -2.16,1.6zm2.61 -11.74c-0.64,-1.01 -1.47,-1.84 -2.44,-2.4 0.39,0.18 0.77,0.41 1.14,0.69 0.12,0.09 0.23,0.18 0.34,0.28 0.2,0.19 0.38,0.42 0.55,0.69 0.14,0.23 0.28,0.48 0.41,0.74z"/>
   <path class="fil43" d="M98.26 45.69c0.59,-0.31 1.29,-0.59 1.33,-1.34 -0.32,0.52 -0.87,0.97 -1.27,0.97 -0.1,0 -0.2,-0.04 -0.27,-0.11 0.63,-0.36 1.27,-0.83 1.65,-1.21 1.24,-1.23 2.02,-3.27 2.07,-5.17 0.04,-1.74 -0.31,-3.72 -1.12,-5.18 -0.54,-1 -1.37,-1.05 -2.21,-1.55 -0.08,-0.04 -0.16,-0.11 -0.24,-0.19 0.23,-0.24 0.5,-0.41 0.76,-0.41 0.19,0 0.38,0.09 0.55,0.31l0 0c-0.18,-0.32 -0.6,-0.56 -0.94,-0.82 0.11,0.03 0.22,0.07 0.33,0.11 0.05,0.02 0.1,0.04 0.15,0.06 0.02,0.01 0.04,0.02 0.07,0.03 0.08,0.04 0.15,0.07 0.23,0.11 0.97,0.56 1.8,1.39 2.44,2.4 0.81,1.62 1.26,3.72 1.15,5.64 -0.07,0.73 -0.2,1.45 -0.41,2.14 -0.67,1.74 -1.86,3.16 -3.35,3.96 -0.09,0.04 -0.19,0.08 -0.28,0.12 -0.07,0.02 -0.14,0.04 -0.21,0.06 -0.14,0.03 -0.28,0.05 -0.43,0.07z"/>
   <path class="fil41" d="M104.66 40.41c0.04,-0.24 0.08,-0.48 0.1,-0.72 0.02,0.03 0.03,0.05 0.05,0.08 -0.05,0.21 -0.1,0.43 -0.15,0.64z"/>
   <path class="fil42" d="M104.26 41.69c0.13,-0.72 0.22,-1.58 0.46,-2.11 0.01,0.04 0.03,0.08 0.04,0.11 -0.02,0.24 -0.06,0.48 -0.1,0.72 -0.1,0.37 -0.2,0.74 -0.33,1.09 -0.02,0.07 -0.04,0.13 -0.07,0.19z"/>
   <path class="fil45" d="M102.73 44.78c0.17,-0.38 0.41,-0.73 0.66,-1.09 -0.2,0.38 -0.42,0.74 -0.66,1.09zm1.52 -3.04c0.01,-0.02 0.01,-0.03 0.01,-0.05 0.03,-0.06 0.05,-0.12 0.07,-0.19 -0.02,0.08 -0.05,0.16 -0.08,0.24z"/>
   <path class="fil46" d="M97.43 37.38c-0.08,-0.85 -0.16,-1.76 -0.14,-2.62 0.2,0.86 0.25,1.76 0.14,2.62z"/>
   <path class="fil44" d="M96.11 30.46c-0.18,-0.31 -0.38,-0.56 -0.43,-1.04 -0.03,-0.3 -0.02,-0.58 0.01,-0.85 0.04,0.68 0.35,1.27 0.59,1.89 -0.06,0 -0.11,0 -0.17,0z"/>
   <path class="fil40" d="M96.5 32.83c-0.05,-0.08 -0.11,-0.17 -0.17,-0.26 0.12,-0.45 0.2,-0.84 0.11,-1.29 0.03,0.02 0.05,0.05 0.08,0.07 0.01,0.05 0.01,0.11 0.02,0.16 0.03,0.43 0,0.87 -0.04,1.32zm-0.17 -2.23c-0.05,0 -0.09,0 -0.14,0 -0.03,-0.05 -0.05,-0.09 -0.08,-0.14 0.06,0 0.11,0 0.17,0 0.02,0.05 0.03,0.1 0.05,0.14z"/>
   <path class="fil41" d="M96.52 31.35c-0.03,-0.02 -0.05,-0.05 -0.08,-0.07 -0.02,-0.1 -0.04,-0.19 -0.07,-0.29 -0.06,-0.15 -0.12,-0.28 -0.18,-0.39 0.05,0 0.09,0 0.14,0 0.01,0.02 0.01,0.04 0.02,0.05 0,0 0,0 -0.01,0l0.07 0.2c0,0 0,0 0,-0.01 0.05,0.17 0.09,0.34 0.11,0.51z"/>
   <path class="fil43" d="M96.41 30.85l-0.07 -0.2c0.01,0 0.01,0 0.01,0 0.02,0.07 0.04,0.13 0.06,0.19 0,0.01 0,0.01 0,0.01z"/>
   <path class="fil46" d="M96.14 35.45c-0.01,-0.22 -0.02,-0.43 -0.02,-0.64 -0.02,-0.75 -0.02,-1.35 0.17,-2.07 0.01,-0.06 0.03,-0.11 0.04,-0.17 0.06,0.09 0.12,0.18 0.17,0.26 -0.1,0.86 -0.28,1.75 -0.36,2.62z"/>
   <path class="fil40" d="M95.94 27.3c0,-0.01 0.01,-0.03 0.01,-0.04 0.17,-0.79 0.03,-1.41 -0.04,-2.09 0.1,0.48 0.26,0.95 0.21,1.47 -0.03,0.23 -0.1,0.45 -0.18,0.66z"/>
   <path class="fil47" d="M99.41 49.57c-0.07,-0.04 -0.13,-0.09 -0.2,-0.13 -0.25,-0.19 -0.93,-0.59 -0.77,-1l0.91 -0.41c0.23,-0.15 0.53,-0.39 0.7,-0.64 0,0 -0.01,0 -0.02,0 0.42,-0.23 0.82,-0.51 1.17,-0.82 0.09,-0.08 0.17,-0.16 0.26,-0.25 0.43,-0.39 0.84,-0.82 1.2,-1.29 0.01,0 0.02,0 0.03,0 0.22,0 0.44,-0.16 0.65,-0.31 0.21,-0.15 0.42,-0.3 0.65,-0.3 0.05,0 0.11,0 0.17,0.03 0,0 0.01,0 0.02,0 -0.35,0.74 -0.76,1.43 -1.21,2.11 -0.61,0.96 -1.29,1.65 -2.18,2.27 -0.33,0.23 -0.9,0.45 -1.38,0.74z"/>
   <path class="fil48" d="M101.46 46.32c0.46,-0.46 0.89,-0.98 1.27,-1.54 -0.03,0.08 -0.07,0.16 -0.1,0.24 0.01,0.01 0.02,0.01 0.03,0.01 -0.36,0.47 -0.77,0.9 -1.2,1.29zm1.93 -2.63c0.34,-0.62 0.63,-1.28 0.86,-1.95 -0.04,0.25 -0.1,0.48 -0.16,0.68 -0.16,0.47 -0.43,0.87 -0.7,1.27z"/>
   <path class="fil47" d="M104.6 40.7c0.02,-0.1 0.04,-0.19 0.06,-0.29 0.05,-0.21 0.1,-0.43 0.15,-0.64 0,0 0,0.01 0.01,0.01 -0.05,0.3 -0.13,0.61 -0.22,0.92z"/>
   <path class="fil48" d="M104.33 41.5c0.13,-0.35 0.23,-0.72 0.33,-1.09 -0.02,0.1 -0.04,0.19 -0.06,0.29 -0.08,0.27 -0.16,0.54 -0.27,0.8z"/>
   <path class="fil9" d="M102.69 45.03c-0.01,0 -0.02,0 -0.03,0 0.93,-1.22 1.61,-2.7 1.94,-4.33 0.09,-0.31 0.17,-0.62 0.22,-0.92 0.06,0.1 0.15,0.21 0.27,0.36 0.1,0.72 -0.1,1.85 -0.18,2.22 -0.17,0.75 -0.42,1.44 -0.73,2.09 -0.01,0 -0.02,0 -0.02,0 -0.06,-0.03 -0.12,-0.03 -0.17,-0.03 -0.23,0 -0.44,0.15 -0.65,0.3 -0.21,0.15 -0.43,0.31 -0.65,0.31z"/>
   <path class="fil49" d="M102.66 45.03c-0.01,0 -0.02,0 -0.03,-0.01 0.03,-0.08 0.07,-0.16 0.1,-0.24 0.24,-0.35 0.46,-0.71 0.66,-1.09 0.27,-0.4 0.54,-0.8 0.7,-1.27 0.06,-0.2 0.12,-0.43 0.16,-0.68 0.03,-0.08 0.06,-0.16 0.08,-0.24 0.11,-0.26 0.19,-0.53 0.27,-0.8 -0.33,1.63 -1.01,3.11 -1.94,4.33z"/>
   <path class="fil38" d="M103.14 32.34c-0.04,-0.07 -0.09,-0.13 -0.13,-0.2 0.03,-0.19 0.12,-0.39 0.15,-0.78 0.03,-0.4 -0.05,-0.76 -0.19,-1.1 -0.03,-0.27 -0.08,-0.52 -0.16,-0.76 0.5,0.95 0.51,1.73 0.33,2.84zm-1.72 -4.73c-0.09,-0.08 -0.18,-0.15 -0.27,-0.22 -0.34,-0.37 -0.7,-0.63 -1.04,-0.72 0,0 0,0 0,0 0.14,0.04 0.28,0.08 0.41,0.15 0.23,0.15 0.5,0.38 0.7,0.58 0.07,0.07 0.13,0.14 0.2,0.21z"/>
   <path class="fil38" d="M103.1 32.58c-0.09,-0.18 -0.11,-0.31 -0.09,-0.44 0.04,0.07 0.09,0.13 0.13,0.2 -0.01,0.08 -0.03,0.16 -0.04,0.24z"/>
   <path class="fil50" d="M102.97 30.26c-0.08,-0.19 -0.17,-0.38 -0.27,-0.56 -0.15,-0.28 -0.33,-0.55 -0.51,-0.82 -0.3,-0.55 -0.66,-1.08 -1.04,-1.49 0.09,0.07 0.18,0.14 0.27,0.22 0.38,0.41 0.74,0.89 1.06,1.36 0.13,0.18 0.24,0.36 0.33,0.53 0.08,0.24 0.13,0.49 0.16,0.76zm-2.86 -3.59c-0.01,0 -0.01,0 -0.02,0 0,0 -0.01,0 -0.01,0 0.01,0 0.02,0 0.03,0 0,0 0,0 0,0z"/>
   <path class="fil51" d="M103.01 32.14c-0.72,-1.07 -1.62,-1.97 -2.64,-2.63 0,-0.01 -0.01,-0.02 -0.02,-0.02 0.99,0.53 1.71,1.39 2.52,2.24 0.12,-0.54 0.15,-1.03 0.1,-1.47 0.14,0.34 0.22,0.7 0.19,1.1 -0.03,0.39 -0.12,0.59 -0.15,0.78z"/>
   <path class="fil52" d="M103.03 32.94c-0.31,-0.62 -0.59,-1.2 -1,-1.76 -0.46,-0.62 -1.19,-1.08 -1.66,-1.67 1.02,0.66 1.92,1.56 2.64,2.63 -0.02,0.13 0,0.26 0.09,0.44 -0.02,0.12 -0.04,0.24 -0.07,0.36z"/>
   <path class="fil53" d="M102.87 31.73c-0.81,-0.85 -1.53,-1.71 -2.52,-2.24 -0.06,-0.08 -0.11,-0.16 -0.16,-0.24 0.55,0.14 1.09,0.54 1.57,0.87 0.32,0.21 0.74,0.7 1.12,0.7 0.01,0 0.02,0 0.03,0 -0.06,-0.5 -0.34,-1.23 -0.72,-1.94 0.18,0.27 0.36,0.54 0.51,0.82 0.1,0.18 0.19,0.37 0.27,0.56 0.05,0.44 0.02,0.93 -0.1,1.47zm-2.78 -5.06c-0.07,-0.02 -0.14,-0.02 -0.21,-0.02l-0.11 -0.08c0.09,0.04 0.2,0.07 0.31,0.1 0,0 0.01,0 0.01,0zm-0.32 -0.1c-0.07,-0.03 -0.13,-0.07 -0.18,-0.12l0.18 0.12z"/>
   <path class="fil52" d="M98.34 47.12c1.78,-1.07 3.15,-2.12 4.19,-4.22 1.37,-2.81 1.8,-7.38 -0.07,-10.05l-0.18 -0.46c0.32,0.56 0.96,0.96 1.31,1.63 2.67,5.07 -0.04,12.68 -5.25,13.1z"/>
   <path class="fil38" d="M89.37 31.67c0.2,-0.55 0.48,-1.06 0.81,-1.53 0.02,0.04 0.05,0.08 0.09,0.12 -0.23,0.43 -0.54,1.15 -0.9,1.41zm-0.17 -0.81c-0.02,-1.42 1.17,-2.7 2.09,-3.41 0.59,-0.46 1.17,-0.91 1.8,-1.27 0.05,-0.02 0.1,-0.04 0.15,-0.06 -0.12,0.07 -0.24,0.14 -0.35,0.22 -0.73,0.54 -1.42,1.13 -2.11,1.75 -0.71,0.64 -1.4,1.67 -1.58,2.77z"/>
   <path class="fil39" d="M89.36 31.68c-0.11,-0.28 -0.15,-0.56 -0.16,-0.82 0.18,-1.1 0.87,-2.13 1.58,-2.77 0.69,-0.62 1.38,-1.21 2.11,-1.75 0.11,-0.08 0.23,-0.15 0.35,-0.22 0.5,-0.19 1.01,-0.4 1.44,-0.72 -0.68,0.64 -1.25,1.47 -2.03,1.97 -0.44,0.29 -3,1.81 -2.47,2.77 -0.33,0.47 -0.61,0.98 -0.81,1.53 -0.01,0 -0.01,0 -0.01,0.01z"/>
   <path class="fil38" d="M95.03 25.1c0.04,-0.04 0.08,-0.08 0.11,-0.12l0.16 -0.06c-0.09,0.05 -0.18,0.11 -0.27,0.18z"/>
   <path class="fil39" d="M92.26 38.13c-0.26,0 -0.5,-0.18 -0.7,-0.62 -0.58,-1.28 0.31,-4.27 1.47,-4.74 0.25,-0.26 0.46,-0.37 0.63,-0.37 0.75,0 0.92,1.92 0.77,2.72 -0.16,0.75 -1.25,3.01 -2.17,3.01z"/>
   <path class="fil54" d="M97.11 53.58c0,-0.02 -0.01,-0.04 -0.02,-0.05 0.07,-0.04 0.14,-0.07 0.23,-0.11 -0.07,0.05 -0.14,0.11 -0.21,0.16z"/>
   <path class="fil40" d="M97.09 53.53c0,-0.02 -0.01,-0.03 -0.01,-0.05 0.04,-0.05 0.08,-0.1 0.12,-0.14 0.24,-0.08 0.51,-0.27 0.77,-0.47 -0.22,0.18 -0.43,0.36 -0.65,0.55 -0.09,0.04 -0.16,0.07 -0.23,0.11z"/>
   <path class="fil41" d="M97.08 53.48c-0.02,-0.04 -0.03,-0.07 -0.05,-0.12 0.01,0 0.01,0 0.01,0 0,0 0,0.01 0,0.02 0.06,-0.01 0.11,-0.02 0.16,-0.04 -0.04,0.04 -0.08,0.09 -0.12,0.14z"/>
   <path class="fil40" d="M96.9 53.06c-0.02,-0.04 -0.05,-0.08 -0.07,-0.12 -0.01,-0.08 -0.02,-0.16 -0.03,-0.24 0.03,0.1 0.06,0.2 0.09,0.3 0.01,0.02 0.01,0.04 0.01,0.06z"/>
   <path class="fil41" d="M96.92 53.1c-0.01,-0.01 -0.01,-0.03 -0.02,-0.04 0,-0.02 0,-0.04 -0.01,-0.06 0.01,0.02 0.02,0.04 0.03,0.06 0,0.01 0,0.03 0,0.04z"/>
   <path class="fil40" d="M98.54 52.42c0.02,-0.02 0.04,-0.04 0.06,-0.05 0,0 0,-0.01 0,-0.01 -0.02,0.02 -0.04,0.04 -0.06,0.06zm2.26 -1.13c0.04,-0.03 0.07,-0.07 0.11,-0.1 0.26,-0.13 0.52,-0.29 0.77,-0.46 -0.21,0.25 -0.55,0.43 -0.88,0.56z"/>
   <path class="fil41" d="M100.01 51.38c0.17,-0.1 0.34,-0.18 0.51,-0.25 0.48,-0.18 0.9,-0.45 1.3,-0.77 0.01,0 0.03,0 0.04,0 -0.03,0.14 -0.1,0.26 -0.18,0.37 -0.25,0.17 -0.51,0.33 -0.77,0.46 0.02,-0.02 0.04,-0.04 0.06,-0.06 -0.18,0.04 -0.55,0.17 -0.96,0.25z"/>
   <path class="fil40" d="M96.32 39.99c-0.01,-0.03 -0.01,-0.06 -0.01,-0.09 0,0 0,-0.01 0,-0.01 0.01,0.04 0.01,0.07 0.01,0.1z"/>
   <path class="fil46" d="M96.31 39.9c-0.1,-1.25 -0.22,-2.5 -0.21,-3.75 0,-0.23 0.02,-0.47 0.04,-0.7 0.05,1.21 0.12,2.42 0.15,3.64 0.01,0.26 0.02,0.53 0.02,0.8 0,0 0,0.01 0,0.01z"/>
   <path class="fil40" d="M95.69 28.31c0,-0.04 0,-0.08 0.01,-0.12 0.03,-0.32 0.14,-0.6 0.24,-0.89 -0.08,0.34 -0.16,0.68 -0.21,1.01 -0.02,0 -0.03,0 -0.04,0z"/>
   <path class="fil44" d="M95.69 28.57c0,-0.09 -0.01,-0.17 0,-0.26 0.01,0 0.02,0 0.04,0 -0.02,0.09 -0.03,0.17 -0.04,0.26z"/>
   <path class="fil35" d="M96.67 24.48c-0.46,-0.22 -0.74,-0.33 -0.74,-0.33 0,0 -0.06,0.03 -0.18,0.09l-0.05 -0.2c0.3,0.07 0.63,0.23 0.97,0.44z"/>
   <path class="fil40" d="M95.91 25.17c-0.05,-0.22 -0.08,-0.44 -0.08,-0.67l0 0c0.01,0.01 0.03,0.02 0.05,0.03 -0.01,0.22 0.01,0.43 0.03,0.64zm1.65 -0.08c-0.53,-0.34 -1.28,-0.68 -1.63,-0.92l-0.04 0.18 -0.09 0.05 -0.05 -0.16c0.12,-0.06 0.18,-0.09 0.18,-0.09 0,0 0.28,0.11 0.74,0.33 0.3,0.18 0.6,0.4 0.89,0.61z"/>
   <path class="fil41" d="M95.88 24.53c-0.02,-0.01 -0.04,-0.02 -0.05,-0.03l-0.03 -0.1 0.09 -0.05 -0.01 0.02c0,0.05 0,0.11 0,0.16z"/>
   <path class="fil47" d="M97.03 53.36c-0.01,-0.04 -0.03,-0.09 -0.05,-0.13 -0.02,-0.05 -0.04,-0.09 -0.06,-0.13 0,-0.01 0,-0.03 0,-0.04 0.04,0.1 0.08,0.2 0.12,0.3 0,0 0,0 -0.01,0z"/>
   <path class="fil55" d="M98.6 52.37c0.05,-0.04 0.09,-0.08 0.14,-0.11 0.16,-0.11 0.33,-0.24 0.5,-0.36 0.12,-0.06 0.24,-0.11 0.36,-0.16 -0.36,0.17 -0.68,0.39 -1,0.62 0,0 0,0.01 0,0.01zm1.54 -0.86c0.2,-0.09 0.41,-0.17 0.61,-0.25 0.05,-0.02 0.11,-0.05 0.16,-0.07 -0.04,0.03 -0.07,0.07 -0.11,0.1 -0.18,0.07 -0.36,0.12 -0.5,0.17 -0.06,0.01 -0.11,0.03 -0.16,0.05z"/>
   <path class="fil47" d="M99.24 51.9c0.25,-0.18 0.51,-0.37 0.77,-0.52 0.41,-0.08 0.78,-0.21 0.96,-0.25 -0.02,0.02 -0.04,0.04 -0.06,0.06 -0.05,0.02 -0.11,0.05 -0.16,0.07 -0.2,0.08 -0.41,0.16 -0.61,0.25 -0.19,0.06 -0.37,0.14 -0.54,0.23 -0.12,0.05 -0.24,0.1 -0.36,0.16z"/>
   <path class="fil55" d="M97.2 53.34c0.23,-0.26 0.48,-0.48 0.74,-0.68 0.21,-0.11 0.43,-0.2 0.66,-0.29 -0.02,0.01 -0.04,0.03 -0.06,0.05 -0.19,0.14 -0.38,0.29 -0.57,0.45 -0.26,0.2 -0.53,0.39 -0.77,0.47z"/>
   <path class="fil47" d="M97.04 53.38c0,-0.01 0,-0.02 0,-0.02 0.25,-0.3 0.56,-0.52 0.9,-0.7 -0.26,0.2 -0.51,0.42 -0.74,0.68 -0.05,0.02 -0.1,0.03 -0.16,0.04z"/>
   <path class="fil55" d="M96.89 53c-0.03,-0.1 -0.06,-0.2 -0.09,-0.3 -0.17,-1.43 -0.25,-2.9 -0.29,-4.38 0.03,0 0.07,0 0.1,0 0.1,-0.01 0.2,-0.01 0.29,-0.02l0 0c-0.01,0.01 -0.03,0.01 -0.05,0.02 -0.04,1.54 -0.04,3.13 0.04,4.68zm2.01 -5.13c0.14,-0.06 0.28,-0.11 0.42,-0.17 -0.13,0.06 -0.26,0.11 -0.38,0.16 -0.02,0 -0.03,0 -0.04,0.01z"/>
   <path class="fil55" d="M97.74 28.43c-0.47,-0.09 -0.95,-0.14 -1.45,-0.14 -0.08,0 -0.16,0 -0.24,0 -0.11,0.01 -0.22,0.01 -0.32,0.02 0.05,-0.33 0.13,-0.67 0.21,-1.01 0.08,-0.21 0.15,-0.43 0.18,-0.66 0.05,-0.52 -0.11,-0.99 -0.21,-1.47 -0.02,-0.21 -0.04,-0.42 -0.03,-0.64 1.21,0.9 0.51,2.43 0.08,3.63 0.12,-0.02 0.25,-0.03 0.37,-0.03 0.47,0 0.94,0.13 1.41,0.3zm0.49 -2.82c-0.07,-0.05 -0.16,-0.09 -0.23,-0.14 -0.54,-0.32 -1.85,-0.8 -2.09,-1.14l-0.02 0.02 0.04 -0.18c0.35,0.24 1.1,0.58 1.63,0.92 0.23,0.17 0.45,0.34 0.64,0.49 0.01,0.01 0.02,0.02 0.03,0.03z"/>
   <path class="fil56" d="M96.51 48.32c-0.02,-0.72 -0.03,-1.45 -0.03,-2.17 0.01,0 0.03,0 0.04,0 0.02,0 0.04,0 0.06,0 0.22,0 0.43,-0.02 0.62,-0.06 0.01,0 0.01,0 0.02,-0.01 0.2,-0.02 0.39,-0.06 0.58,-0.11 -0.26,0.2 -0.41,0.45 -0.31,0.84 0.14,0.53 0.5,0.67 0.93,0.67 0.21,0 0.44,-0.04 0.66,-0.07 0.23,-0.03 0.45,-0.07 0.64,-0.07 0.07,0 0.13,0 0.19,0.02 -0.19,0.13 -0.39,0.24 -0.59,0.34 -0.14,0.06 -0.28,0.11 -0.42,0.17 -0.61,0.19 -1.25,0.19 -1.86,0.38 -0.04,0 -0.09,0 -0.14,0 0,0.01 0,0.03 0,0.05 -0.09,0.01 -0.19,0.01 -0.29,0.02 -0.03,0 -0.07,0 -0.1,0zm1.9 -17.47c-0.67,-0.26 -1.37,-0.39 -2.11,-0.39 0,0 -0.01,0 -0.02,0 -0.24,-0.62 -0.55,-1.21 -0.59,-1.89 0.01,-0.09 0.02,-0.17 0.04,-0.26 0.1,-0.01 0.21,-0.01 0.32,-0.02 0.08,0 0.16,0 0.24,0 0.5,0 0.98,0.05 1.45,0.14 0.48,0.18 0.95,0.41 1.41,0.59 0,0.01 0,0.03 0,0.05 -0.41,0.21 -1.21,0.64 -1.04,1.32 0.04,0.17 0.15,0.32 0.3,0.46z"/>
   <path class="fil55" d="M96.48 46.15c0,0 0,0 0,0 0.01,0 0.03,0 0.04,0 -0.01,0 -0.03,0 -0.04,0zm0.74 -0.07c0.21,-0.04 0.42,-0.09 0.63,-0.15 -0.02,0.01 -0.04,0.03 -0.05,0.04 -0.19,0.05 -0.38,0.09 -0.58,0.11zm-0.76 -2.47c-0.01,-0.59 -0.02,-1.18 -0.03,-1.77 -0.02,-0.62 -0.06,-1.24 -0.11,-1.85 0,-0.03 0,-0.06 -0.01,-0.1 0.42,-0.44 0.75,-0.98 0.92,-1.58 0.09,-0.3 0.16,-0.61 0.2,-0.93 0.04,0.47 0.09,0.92 0.12,1.33 0.12,1.55 0.36,2.95 0.37,4.45 -0.46,0.23 -0.96,0.38 -1.46,0.45zm0.83 -8.85c-0.14,-0.61 -0.37,-1.19 -0.67,-1.72 -0.03,-0.06 -0.08,-0.14 -0.12,-0.21 0.04,-0.45 0.07,-0.89 0.04,-1.32 -0.01,-0.05 -0.01,-0.11 -0.02,-0.16 0.14,0.14 0.29,0.3 0.47,0.48 0.27,0.26 0.57,0.39 0.89,0.5 -0.17,0.26 -0.3,0.53 -0.37,0.77 -0.14,0.5 -0.2,1.07 -0.22,1.66zm1.25 -3.8c-0.28,-0.11 -0.55,-0.2 -0.82,-0.23 -0.04,0 -0.08,0 -0.13,0 -0.02,0 -0.05,0 -0.08,0 -0.39,-0.07 -0.78,-0.1 -1.18,-0.13 -0.02,-0.04 -0.03,-0.09 -0.05,-0.14 0.01,0 0.02,0 0.02,0 0.74,0 1.44,0.13 2.11,0.39 0.04,0.03 0.08,0.07 0.13,0.11z"/>
   <path class="fil47" d="M99.14 28.86c-0.45,-0.18 -0.92,-0.33 -1.4,-0.43 -0.47,-0.17 -0.94,-0.3 -1.41,-0.3 -0.12,0 -0.25,0.01 -0.37,0.03 0.43,-1.2 1.13,-2.73 -0.08,-3.63 0,-0.05 0,-0.11 0,-0.16l0.01 -0.02 0.02 -0.02c0.24,0.34 1.55,0.82 2.09,1.14 0.07,0.05 0.16,0.09 0.23,0.14 0.72,0.56 2.2,1.83 2.32,2.81 -0.01,0 -0.03,0 -0.05,0 -0.27,0 -0.46,-0.17 -0.74,-0.23 -0.1,-0.02 -0.21,-0.03 -0.32,-0.03 -0.29,0 -0.61,0.05 -0.87,0.08 0.13,0.24 0.49,0.32 0.57,0.62z"/>
   <path class="fil48" d="M99.15 29.02c-0.46,-0.18 -0.93,-0.41 -1.41,-0.59 0.48,0.1 0.95,0.25 1.4,0.43 0.01,0.05 0.01,0.1 0.01,0.16z"/>
   <path class="fil48" d="M96.58 46.15c-0.02,0 -0.04,0 -0.06,0 0.01,0 0.02,0 0.03,0 0.23,-0.01 0.45,-0.03 0.67,-0.07 -0.01,0.01 -0.01,0.01 -0.02,0.01 -0.19,0.04 -0.4,0.06 -0.62,0.06z"/>
   <path class="fil47" d="M96.52 46.15c-0.01,0 -0.03,0 -0.04,0 -0.01,-0.85 -0.01,-1.7 -0.02,-2.54 0.5,-0.07 1,-0.22 1.46,-0.45 0,0.38 -0.02,0.77 -0.05,1.17 -0.04,0.47 0.03,0.74 0.18,0.88 -0.45,0.26 -0.89,0.47 -1.24,0.56 0.36,-0.09 0.94,-0.04 1.45,-0.08 -0.15,0.07 -0.29,0.15 -0.41,0.24 -0.21,0.06 -0.42,0.11 -0.63,0.15 -0.22,0.04 -0.44,0.06 -0.67,0.07 -0.01,0 -0.02,0 -0.03,0zm1.36 -13.82c-0.32,-0.11 -0.62,-0.24 -0.89,-0.5 -0.18,-0.18 -0.33,-0.34 -0.47,-0.48 -0.02,-0.17 -0.06,-0.34 -0.11,-0.51 0.07,-0.03 0.13,-0.06 0.2,-0.07 0.07,0.02 0.13,0.02 0.21,0.02 0.01,0 0.03,0 0.04,0 0.47,0.14 0.94,0.76 1.34,1.12 -0.12,0.13 -0.23,0.27 -0.32,0.42zm-1.02 -1.54c-0.05,-0.02 -0.11,-0.03 -0.17,-0.03 -0.03,0 -0.05,0.01 -0.08,0.01 -0.1,-0.02 -0.19,-0.05 -0.26,-0.12 -0.01,-0.01 -0.01,-0.03 -0.02,-0.05 0.4,0.03 0.79,0.06 1.18,0.13 -0.1,0 -0.2,0.02 -0.3,0.03 -0.12,0.01 -0.23,0.03 -0.35,0.03z"/>
   <path class="fil47" d="M96.92 53.06c-0.01,-0.02 -0.02,-0.04 -0.03,-0.06 -0.08,-1.55 -0.08,-3.14 -0.04,-4.68 0.02,-0.01 0.04,-0.01 0.05,-0.02 -0.03,1.6 0,3.17 0.02,4.76zm1.19 -4.95c0.27,-0.07 0.53,-0.15 0.79,-0.24 0.01,-0.01 0.02,-0.01 0.04,-0.01 0.12,-0.05 0.25,-0.1 0.38,-0.16 0.22,-0.1 0.45,-0.21 0.66,-0.33 0.02,0.01 0.04,0.01 0.05,0.02 -0.27,0.14 -0.54,0.27 -0.81,0.37 -0.31,0.12 -0.71,0.25 -1.11,0.35z"/>
   <path class="fil48" d="M97.06 48.25c0,0 -0.01,0 -0.02,0 0.61,-0.19 1.25,-0.19 1.86,-0.38 -0.26,0.09 -0.52,0.17 -0.79,0.24 -0.36,0.08 -0.73,0.14 -1.05,0.14zm2.26 -0.55c0.2,-0.1 0.4,-0.21 0.59,-0.34 0.03,0 0.05,0 0.07,0.01 -0.21,0.12 -0.44,0.23 -0.66,0.33z"/>
   <path class="fil47" d="M98.57 30.99c-0.35,-0.12 -0.7,-0.2 -1.06,-0.26 0.03,0 0.06,0 0.08,0 0.05,0 0.09,0 0.13,0 0.27,0.03 0.54,0.12 0.82,0.23 0.01,0.01 0.02,0.02 0.03,0.03z"/>
   <path class="fil9" d="M96.81 45.77c0.35,-0.09 0.79,-0.3 1.24,-0.56 0.07,0.07 0.17,0.11 0.27,0.11 0.4,0 0.95,-0.45 1.27,-0.97 -0.04,0.75 -0.74,1.03 -1.33,1.34 -0.51,0.04 -1.09,-0.01 -1.45,0.08zm1.39 -13.86c-0.4,-0.36 -0.87,-0.98 -1.34,-1.12 0.12,0 0.23,-0.02 0.35,-0.03 0.1,-0.01 0.2,-0.03 0.3,-0.03 0.36,0.06 0.71,0.14 1.06,0.26 0.34,0.26 0.76,0.5 0.94,0.82 -0.17,-0.22 -0.36,-0.31 -0.55,-0.31 -0.26,0 -0.53,0.17 -0.76,0.41zm-1.79 -1.07c-0.02,-0.06 -0.04,-0.12 -0.06,-0.19 0.07,0.07 0.16,0.1 0.26,0.12 -0.07,0.01 -0.13,0.04 -0.2,0.07zm0.41 -0.05c-0.08,0 -0.14,0 -0.21,-0.02 0.03,0 0.05,-0.01 0.08,-0.01 0.06,0 0.12,0.01 0.17,0.03 -0.01,0 -0.03,0 -0.04,0z"/>
   <path class="fil57" d="M96.31 39.89c0,-0.27 -0.01,-0.54 -0.02,-0.8 -0.03,-1.22 -0.1,-2.43 -0.15,-3.64 0.08,-0.87 0.26,-1.76 0.36,-2.62 0.04,0.07 0.09,0.15 0.12,0.21 0.3,0.53 0.53,1.11 0.67,1.72 -0.02,0.86 0.06,1.77 0.14,2.62 -0.04,0.32 -0.11,0.63 -0.2,0.93 -0.17,0.6 -0.5,1.14 -0.92,1.58z"/>
   <path class="fil47" d="M99.28 51.48c-0.58,0 -0.98,-0.25 -0.62,-1.16 0.12,-0.3 0.41,-0.54 0.75,-0.75 0.68,0.47 1.46,0.8 2.25,0.8 0.05,0 0.11,0 0.16,-0.01 -0.4,0.32 -0.82,0.59 -1.3,0.77 -0.17,0.07 -0.34,0.15 -0.51,0.25 -0.24,0.06 -0.5,0.1 -0.73,0.1z"/>
   <path class="fil58" d="M97.94 52.66c0.41,-0.3 0.84,-0.54 1.3,-0.76 -0.17,0.12 -0.34,0.25 -0.5,0.36 -0.05,0.03 -0.09,0.07 -0.14,0.11 -0.23,0.09 -0.45,0.18 -0.66,0.29zm-1.04 -4.36l0 0 0 0z"/>
   <path class="fil59" d="M96.9 48.3c0,-0.02 0,-0.04 0,-0.05 0.05,0 0.1,0 0.14,0 -0.04,0.02 -0.09,0.03 -0.14,0.05l0 0z"/>
   <path class="fil60" d="M97.04 53.36c-0.04,-0.1 -0.08,-0.2 -0.12,-0.3 -0.02,-1.59 -0.05,-3.16 -0.02,-4.76l0 0c0.41,-0.03 0.82,-0.1 1.21,-0.19 0.4,-0.1 0.8,-0.23 1.11,-0.35 0.27,-0.1 0.54,-0.23 0.81,-0.37 0.01,0 0.02,0 0.02,0 -0.17,0.25 -0.47,0.49 -0.7,0.64l-0.91 0.41c-0.16,0.41 0.52,0.81 0.77,1 0.07,0.04 0.13,0.09 0.2,0.13 -0.34,0.21 -0.63,0.45 -0.75,0.75 -0.36,0.91 0.04,1.16 0.62,1.16 0.23,0 0.49,-0.04 0.73,-0.1 -0.26,0.15 -0.52,0.34 -0.77,0.52 -0.46,0.22 -0.89,0.46 -1.3,0.76 -0.34,0.18 -0.65,0.4 -0.9,0.7z"/>
   <path class="fil61" d="M96.9 48.3c0.05,-0.02 0.1,-0.03 0.14,-0.05 0.01,0 0.02,0 0.02,0 0.32,0 0.69,-0.06 1.05,-0.14 -0.39,0.09 -0.8,0.16 -1.21,0.19z"/>
   <path class="fil11" d="M90.11 52.24c-0.56,-0.4 -1.11,-0.83 -1.66,-1.29 -2.14,-1.84 -4.19,-3.45 -3.99,-6.89 0.06,-0.99 0.29,-1.9 0.76,-2.74 0.55,-1.01 1.35,-1.19 1.59,-2.24 0.49,-2.26 -0.04,-4.01 1.17,-6.02 0.76,-1.26 0,-1.17 -0.07,-2.42 -0.07,-1 1.07,-2.27 1.64,-2.87 1.62,-1.69 3.94,-2.31 5.83,-3.49l0.06 0.13c-0.71,0.37 -2.08,1.16 -3.38,2.19 -0.05,0.03 -0.1,0.06 -0.15,0.08 -1.36,0.75 -2.57,2 -2.81,3.65 -0.11,0.37 -0.17,0.75 -0.16,1.14 0.01,0.38 0.05,0.74 0.12,1.1 -0.07,0.38 -0.23,0.72 -0.51,1.3 -0.5,1.01 -0.64,1.75 -0.66,2.91 0,0.05 0,0.1 0,0.15 -0.06,0.54 -0.08,1.1 -0.07,1.66 0.01,0.35 0.04,0.7 0.08,1.04 -1.47,1.47 -2.33,3.31 -2.27,5.28 0.07,2.66 3.85,5.2 6.98,6.86 -0.83,0.14 -1.67,0.3 -2.5,0.47z"/>
   <path class="fil62" d="M91.99 53.44c-0.64,-0.38 -1.26,-0.77 -1.88,-1.2 0.83,-0.17 1.67,-0.33 2.5,-0.47 1.05,0.55 2.02,1.01 2.76,1.34 -0.02,0.01 -0.04,0.04 -0.07,0.06 -1.1,0.06 -2.2,0.15 -3.31,0.27z"/>
   <path class="fil63" d="M95.3 53.17c0.03,-0.02 0.05,-0.05 0.07,-0.06 0.04,0.01 0.08,0.03 0.12,0.04 -0.06,0.01 -0.13,0.01 -0.19,0.02z"/>
   <path class="fil17" d="M96.22 55.2c-0.25,0 -0.53,-0.04 -0.8,-0.11 0.45,0 0.9,0.01 1.35,0.02 -0.16,0.06 -0.35,0.09 -0.55,0.09z"/>
   <path class="fil64" d="M93.88 54.47c-0.64,-0.33 -1.27,-0.67 -1.89,-1.03 1.11,-0.12 2.21,-0.21 3.31,-0.27 -0.49,0.42 -0.98,0.84 -1.42,1.3z"/>
   <path class="fil65" d="M96.77 55.11c-0.45,-0.01 -0.9,-0.02 -1.35,-0.02 -0.41,-0.1 -0.82,-0.25 -1.12,-0.41 -0.14,-0.07 -0.28,-0.14 -0.42,-0.21 0.44,-0.46 0.93,-0.88 1.42,-1.3 0.06,-0.01 0.13,-0.01 0.19,-0.02 0.78,0.35 1.27,0.54 1.27,0.54 0,0 0.06,-0.03 0.16,-0.08 0.01,0.04 0.02,0.08 0.02,0.11 0.06,-0.04 0.12,-0.09 0.17,-0.14 0.31,0.91 0.09,1.36 -0.34,1.53z"/>
   <path class="fil43" d="M96.76 53.69c0,0 -0.49,-0.19 -1.27,-0.54 -0.04,-0.01 -0.08,-0.03 -0.12,-0.04 -0.74,-0.33 -1.71,-0.79 -2.76,-1.34 -3.13,-1.66 -6.91,-4.2 -6.98,-6.86 -0.06,-1.97 0.8,-3.81 2.27,-5.28 0.01,0.09 0.02,0.19 0.03,0.28 -0.03,0.15 -0.07,0.29 -0.12,0.42l0 -0.09c-0.02,0.01 -0.03,0.02 -0.05,0.03l-0.01 -0.03c-0.39,0.11 -0.72,0.64 -0.94,1.33 -0.31,0.72 -0.49,1.57 -0.54,2.2 -0.12,1.44 0.76,3.55 1.92,4.15 0,-0.02 0,-0.05 0,-0.07 0.55,0.57 1.15,1.04 1.67,1.36 1.36,0.83 2.7,1.87 4.16,2.4 0.88,0.32 2.2,0.4 2.81,1.33 0.03,0.23 0.06,0.45 0.09,0.67 -0.1,0.05 -0.16,0.08 -0.16,0.08z"/>
   <path class="fil43" d="M89.06 32.57c-0.07,-0.36 -0.11,-0.72 -0.12,-1.1 -0.01,-0.39 0.05,-0.77 0.16,-1.14 -0.04,0.3 -0.05,0.6 -0.03,0.92 0.05,0.6 0.05,0.98 -0.01,1.32zm3 -5.97c1.3,-1.03 2.67,-1.82 3.38,-2.19l0.04 0.09c-0.09,0.17 -0.21,0.34 -0.34,0.48l-0.21 0.09 0.14 -0.17c0.02,-0.04 0.05,-0.07 0.08,-0.11l-0.08 0.11c-0.08,0.09 -0.17,0.17 -0.26,0.25l0 -0.01c-0.02,0.02 -0.04,0.04 -0.06,0.07 -0.44,0.35 -1.01,0.62 -1.45,0.85 -0.07,0.04 -0.14,0.08 -0.21,0.12 -0.35,0.13 -0.71,0.27 -1.03,0.42z"/>
   <path class="fil66" d="M87.93 39.91c-0.01,-0.09 -0.02,-0.19 -0.03,-0.28 -0.04,-0.34 -0.07,-0.69 -0.08,-1.04 -0.01,-0.56 0.01,-1.12 0.07,-1.66 0,0.93 0.21,1.98 0.06,2.87 0,0.04 -0.01,0.08 -0.02,0.11z"/>
   <path class="fil67" d="M94.75 25.21c0.02,-0.03 0.04,-0.05 0.06,-0.07l0 0.01c-0.02,0.02 -0.04,0.04 -0.06,0.06z"/>
   <path class="fil67" d="M88.19 47.92c-1.16,-0.6 -2.04,-2.71 -1.92,-4.15 0.05,-0.63 0.23,-1.48 0.54,-2.2 -0.11,0.33 -0.2,0.71 -0.26,1.1 0,0.01 0,0.01 0,0.01 -0.77,1.82 0.31,3.79 1.64,5.17 0,0.02 0,0.05 0,0.07zm-0.4 -7.52c-0.01,-0.03 -0.02,-0.06 -0.03,-0.09l0 -0.04c0.02,-0.01 0.03,-0.02 0.05,-0.03l0 0.09c0,0.03 -0.01,0.05 -0.02,0.07z"/>
   <path class="fil68" d="M86.81 41.57c0.22,-0.69 0.55,-1.22 0.94,-1.33l0.01 0.03c-0.4,0.25 -0.71,0.74 -0.95,1.3z"/>
   <path class="fil69" d="M86.55 42.67c0.06,-0.39 0.15,-0.77 0.26,-1.1 0.24,-0.56 0.55,-1.05 0.95,-1.3l0 0.04c0.01,0.03 0.02,0.06 0.03,0.09 -0.31,0.81 -0.9,1.48 -1.24,2.27z"/>
   <path class="fil43" d="M94.87 25.23c0.05,-0.04 0.11,-0.09 0.16,-0.13 -0.04,0.04 -0.08,0.08 -0.12,0.11l-0.04 0.02z"/>
   <path class="fil67" d="M94.68 25.4c0.06,-0.05 0.13,-0.11 0.19,-0.17l0.04 -0.02c-0.07,0.07 -0.15,0.14 -0.23,0.19z"/>
   <path class="fil68" d="M93.09 26.18c0.07,-0.04 0.14,-0.08 0.21,-0.12 0.44,-0.23 1.01,-0.5 1.45,-0.85 -0.44,0.4 -1,0.62 -1.51,0.91 -0.05,0.02 -0.1,0.04 -0.15,0.06zm1.68 -0.9l0.04 -0.13c0.09,-0.08 0.18,-0.16 0.26,-0.25l-0.14 0.17 0.21 -0.09c-0.03,0.04 -0.07,0.08 -0.11,0.12 -0.05,0.04 -0.11,0.09 -0.16,0.13l-0.1 0.05z"/>
   <path class="fil69" d="M93.24 26.12c0.51,-0.29 1.07,-0.51 1.51,-0.91 0.02,-0.02 0.04,-0.04 0.06,-0.06l-0.04 0.13 0.1 -0.05c-0.06,0.06 -0.13,0.12 -0.19,0.17 -0.43,0.32 -0.94,0.53 -1.44,0.72z"/>
   <path class="fil68" d="M95.07 24.9l0.08 -0.11c-0.03,0.04 -0.06,0.07 -0.08,0.11z"/>
   <path class="fil70" d="M96.94 53.72c0,-0.03 -0.01,-0.07 -0.02,-0.11 0,0 0.01,0 0.02,-0.01 0,0.02 0,0.04 0,0.05 0.02,-0.02 0.05,-0.05 0.07,-0.08 0.03,-0.02 0.05,-0.03 0.08,-0.04 0.01,0.01 0.02,0.03 0.02,0.05 -0.05,0.05 -0.11,0.1 -0.17,0.14z"/>
   <path class="fil71" d="M96.92 53.61c-0.03,-0.22 -0.06,-0.44 -0.09,-0.67 0.02,0.04 0.05,0.08 0.07,0.12 0.01,0.11 0.01,0.23 0.02,0.34 0,0.03 0,0.07 0,0.1 0,0 0,0 0.01,0 0,0.03 0,0.07 0.01,0.1 -0.01,0.01 -0.02,0.01 -0.02,0.01zm0.09 -0.04c0.02,-0.03 0.04,-0.06 0.07,-0.09 0,0.02 0.01,0.03 0.01,0.05 -0.03,0.01 -0.05,0.02 -0.08,0.04z"/>
   <path class="fil72" d="M96.94 53.65c0,-0.01 0,-0.03 0,-0.05 0.02,-0.01 0.04,-0.02 0.07,-0.03 -0.02,0.03 -0.05,0.06 -0.07,0.08z"/>
   <path class="fil21" d="M96.94 53.6c-0.01,-0.03 -0.01,-0.07 -0.01,-0.1 0.03,-0.05 0.07,-0.09 0.1,-0.14 0.02,0.05 0.03,0.08 0.05,0.12 -0.03,0.03 -0.05,0.06 -0.07,0.09 -0.03,0.01 -0.05,0.02 -0.07,0.03zm-0.02 -0.2c-0.01,-0.11 -0.01,-0.23 -0.02,-0.34 0.01,0.01 0.01,0.03 0.02,0.04 0,0.1 0,0.2 0,0.3z"/>
   <path class="fil73" d="M96.92 53.5c0,-0.03 0,-0.07 0,-0.1 0,0.03 0,0.06 0.01,0.1 -0.01,0 -0.01,0 -0.01,0z"/>
   <path class="fil74" d="M96.93 53.5c-0.01,-0.04 -0.01,-0.07 -0.01,-0.1 0,-0.1 0,-0.2 0,-0.3 0.02,0.04 0.04,0.08 0.06,0.13 0.02,0.04 0.04,0.09 0.05,0.13 -0.03,0.05 -0.07,0.09 -0.1,0.14z"/>
   <path class="fil15" d="M86.15 142.33c0.65,-0.32 1.31,-0.81 2.02,-1.46 1.09,-1.02 2.13,-2.08 3.12,-3.19 -0.08,0.62 -0.15,1.24 -0.21,1.86 -1.38,1.53 -2.97,2.62 -4.93,2.79zm21.87 -2.67c-3.41,-2.32 -6.67,-6.64 -8.59,-9.78 0.1,0.1 0.2,0.2 0.27,0.29 0.79,0.98 1.42,2.01 2.23,2.99 1.14,1.38 2.14,2.85 3.41,4.06 0.85,0.81 1.73,1.69 2.68,2.44zm-23.38 -0.76c-0.94,0 -1.97,-0.33 -3.2,-1.11 -5.11,-3.27 -7.97,-8.25 -10.82,-13.4 -0.85,-1.54 -1.65,-3.19 -2.34,-4.81 0.1,-0.27 0.23,-0.52 0.4,-0.77 4.8,4.36 5.48,12.02 11.33,15.95 1.19,0.79 2.49,1.14 3.81,1.14 5.05,0 10.39,-5.13 10.9,-10.14 0.91,-0.37 1.88,-0.46 2.88,-0.46 0.73,0 1.48,0.05 2.21,0.09 1.73,3.95 6,7.58 10.27,7.58 1.36,0 2.72,-0.37 4,-1.21 5.19,-3.41 6.75,-9.97 7.15,-15.69 2.64,3.29 0.1,8.66 -1.23,12.01 -1.27,3.2 -2.68,7.29 -5.74,9.19 -0.74,0.45 -1.53,0.65 -2.36,0.65 -4.45,0 -9.85,-5.78 -12.53,-8.35 -0.1,-0.09 -0.19,-0.18 -0.28,-0.26 -0.26,-0.46 -0.5,-0.88 -0.69,-1.25 -0.07,0.08 -0.14,0.16 -0.21,0.25l-0.4 -0.14c0.01,-0.05 0.03,-0.11 0.05,-0.16 -0.03,0.05 -0.06,0.1 -0.1,0.15l-0.33 -0.11c-0.05,-0.04 -0.1,-0.07 -0.15,-0.1 -0.01,0.01 -0.01,0.03 -0.02,0.04l-0.16 -0.06c0.05,0.03 0.11,0.05 0.16,0.07 -0.3,0.71 -0.63,1.42 -0.97,2.13 -1.94,2.37 -4.35,4.62 -6.66,6.34 -1.88,1.41 -3.3,2.43 -4.97,2.43zm6.64 -0.39c0,-0.27 0.1,-0.43 0.2,-0.68l-0.17 -0.17c1.08,-1.21 2.09,-2.47 3.03,-3.78 -0.31,0.58 -0.62,1.16 -0.92,1.74 -0.73,0.98 -1.45,1.94 -2.14,2.89zm-18.63 -8.1c-0.84,-1.23 -1.92,-2.7 -2.82,-4.24 0.99,1.37 1.97,2.78 2.82,4.24zm25.37 -1.88c-0.07,-0.07 -0.15,-0.13 -0.22,-0.2 0,0 0,0 0,0 -0.01,0 -0.01,0 -0.01,0 -0.01,-0.01 -0.03,-0.03 -0.05,-0.04 0.01,-0.01 0.01,-0.02 0.01,-0.04 0.12,0.07 0.22,0.13 0.32,0.21 -0.01,0.02 -0.03,0.04 -0.05,0.07zm0.11 -0.14c0.01,-0.04 0.03,-0.06 0.06,-0.08 -0.02,0.03 -0.04,0.05 -0.06,0.08zm-0.45 -0.15c-0.05,-0.04 -0.1,-0.07 -0.15,-0.11 0.06,0.03 0.11,0.06 0.17,0.09 -0.01,0.01 -0.01,0.01 -0.02,0.02z"/>
   <path class="fil22" d="M84.28 142.81c-1.28,0 -2.56,-0.67 -4,-2 -2.58,-2.36 -5.01,-5.01 -6.48,-8.21 -0.34,-0.74 -0.73,-1.47 -1.15,-2.19 0.31,0.45 0.59,0.87 0.81,1.25 2.42,4.07 5.75,9.51 10.66,10.54 0.51,0.11 0.99,0.16 1.46,0.16 0.19,0 0.38,-0.01 0.57,-0.03 -0.64,0.32 -1.26,0.48 -1.87,0.48zm-14.45 -16.64c-1.45,-2.02 -2.94,-3.95 -4.08,-5.84 0.63,-0.49 1.62,-1.14 2.27,-1.14 0.03,0 0.07,0 0.1,0.01 0.05,0.12 0.11,0.25 0.16,0.38 -0.72,1.94 0.23,4.33 1.55,6.59zm-4.67 -5.33c0.02,-0.02 0.06,-0.06 0.12,-0.11l-0.12 0.11zm0.12 -0.11l0.44 -0.45c0.01,0.02 0.02,0.03 0.03,0.05 -0.2,0.16 -0.37,0.3 -0.47,0.4z"/>
   <path class="fil75" d="M85.58 142.36c-0.47,0 -0.95,-0.05 -1.46,-0.16 -4.91,-1.03 -8.24,-6.47 -10.66,-10.54 -0.22,-0.38 -0.5,-0.8 -0.81,-1.25 -0.85,-1.46 -1.83,-2.87 -2.82,-4.24 -1.32,-2.26 -2.27,-4.65 -1.55,-6.59 0.69,1.62 1.49,3.27 2.34,4.81 2.85,5.15 5.71,10.13 10.82,13.4 1.23,0.78 2.26,1.11 3.2,1.11 1.67,0 3.09,-1.02 4.97,-2.43 2.31,-1.72 4.72,-3.97 6.66,-6.34 -0.61,1.26 -1.27,2.5 -1.93,3.75 -0.94,1.31 -1.95,2.57 -3.03,3.78l-0.01 -0.02c-0.01,0.01 -0.01,0.03 -0.01,0.04 -0.99,1.11 -2.03,2.17 -3.12,3.19 -0.71,0.65 -1.37,1.14 -2.02,1.46 -0.19,0.02 -0.38,0.03 -0.57,0.03zm12.16 -14.07c-0.02,-0.02 -0.04,-0.03 -0.06,-0.05 0.01,-0.01 0.01,-0.01 0.02,-0.02 0.02,0.01 0.04,0.02 0.05,0.03 0,0.02 0,0.03 -0.01,0.04zm0.05 -0.12l-0.05 -0.01c0.04,-0.05 0.07,-0.1 0.1,-0.15 -0.02,0.05 -0.04,0.11 -0.05,0.16z"/>
   <path class="fil22" d="M112.38 141.44c-0.86,0 -1.66,-0.21 -2.42,-0.56 0,-0.05 -0.01,-0.1 -0.02,-0.15 0.85,0.36 1.69,0.57 2.51,0.57 1.56,0 3.04,-0.74 4.32,-2.54 2.37,-3.32 3.07,-7.52 4.48,-11.2 0.82,-2.11 2.79,-4.7 2.86,-7 0.08,-3.19 -0.64,-2.52 -2.87,-4.54 -0.01,0.02 -0.01,0.03 -0.01,0.05 -0.12,-0.15 -0.25,-0.29 -0.39,-0.43 2.14,0.44 4.05,1.88 6.09,2.58 -0.55,1.4 -1.15,2.73 -1.8,4.12 -1.62,3.44 -3.14,6.96 -4.76,10.45 -1.23,2.66 -3.52,7.62 -6.49,8.44 -0.52,0.15 -1.02,0.21 -1.5,0.21zm-2.94 -0.94c-0.3,-0.12 -0.62,-0.29 -0.94,-0.48 -0.16,-0.12 -0.32,-0.24 -0.48,-0.36 0.47,0.32 0.95,0.6 1.42,0.84zm-10.01 -10.62c-0.45,-0.46 -1.12,-1.05 -1.27,-1.37 0.32,0.23 0.61,0.5 0.93,0.8 0.11,0.18 0.22,0.37 0.34,0.57z"/>
   <path class="fil75" d="M112.45 141.3c-0.82,0 -1.66,-0.21 -2.51,-0.57 0,-0.02 0,-0.05 -0.01,-0.07 -0.16,-0.04 -0.32,-0.1 -0.49,-0.16 -0.47,-0.24 -0.95,-0.52 -1.42,-0.84 -0.95,-0.75 -1.83,-1.63 -2.68,-2.44 -1.27,-1.21 -2.27,-2.68 -3.41,-4.06 -0.81,-0.98 -1.44,-2.01 -2.23,-2.99 -0.07,-0.09 -0.17,-0.19 -0.27,-0.29 -0.12,-0.2 -0.23,-0.39 -0.34,-0.57 0.09,0.08 0.18,0.17 0.28,0.26 2.68,2.57 8.08,8.35 12.53,8.35 0.83,0 1.62,-0.2 2.36,-0.65 3.06,-1.9 4.47,-5.99 5.74,-9.19 1.33,-3.35 3.87,-8.72 1.23,-12.01 0,-0.02 0,-0.03 0.01,-0.05 2.23,2.02 2.95,1.35 2.87,4.54 -0.07,2.3 -2.04,4.89 -2.86,7 -1.41,3.68 -2.11,7.88 -4.48,11.2 -1.28,1.8 -2.76,2.54 -4.32,2.54z"/>
   <path class="fil22" d="M98.16 128.51c-0.03,-0.02 -0.06,-0.03 -0.09,-0.05 0.02,-0.03 0.04,-0.05 0.06,-0.07 -0.01,0.03 0.01,0.07 0.03,0.12zm0.03 -0.2c0,0 0,0 0,0l0.01 0c0,0 -0.01,0 -0.01,0z"/>
   <path class="fil75" d="M98.07 128.46c-0.1,-0.08 -0.2,-0.14 -0.32,-0.21 0.01,-0.02 0.03,-0.05 0.04,-0.08l0.4 0.14c0,0 0,0 0,0 -0.03,0.02 -0.05,0.04 -0.06,0.08 -0.02,0.02 -0.04,0.04 -0.06,0.07zm-0.37 -0.24c-0.06,-0.03 -0.11,-0.06 -0.17,-0.09 -0.04,-0.03 -0.08,-0.06 -0.12,-0.08l0.33 0.11c-0.01,0.02 -0.03,0.04 -0.04,0.06zm-0.46 -0.22c-0.05,-0.02 -0.11,-0.04 -0.16,-0.07l0.16 0.06c0,0 0,0 0,0.01z"/>
   <path class="fil76" d="M97.75 128.25c-0.01,-0.01 -0.03,-0.02 -0.05,-0.03 0.01,-0.02 0.03,-0.04 0.04,-0.06l0.05 0.01c-0.01,0.03 -0.03,0.06 -0.04,0.08z"/>
   <path class="fil77" d="M59.88 163.28c-2.84,-5.61 -4.67,-12.05 -7.03,-17.75 -1.93,-4.66 -5.51,-9.78 -3.6,-15.02 1.22,-3.37 4.03,-4.73 7.33,-5.33 2.47,-0.45 6.87,-0.84 8.21,-3.4 1.13,4.21 1.78,9.11 -1.07,13.05 -1.41,1.95 -2.97,3.07 -3.78,5.42 -1.07,3.05 -1.1,6.31 -0.94,9.52 0.15,3.39 0.86,6.91 1.54,10.23 0.21,1.03 0.57,2.14 0.86,3.27l-1.52 0.01z"/>
   <path class="fil77" d="M129.55 180.9c0.09,-1.07 0.63,-2.03 1,-3.05 -0.27,1.04 -0.6,2.06 -1,3.05zm1 -3.05c0.59,-2.31 0.9,-4.74 1.08,-7.21l1.08 0c-0.63,2.29 -1.34,4.55 -2.02,6.81 -0.05,0.13 -0.09,0.26 -0.14,0.4zm1.49 -15.11c0.07,-1.38 0.17,-2.73 0.31,-4.03 0.77,-6.73 0.78,-13.99 -0.13,-20.7 -0.48,-3.5 -0.95,-7.26 -2.14,-10.6 -0.87,-2.43 -2.53,-4.06 -3.88,-6.18 -0.01,-0.17 0.02,-0.21 0.08,-0.21 0.02,0 0.05,0.01 0.09,0.02 0.03,0 0.06,0.01 0.1,0.01 0.03,0 0.07,-0.01 0.1,-0.02l-0.56 -0.56c1.31,0.35 2.56,0.79 3.93,1.45 2.9,1.38 6.35,1.96 9.14,3.81 3.55,2.36 3.75,6.05 3.55,9.86 -0.17,3.09 -0.62,5.54 -1.45,8.55 -0.99,3.58 -2.95,6.71 -3.96,10.29 -0.79,2.77 -1.59,5.52 -2.36,8.29l-2.82 0.02z"/>
   <polygon class="fil78" points="135.21,170.64 60.87,170.64 57.84,163.29 138.11,162.69 "/>
   <path class="fil15" d="M97.67 182.08c-1.11,0 -2.21,-0.07 -3.31,-0.13 -1.1,-0.07 -2.2,-0.14 -3.27,-0.14 -0.42,0 -0.84,0.01 -1.26,0.04 -0.19,-3.71 0.06,-7.47 0.4,-11.21l4.21 0c0.3,4.29 1.08,9.49 4.87,11.38 -0.55,0.04 -1.1,0.06 -1.64,0.06zm-6.76 -19.04c0.43,-7.76 -0.56,-15.79 0.17,-23.5 0.2,-0.23 0.39,-0.46 0.58,-0.7 0,0.14 0.01,0.28 0,0.42 0.11,-0.24 0.21,-0.47 0.32,-0.71 1.1,-0.45 2.27,-0.78 3.47,-0.95 -0.97,3.97 -1.03,8.07 -1.21,12.17 -0.19,4.38 -0.24,8.83 -0.13,13.25l-3.2 0.02zm0.95 -24.44c0.09,-0.12 0.17,-0.24 0.26,-0.36 -0.05,0.1 -0.09,0.21 -0.14,0.31 -0.04,0.02 -0.08,0.03 -0.12,0.05z"/>
   <path class="fil79" d="M91.08 139.54c0.06,-0.62 0.13,-1.24 0.21,-1.86 0.01,-0.01 0.02,-0.01 0.02,-0.02l0.17 0.17c-0.1,0.25 -0.2,0.41 -0.2,0.68 0.69,-0.95 1.41,-1.91 2.14,-2.89 -0.45,0.87 -0.89,1.74 -1.3,2.62 -0.09,0.12 -0.17,0.24 -0.26,0.36 -0.07,0.03 -0.13,0.05 -0.2,0.08 0,-0.1 0,-0.19 0.01,-0.29l-0.19 0.37c0.06,-0.03 0.12,-0.05 0.18,-0.08 0,0.06 0,0.11 0,0.16 -0.19,0.24 -0.38,0.47 -0.58,0.7zm6.72 -11.21c0,0 -0.01,0 -0.01,0 0,0 0,0 0.01,0 0,0 0,0 0,0z"/>
   <path class="fil80" d="M91.29 137.68c0,-0.01 0,-0.03 0.01,-0.04l0.01 0.02c0,0.01 -0.01,0.01 -0.02,0.02z"/>
   <path class="fil81" d="M94.44 170.64l-4.21 0c0.16,-1.82 0.35,-3.63 0.51,-5.43 0.07,-0.72 0.13,-1.44 0.17,-2.17l3.2 -0.02c0.04,1.88 0.12,3.75 0.21,5.61 0.04,0.64 0.07,1.31 0.12,2.01z"/>
   <path class="fil15" d="M106.23 182.01c0,-1.47 0,-2.95 0,-4.42 0,-2.31 0.02,-4.63 0.06,-6.95l1.55 0c-0.38,3.83 -0.87,7.64 -1.61,11.37zm0.22 -19.08c0.08,-3.87 0.15,-7.75 0.15,-11.62 0,-3.61 0.32,-8.89 -2.61,-11.47 -1.93,-1.69 -4.29,-2.38 -6.67,-2.38 -0.62,0 -1.25,0.05 -1.87,0.14 0.06,-0.23 0.12,-0.47 0.18,-0.7 0.71,-2.59 2.41,-5.45 2.22,-8.14 0.05,-0.08 0.11,-0.16 0.17,-0.23 1.85,1.68 3.11,4.88 4.89,6.63 1.3,1.28 3.6,3.67 5.59,4.86 0.47,0.33 0.96,0.63 1.46,0.86 0.26,2 -0.35,4.26 -0.37,6.28 -0.03,3.23 -0.28,6.34 -0.57,9.53 -0.18,2.06 -0.34,4.14 -0.51,6.22l-2.06 0.02z"/>
   <path class="fil79" d="M93.42 135.62c0.3,-0.58 0.61,-1.16 0.92,-1.74 0.12,-0.17 0.24,-0.35 0.37,-0.53 0.35,-0.51 0.73,-1.05 1.11,-1.6 -0.43,0.91 -0.86,1.81 -1.4,2.53 -0.33,0.45 -0.66,0.9 -1,1.34zm2.85 -5.49c0.34,-0.71 0.67,-1.42 0.97,-2.13 0.1,0.04 0.2,0.08 0.29,0.13 0.05,0.04 0.1,0.07 0.15,0.11 -0.43,0.63 -0.9,1.26 -1.41,1.89zm1.58 -1.37c-0.01,-0.14 -0.03,-0.28 -0.05,-0.43 0.07,0.07 0.15,0.13 0.22,0.2 -0.06,0.07 -0.12,0.15 -0.17,0.23zm-0.17 -0.31c0.02,-0.05 0.04,-0.11 0.06,-0.16 0.02,0.01 0.04,0.03 0.05,0.04 -0.04,0.04 -0.07,0.08 -0.11,0.12zm-0.27 -0.4l-0.17 -0.06c0.01,-0.01 0.01,-0.03 0.02,-0.04 0.05,0.03 0.1,0.06 0.15,0.1z"/>
   <path class="fil80" d="M94.34 133.88c0.66,-1.25 1.32,-2.49 1.93,-3.75 0.51,-0.63 0.98,-1.26 1.41,-1.89 0.02,0.02 0.04,0.03 0.06,0.05 -0.02,0.05 -0.04,0.11 -0.06,0.16 -0.74,0.81 -1.28,2.06 -1.86,3.3 -0.38,0.55 -0.76,1.09 -1.11,1.6 -0.13,0.18 -0.25,0.36 -0.37,0.53z"/>
   <path class="fil82" d="M109.96 140.88c-0.5,-0.23 -0.99,-0.53 -1.46,-0.86 0.32,0.19 0.64,0.36 0.94,0.48 0.17,0.08 0.33,0.16 0.5,0.23 0.01,0.05 0.02,0.1 0.02,0.15z"/>
   <path class="fil80" d="M109.94 140.73c-0.17,-0.07 -0.33,-0.15 -0.5,-0.23 0.17,0.06 0.33,0.12 0.49,0.16 0.01,0.02 0.01,0.05 0.01,0.07z"/>
   <path class="fil80" d="M97.53 128.13c-0.09,-0.05 -0.19,-0.09 -0.29,-0.13 0,-0.01 0,-0.01 0,-0.01l0.17 0.06c0.04,0.02 0.08,0.05 0.12,0.08z"/>
   <path class="fil81" d="M107.84 170.64l-1.55 0c0.05,-2.56 0.1,-5.14 0.16,-7.71l2.06 -0.02c-0.2,2.58 -0.41,5.16 -0.67,7.73z"/>
   <path class="fil79" d="M91.98 138.55c0.05,-0.1 0.09,-0.21 0.14,-0.31 2.18,-2.97 3.84,-6.9 5.73,-9.48 0.19,2.69 -1.51,5.55 -2.22,8.14 -0.06,0.23 -0.12,0.47 -0.18,0.7 -1.2,0.17 -2.37,0.5 -3.47,0.95z"/>
   <path class="fil70" d="M92.12 138.24c0.41,-0.88 0.85,-1.75 1.3,-2.62 0.34,-0.44 0.67,-0.89 1,-1.34 0.54,-0.72 0.97,-1.62 1.4,-2.53 0.71,-1.06 1.42,-2.19 1.86,-3.3 0.04,-0.04 0.07,-0.08 0.11,-0.12 0,0 0.01,0 0.01,0 0.02,0.15 0.04,0.29 0.05,0.43 -1.89,2.58 -3.55,6.51 -5.73,9.48z"/>
   <path class="fil83" d="M95.82 131.75c0.58,-1.24 1.12,-2.49 1.86,-3.3 -0.44,1.11 -1.15,2.24 -1.86,3.3z"/>
   <path class="fil79" d="M91.66 139.26c0.01,-0.14 0,-0.28 0,-0.42 0.07,-0.08 0.13,-0.16 0.2,-0.24 0.04,-0.02 0.08,-0.03 0.12,-0.05 -0.11,0.24 -0.21,0.47 -0.32,0.71z"/>
   <path class="fil70" d="M91.66 138.84c0,-0.05 0,-0.1 0,-0.16 0.07,-0.03 0.13,-0.05 0.2,-0.08 -0.07,0.08 -0.13,0.16 -0.2,0.24zm-0.18 -0.08l0.19 -0.37c-0.01,0.1 -0.01,0.19 -0.01,0.29 -0.06,0.03 -0.12,0.05 -0.18,0.08z"/>
   <path class="fil84" d="M96.13 105.47c1.64,-1.52 0,-3.97 -0.7,-4.8 -0.58,-0.58 3.74,0.82 7.36,-2.22 0.35,-0.35 -7.36,1.52 -7.71,0.7 -0.01,-0.14 -0.02,-0.29 -0.02,-0.44 0,-1.05 0.33,-2.09 0.95,-2.95 0.7,-0.92 -0.59,-2.33 -1.52,-2.92 -0.29,-0.16 -0.57,-0.36 -0.82,-0.58 -0.7,-0.7 0,-2.22 0.7,-5.49 0.7,-3.27 -1.51,-21.82 -4.08,-23.69 -10.77,1.53 -9.29,2.32 -11.98,3.85 -0.08,0.83 1.56,5.4 1.56,6.23 0,0.84 -5.06,11.38 -4.97,12.21 1.79,4.77 1.53,3.91 2.47,7.53 0.7,2.8 6.02,13.14 12.1,18.28l8.17 2.45c0.04,0.01 0.08,0.01 0.11,0.01 0.21,0 0.41,-0.04 0.59,-0.12 -1.97,-1.28 -5.95,-4.55 -2.21,-8.05l0 0z"/>
   <path class="fil85" d="M80.34 80.25c0,0 4.29,-1.11 5.49,-0.72 1.24,0.35 2.32,1.14 3.02,2.23l-0.48 -0.32c-1.49,-0.89 -3.21,-1.36 -4.95,-1.36 -0.12,0 -0.25,0.01 -0.37,0.01l-2.71 0.16z"/>
   <path class="fil84" d="M108.83 79.79c0,0 -4.29,-1.11 -5.49,-0.72 -1.24,0.35 -2.32,1.14 -3.02,2.23l0.48 -0.32c1.49,-0.88 3.21,-1.36 4.95,-1.36 0.12,0 0.25,0.01 0.37,0.01l2.71 0.16z"/>
   <path class="fil84" d="M93.25 78.59c0.78,-0.1 0.5,-2.43 1.33,-4.21 0.84,-1.79 2.79,-3.02 5.02,-3.56 2.24,-0.54 4.75,-0.38 7.24,-0.89 2.49,-0.51 4.95,-1.69 6.63,-2.35 1.67,-0.66 2.56,-0.81 2.61,-1.08 0.04,-0.28 -0.74,-0.66 -1.29,-0.92 -0.55,-0.26 -0.86,-0.39 -1.44,-0.56 -0.58,-0.18 -1.42,-0.41 -2.33,-0.54 -0.9,-0.13 -1.85,-0.16 -3.01,-0.34 -1.15,-0.18 -2.51,-0.52 -4.08,-0.73 -1.56,-0.2 -3.32,-0.28 -5.15,-0.32 -1.83,-0.04 -3.74,-0.04 -5.12,-0.07 -1.39,-0.03 -2.27,-0.09 -3.2,-0.03 -0.93,0.05 -1.93,0.22 -2.9,0.92 -0.97,0.7 -1.92,1.93 -1.71,3.77 0.22,1.84 1.59,4.29 3.2,6.59 1.6,2.29 3.43,4.42 4.2,4.32z"/>
  </g>
 </g>
</svg>
