<?xml version="1.0" encoding="UTF-8"?>
<!DOCTYPE svg PUBLIC "-//W3C//DTD SVG 1.1//EN" "http://www.w3.org/Graphics/SVG/1.1/DTD/svg11.dtd">
<!-- Creator: CorelDRAW -->
<svg xmlns="http://www.w3.org/2000/svg" xml:space="preserve" width="200px" height="200px" version="1.1" style="shape-rendering:geometricPrecision; text-rendering:geometricPrecision; image-rendering:optimizeQuality; fill-rule:evenodd; clip-rule:evenodd"
viewBox="0 0 200 200"
 xmlns:xlink="http://www.w3.org/1999/xlink"
 xmlns:xodm="http://www.corel.com/coreldraw/odm/2003">
 <defs>
  <style type="text/css">
   <![CDATA[
    .fil1 {fill:none}
    .fil12 {fill:#070405}
    .fil3 {fill:#1A100D}
    .fil8 {fill:#4C331B}
    .fil11 {fill:#B22810}
    .fil13 {fill:#DD1214}
    .fil14 {fill:#E5FEFE}
    .fil15 {fill:#EA2E13}
    .fil9 {fill:#F64D14}
    .fil16 {fill:#FDFEFE}
    .fil7 {fill:#FF3713}
    .fil5 {fill:#FF6D13}
    .fil6 {fill:#FFA30E}
    .fil4 {fill:#FFD109}
    .fil10 {fill:#FFE804}
    .fil2 {fill:url(#id0)}
    .fil0 {fill:url(#id1)}
   ]]>
  </style>
  <linearGradient id="id0" gradientUnits="userSpaceOnUse" x1="124.78" y1="165.99" x2="-5.37" y2="167.73">
   <stop offset="0" style="stop-opacity:1; stop-color:#FDFFFF"/>
   <stop offset="1" style="stop-opacity:1; stop-color:#C4C4C4"/>
  </linearGradient>
  <linearGradient id="id1" gradientUnits="userSpaceOnUse" x1="99.95" y1="-0.03" x2="99.95" y2="199.97">
   <stop offset="0" style="stop-opacity:1; stop-color:#211F9C"/>
   <stop offset="1" style="stop-opacity:1; stop-color:#1C1A7D"/>
  </linearGradient>
 </defs>
 <g id="Camada_x0020_1">
  <metadata id="CorelCorpID_0Corel-Layer"/>
  <circle class="fil0" cx="100" cy="100" r="100"/>
  <rect class="fil1" x="15.62" y="15.79" width="168.76" height="168.42"/>
  <path class="fil2" d="M103.29 151.2c-0.2,0.19 0.18,-0.1 -0.37,0.32l-2.11 1.01c-6.44,4.03 -26.96,5.3 -35.32,5.17 -6.5,-0.1 -12.65,-0.47 -18.86,-1.41 -4.24,-0.65 -13.09,-2.44 -15.77,-4.22 -1.16,-0.17 -3.22,-1.66 -3.95,-2.31 -1.28,-1.15 -1.92,-2.17 -1.41,-4.46 -1.46,0.03 -5.21,1.33 -6.51,1.77 -2.03,0.68 -4.24,1.4 -6.04,2.27 -0.93,0.45 -1.79,0.77 -2.77,1.27l-2.71 1.55c-3.45,2.28 -6.72,5.07 -7.31,8.5l0 2.21c0.24,1.47 0.99,3.04 2.4,4.72 1.35,1.62 2.75,2.6 4.51,3.79 0.95,0.63 1.73,0.97 2.7,1.57 6.74,4.12 21.76,7.13 29.35,8.35 6.89,1.11 14.59,1.74 22.51,1.92l10.03 0c10.46,-0.23 20.85,-1.2 29.85,-2.82 8.77,-1.57 25.09,-5.53 31.18,-12.81 1.44,-1.72 2.19,-3.35 2.4,-4.9l0 -1.87c-1.16,-8.22 -17.32,-13.64 -23.84,-15.25l-7.01 -1.62c0.32,0.5 0.36,0.47 0.76,0.91 0.34,0.37 0.48,0.55 0.67,0.9 1.29,2.28 -0.53,4.42 -2.38,5.44z"/>
  <path class="fil3" d="M48.88 99.56c-0.04,0.04 -0.06,0.07 -0.07,0.14 -0.01,0.09 -0.05,0.12 -0.06,0.16l-1.45 7.37c0.67,1.32 -0.38,0.85 1.33,3.06 0.26,0.35 0.11,0.05 0.23,0.35 3.29,2.26 6.01,3.68 10.83,4.52l1.48 0.21 7.47 0.04c3.67,-0.38 5.54,-1.11 8.76,-2.08 0.57,-0.39 2.17,-0.98 2.93,-1.44 0.97,-0.59 1.89,-1.44 2.65,-1.82l0.47 -0.41 -2.24 -10.11c-0.52,-0.16 -0.56,0.09 -1.24,0.52 -0.37,0.23 -0.83,0.47 -1.33,0.7 -1.04,0.47 -1.82,0.66 -3.02,0.97l-4.58 0.69 -4.37 0.27 -5.5 -0.77c-1.51,0.2 -4.48,-0.95 -5.74,-1.55 -1.76,-0.86 -3.4,-1.83 -4.32,-3.09l-1.11 -0.92c-0.63,0.89 -0.52,2.15 -1.12,3.19z"/>
  <path class="fil3" d="M84.61 121.74c-1.53,1.39 -4.86,2.52 -7.12,3.44 -2.16,0.49 -13.78,3.17 -15.4,1.84 -2.97,0.25 -9.45,-2.26 -11.76,-3.35l-0.33 -0.08c1.56,2.02 5.46,1.96 7.28,3.7 -0.99,1.57 -7.5,2.77 -7.93,3 -0.76,2.89 1.69,2.21 2.23,4.03l-1.94 -0.14c0.58,0.81 1.23,0.69 1.71,1.25 1.01,0.29 1.92,0.75 2.94,1.1 1,0.35 2.04,0.57 3.03,0.91 6.24,1.15 9.08,0.77 15.39,0.23l0.71 0.07c0.71,-0.48 2.76,-0.59 3.81,-0.9 1.2,-0.36 2.41,-0.8 3.44,-1.29 1.37,-0.65 5.09,-2.74 5.81,-3.61l0.44 -0.22c0.36,-0.77 0.56,-0.82 0.67,-1.99 -1.63,1.47 0.77,0.47 -4.03,3.13 -1.56,0.87 -2.87,1.69 -4.52,2.44 -2.3,1.06 -8.63,2.7 -11.45,1.83 1.63,-0.87 4.01,-1.3 5.87,-2.26 1.04,-0.53 1.89,-1.04 2.59,-1.68 3.39,-3.04 4.77,-5.53 6.07,-6.51 0.85,-0.64 1.47,-1.07 2.01,-2.22 0.41,-0.89 1.1,-2.25 1.35,-3.06l-0.87 0.34z"/>
  <path class="fil4" d="M31.02 149.63c0.93,1.33 5.63,2.67 7.67,2.94 -0.32,-0.02 -0.18,-0.05 -0.58,0.07 -0.69,0.21 -0.27,0.09 -0.52,0.26 0.99,0.32 2.06,0.62 3.1,0.82 0.63,0.13 1.12,0.2 1.71,0.28 0.77,0.11 1.08,0.08 1.54,0.46 3.02,0.14 13.14,1.31 15.41,0.65 1.26,-0.3 6.51,0.06 8.39,0.01 2.73,-0.07 5.56,-0.28 8.3,-0.28 4.99,0.02 11.61,0.35 16.02,-0.98l0.06 -0.71 -1.13 -0.32c-0.43,0.34 -0.91,0.27 -1.65,0.22 -0.52,-0.03 -0.96,-0.1 -1.49,-0.1 -4.15,-0.2 -7.56,-1.92 -11.04,-3.29 -5,-1.95 -4.42,0.45 -10.92,1.85 -4.06,0.87 -8.2,1.28 -12.3,1.52 -3.46,0.2 -7.08,0.3 -10.56,0.12 -1.71,-0.09 -2.69,0.12 -2.75,-0.67 -0.05,-0.78 0.64,-0.71 2.12,-0.89 3.33,-0.42 13.6,-0.29 15.12,-4.49 -0.84,-1.1 -6.18,-2.91 -7.38,-3.73 -0.29,-0.19 -0.22,-0.15 -0.41,-0.35 -1.33,-0.38 -2.95,-1.28 -3.98,-1.98 -2.01,-1.37 -1.6,-2.35 -2.62,-3.28 -0.52,3.53 3.93,5.04 4.47,5.75 -1.85,4.28 -12.53,0.86 -14.51,4.44 -0.54,0.97 -0.57,1.89 -2.07,1.68z"/>
  <path class="fil3" d="M52.47 78.85c-0.54,1.2 -0.63,3.13 -0.87,4.55 -0.2,1.19 -0.8,3.61 -0.58,4.68 0.21,0.92 0.89,1.2 1.48,1.67 1.3,1.12 2.01,1.9 3.91,2.69 1.59,0.66 3.45,0.99 5.28,1.26l5.76 0.18 4.45 -0.71 2.59 -0.6c1.58,-1.12 2.97,-0.83 4.39,-2.47l-0.78 -4.13 -1.7 -7.01c-1.16,0.46 -2.04,1.28 -3.36,1.7 -1.98,0.96 -4.12,1.4 -6.63,1.53l-2.79 0.14 -0.65 0.12c2.41,0.37 3.79,0.87 6.38,0.44 1.15,-0.19 0.75,0.31 1.97,-0.18 0.94,-0.37 1.61,-0.79 2.71,-0.9 -0.4,1.02 -0.8,1.39 -1.78,1.86l1.21 0.28c0.05,0.02 0.13,0.05 0.19,0.1 -0.92,0.27 -2.37,0.75 -3.41,1.11 0.78,0.59 1.7,0.54 2.83,0.52 -0.69,1.53 -2.66,0.92 -3.96,1.67l2.25 0.67c0.91,0.42 0.42,0.19 0.64,0.51 -1.22,0.96 -2.21,0.35 -3.32,0.89 0.97,0.79 2.14,0.72 3.5,0.99 -2.76,1.12 -6.24,1.71 -9.49,1.12 -2.85,-0.51 -6.55,-1.47 -7.96,-3.24 3.31,0.19 6.78,1.47 10.21,0.56 -1.34,-0.77 -2.12,-0.71 -2.96,-1.81 1.55,-0.27 2.68,0.24 4.32,-0.2 -1.29,-0.28 -2.79,-0.63 -3.1,-1.85l2.94 -0.24c-1.65,-1.24 -1.14,0.06 -3.81,-2.28l-0.42 -0.33c-0.04,-0.03 -0.1,-0.07 -0.16,-0.11 -1.37,-0.11 -5.57,-0.98 -6.64,-2.11 -0.54,-0.03 -0.87,-0.19 -1.16,-0.55 -0.98,-0.43 -0.76,-0.78 -1.48,-0.52z"/>
  <path class="fil3" d="M54.84 66.31c-0.09,1.73 0.1,2.4 0.61,3.65 0.42,0.16 1.07,0.68 1.75,1.02 1.93,0.47 3.23,0.78 5.37,0.97l3.03 -0.07 5.81 -1.32 3.18 -1.08 0 -1.82c0.22,-1.22 -0.12,-3.43 -0.35,-4.48 -0.49,-2.22 -1.31,-2.41 -1.57,-3.38l-5.83 -0.22 -0.21 0 -0.79 0c-2.83,0 -8.9,0.12 -10.08,1.5 -0.67,0.79 -0.5,1.23 -0.66,2.47 -0.1,0.79 -0.46,1.81 -0.26,2.76z"/>
  <path class="fil5" d="M42.94 136.64l0.19 1.12c1.02,0.93 0.61,1.91 2.62,3.28 1.03,0.7 2.65,1.6 3.98,1.98 6.08,1.43 11.11,2.5 17.57,1.92 2.07,-0.19 4.02,-0.78 5.82,-0.95 0.78,1.61 1.67,1.95 2.93,2.87 2.56,1.88 3.99,3.17 7.16,4.51 0.66,0.28 1.4,0.54 2.15,0.77 1.87,0.56 1.15,0.18 2.31,0.71 0.05,0.02 0.12,0.06 0.18,0.1 0.53,0 0.97,0.07 1.49,0.1 0.74,0.05 1.22,0.12 1.65,-0.22l-1.16 -0.08c4.4,-3.61 1.75,-7.97 -1.65,-9.93 -1.62,-0.92 -3.16,-0.73 -4.26,-1.33 -0.14,-1.87 1.09,-1.34 0.34,-2.02 -1.17,1.12 -7.4,3.8 -9.49,3.81 -1.31,0.74 -3.99,0.73 -5.75,0.61l0.47 -0.34c-0.31,-0.29 -0.44,-0.28 -1.28,-0.3 -0.51,-0.01 -1.08,0.02 -1.6,0.02 -4.02,-0.01 -4.93,-0.21 -8.66,-0.42 -1.71,0.57 -9.19,-1.5 -10.66,-2.05 -1.85,-0.7 -2.69,-1.5 -2.87,-3.79 -0.13,-1.72 -0.09,-4.76 0.24,-6.35l-0.49 -1.83c-0.97,1.62 -1.35,5.63 -1.23,7.81z"/>
  <path class="fil6" d="M87.85 152.95c-0.06,-0.04 -0.13,-0.08 -0.18,-0.1 -1.16,-0.53 -0.44,-0.15 -2.31,-0.71 -0.75,-0.23 -1.49,-0.49 -2.15,-0.77 -3.17,-1.34 -4.6,-2.63 -7.16,-4.51 -1.26,-0.92 -2.15,-1.26 -2.93,-2.87 -1.8,0.17 -3.75,0.76 -5.82,0.95 -6.46,0.58 -11.49,-0.49 -17.57,-1.92 0.19,0.2 0.12,0.16 0.41,0.35 1.2,0.82 6.54,2.63 7.38,3.73 -1.52,4.2 -11.79,4.07 -15.12,4.49 -1.48,0.18 -2.17,0.11 -2.12,0.89 0.06,0.79 1.04,0.58 2.75,0.67 3.48,0.18 7.1,0.08 10.56,-0.12 4.1,-0.24 8.24,-0.65 12.3,-1.52 6.5,-1.4 5.92,-3.8 10.92,-1.85 3.48,1.37 6.89,3.09 11.04,3.29z"/>
  <path class="fil7" d="M86.48 131.94c0.07,1.7 0.18,2.73 -0.35,4.32l-0.73 1.76c-0.46,0.77 -0.73,0.8 -1.14,1.45 0.75,0.68 -0.48,0.15 -0.34,2.02 1.1,0.6 2.64,0.41 4.26,1.33 3.4,1.96 6.05,6.32 1.65,9.93l1.16 0.08 1.13 0.32c6.46,1.22 15.8,-5.73 7.83,-10.42 -2.72,-1.6 -5.6,-2.24 -8.64,-3.49 -1.56,-0.64 -2.86,-1.39 -3.59,-2.45 -0.8,-1.15 -0.53,-3.31 -0.8,-5.07l-0.44 0.22z"/>
  <path class="fil8" d="M64.65 106c-1.13,0.1 -2.59,0.01 -3.44,0.48 0.28,0.69 0.51,0.73 1.34,1.14 0.24,0.12 0.51,0.22 0.76,0.37 0.91,0.55 0.4,0.07 0.68,0.67 -1.03,0.1 -2.86,-0.32 -3.56,0.06 0.71,1.09 0.71,0.78 1.4,1.43 0.04,0.04 0.09,0.09 0.13,0.13l0.24 0.27c-4.49,0.6 -5.56,0.11 -9.49,-0.89 2.92,4.92 16.32,6.16 21.48,2.58 -1.08,-0.5 -2.07,-0.31 -3.48,-1.1 0.85,-0.46 2.63,-0.37 3.83,-0.76 0.85,-0.28 0.74,-0.27 1.08,-0.82l-3.97 -1.08c1.96,-1.4 3.79,-0.85 5.28,-2.9 -1.19,-0.61 -2.9,0.65 -3.76,0 0.94,-0.78 3.08,-0.84 3.26,-2.39 -2.5,-0.14 -3.49,1.05 -8.25,0.92 -2.77,-0.08 -5.63,-1.53 -8.04,-1.19 0.72,1.54 3.13,1.9 4.51,3.08z"/>
  <path class="fil8" d="M57.68 127.4c0.99,2.14 3.39,1.64 4.87,2.82l-3.14 0.05c0.04,0.89 0.28,1.03 0.87,1.39 1.11,0.68 1.05,0.42 1.07,0.98 -3.27,0.58 -7.4,-1.86 -10.61,-1.41 0.81,2.29 5.31,4.46 8.74,5.03 2.81,0.46 10.08,0.36 11.97,-1.19 -1.24,-0.24 -2.57,-0.28 -3.3,-0.99 1.57,-0.86 6.66,0.11 8.21,-2.55 -2.12,0.09 -3.61,0.59 -5.27,-0.29 0.79,-1.6 6.18,-1.57 6.95,-4.3 -2.67,-0.19 -4.29,1.08 -6.07,1.04 -1.57,-0.03 0,-0.83 -3.38,-0.24 -4.76,0.82 -6.66,-0.22 -10.91,-0.34z"/>
  <path class="fil9" d="M68.64 115.41c-0.69,3.91 -2.55,8.58 -4.24,11.55l-2.33 -0.05 0.02 0.11c1.62,1.33 13.24,-1.35 15.4,-1.84 0.04,-4.05 0.53,-7.77 -0.09,-11.85 -3.22,0.97 -5.09,1.7 -8.76,2.08z"/>
  <path class="fil10" d="M31.02 149.63c1.5,0.21 1.53,-0.71 2.07,-1.68 1.98,-3.58 12.66,-0.16 14.51,-4.44 -0.54,-0.71 -4.99,-2.22 -4.47,-5.75l-0.19 -1.12c-1.92,1.93 -8.07,3.2 -10.91,4.64 -1.47,0.75 -3.33,2.29 -3.79,3.99 -0.53,1.91 1.44,4.13 2.78,4.36z"/>
  <path class="fil11" d="M100.81 152.53c-1.2,0.13 -3.03,0.85 -4.47,1.17 -8.38,1.85 -22.87,1.79 -31.75,1.7 -0.92,-0.01 -4.46,0.13 -5.24,-0.29 -2.27,0.66 -12.39,-0.51 -15.41,-0.65 -2.21,-0.08 -4.78,-0.5 -6.93,-0.9 -1.8,-0.33 -4.81,-1.38 -6.15,-1.49 2.68,1.78 11.53,3.57 15.77,4.22 6.21,0.94 12.36,1.31 18.86,1.41 8.36,0.13 28.88,-1.14 35.32,-5.17z"/>
  <path class="fil6" d="M50.33 123.67c2.31,1.09 8.79,3.6 11.76,3.35l-0.02 -0.11c-0.22,-1.77 -0.58,-3.43 -0.71,-5.38 -0.12,-2.04 -0.2,-3.98 -0.19,-6.16l-1.48 -0.21c-0.57,0.61 -0.81,0.66 -1.69,1.08 -3.27,1.53 -4.45,1.06 -6.99,0.37 -0.39,2.48 0.25,6.02 -0.68,7.06z"/>
  <path class="fil12" d="M87.59 129.73l-0.15 -1.26c0.03,-0.48 -1.07,-6.57 -1.52,-7.09l-0.44 0.02c-0.25,0.81 -0.94,2.17 -1.35,3.06 -0.54,1.15 -1.16,1.58 -2.01,2.22 -1.3,0.98 -2.68,3.47 -6.07,6.51 -0.7,0.64 -1.55,1.15 -2.59,1.68 -1.86,0.96 -4.24,1.39 -5.87,2.26 2.82,0.87 9.15,-0.77 11.45,-1.83 1.65,-0.75 2.96,-1.57 4.52,-2.44 4.8,-2.66 2.4,-1.66 4.03,-3.13z"/>
  <path class="fil4" d="M51.11 97.29c0.92,1.26 2.56,2.23 4.32,3.09 1.26,0.6 4.23,1.75 5.74,1.55 0.56,-0.72 0.84,-7.18 0.52,-8.23 -1.83,-0.27 -3.69,-0.6 -5.28,-1.26 -1.9,-0.79 -2.61,-1.57 -3.91,-2.69 -0.44,0.09 -0.48,-0.4 -0.72,1.6 -0.07,0.62 -0.16,1.25 -0.25,1.92 -0.17,1.3 -0.47,2.68 -0.42,4.02z"/>
  <path class="fil12" d="M44.17 128.83l0.49 1.83 0.41 0.46c0.69,0.64 1.28,1.12 2.14,1.71 0.37,0.25 0.59,0.4 1.06,0.74 0.64,0.46 0.69,0.52 1.37,0.61l1.94 0.14c-0.54,-1.82 -2.99,-1.14 -2.23,-4.03 0.43,-0.23 6.94,-1.43 7.93,-3 -1.82,-1.74 -5.72,-1.68 -7.28,-3.7 -0.46,-0.48 -1.36,-0.9 -1.9,-1.3 -0.26,-0.2 -0.62,-0.52 -0.83,-0.74 -0.59,-0.62 -0.45,-0.29 -0.54,-0.92 -0.05,-0.04 -0.11,-0.1 -0.15,-0.12 -0.03,-0.03 -0.1,-0.09 -0.14,-0.11l-0.71 -0.45 -1.56 8.88z"/>
  <path class="fil6" d="M25.5 145.3c-0.51,2.29 0.13,3.31 1.41,4.46 0.73,0.65 2.79,2.14 3.95,2.31 1.34,0.11 4.35,1.16 6.15,1.49 2.15,0.4 4.72,0.82 6.93,0.9 -0.46,-0.38 -0.77,-0.35 -1.54,-0.46 -0.59,-0.08 -1.08,-0.15 -1.71,-0.28 -1.04,-0.2 -2.11,-0.5 -3.1,-0.82 0.25,-0.17 -0.17,-0.05 0.52,-0.26 0.4,-0.12 0.26,-0.09 0.58,-0.07 -2.04,-0.27 -6.74,-1.61 -7.67,-2.94 -1.34,-0.23 -3.31,-2.45 -2.78,-4.36 0.46,-1.7 2.32,-3.24 3.79,-3.99 2.84,-1.44 8.99,-2.71 10.91,-4.64 -0.12,-2.18 0.26,-6.19 1.23,-7.81l1.56 -8.88 0.71 0.45c0.04,0.02 0.11,0.08 0.14,0.11 0.04,0.02 0.1,0.08 0.15,0.12 0.83,-1.33 1.64,-7.72 2.13,-9.99 -0.12,-0.3 0.03,0 -0.23,-0.35 -1.71,-2.21 -0.66,-1.74 -1.33,-3.06 0,1.29 -1.84,11.21 -2.11,12.62l-2.74 15.88c-0.2,1.01 0.17,0.71 -0.71,1.09 -1.74,0.77 -7.92,1.64 -12.21,4.85 -0.76,0.57 -1.53,1 -2.25,1.57 -0.86,0.69 -1.14,1.21 -1.78,2.06z"/>
  <path class="fil8" d="M63.62 82.33l-0.62 -0.21 -1.25 -0.09c0.06,0.04 0.12,0.08 0.16,0.11l0.42 0.33c2.67,2.34 2.16,1.04 3.81,2.28l-2.94 0.24c0.31,1.22 1.81,1.57 3.1,1.85 -1.64,0.44 -2.77,-0.07 -4.32,0.2 0.84,1.1 1.62,1.04 2.96,1.81 -3.43,0.91 -6.9,-0.37 -10.21,-0.56 1.41,1.77 5.11,2.73 7.96,3.24 3.25,0.59 6.73,0 9.49,-1.12 -1.36,-0.27 -2.53,-0.2 -3.5,-0.99 1.11,-0.54 2.1,0.07 3.32,-0.89 -0.22,-0.32 0.27,-0.09 -0.64,-0.51l-2.25 -0.67c1.3,-0.75 3.27,-0.14 3.96,-1.67 -1.13,0.02 -2.05,0.07 -2.83,-0.52 1.04,-0.36 2.49,-0.84 3.41,-1.11 -0.06,-0.05 -0.14,-0.08 -0.19,-0.1l-1.21 -0.28c0.98,-0.47 1.38,-0.84 1.78,-1.86 -1.1,0.11 -1.77,0.53 -2.71,0.9 -1.22,0.49 -0.82,-0.01 -1.97,0.18 -2.59,0.43 -3.97,-0.07 -6.38,-0.44l0.65 -0.12z"/>
  <path class="fil9" d="M54.25 140.2c1.01,0.54 2.2,1.43 3.39,2.08l-0.67 0.03c-0.2,0.53 -0.21,0.2 -0.01,0.53l0.99 0.01c3.73,0.21 4.64,0.41 8.66,0.42 0.52,0 1.09,-0.03 1.6,-0.02 0.84,0.02 0.97,0.01 1.28,0.3l0.36 -0.36c0.9,-1.1 0.07,-0.41 1.41,-1.52l0.53 -0.46c-0.61,-2.04 0.01,-2.06 0.92,-3.54 -6.31,0.54 -9.15,0.92 -15.39,-0.23 -0.39,0.44 -0.9,0.94 -1.49,1.34 -0.75,0.52 -1.25,0.56 -1.58,1.42z"/>
  <path class="fil13" d="M77.4 113.33c0.62,4.08 0.13,7.8 0.09,11.85 2.26,-0.92 5.59,-2.05 7.12,-3.44 0.02,-1.6 -0.48,-4.24 -0.8,-6 -0.24,-1.32 -0.94,-4.61 -0.83,-5.67 -0.76,0.38 -1.68,1.23 -2.65,1.82 -0.76,0.46 -2.36,1.05 -2.93,1.44z"/>
  <path class="fil4" d="M55.11 79.92c1.07,1.13 5.27,2 6.64,2.11l1.25 0.09c0.19,-3.39 0.85,-6.68 1.65,-9.82 -0.47,0.04 -0.73,0.11 -1.2,0.02 -1.55,-0.29 -0.27,0.03 -0.88,-0.37 -2.14,-0.19 -3.44,-0.5 -5.37,-0.97l-2.09 8.94z"/>
  <path class="fil14" d="M66.16 164.64c1.92,0 10.14,-0.03 10.14,-2.73 -0.33,-1.28 -1.6,-1.71 -2.9,-2.09 -3.96,-1.14 -14.42,-0.91 -14.42,2.09 0,1.82 5,2.73 7.18,2.73z"/>
  <path class="fil6" d="M87.59 129.73c-0.11,1.17 -0.31,1.22 -0.67,1.99 0.27,1.76 0,3.92 0.8,5.07 0.73,1.06 2.03,1.81 3.59,2.45 3.04,1.25 5.92,1.89 8.64,3.49 7.97,4.69 -1.37,11.64 -7.83,10.42l-0.06 0.71c-4.41,1.33 -11.03,1 -16.02,0.98 -2.74,0 -5.57,0.21 -8.3,0.28 -1.88,0.05 -7.13,-0.31 -8.39,-0.01 0.78,0.42 4.32,0.28 5.24,0.29 8.88,0.09 23.37,0.15 31.75,-1.7 1.44,-0.32 3.27,-1.04 4.47,-1.17l2.11 -1.01c0.55,-0.42 0.17,-0.13 0.37,-0.32 0.89,-1.42 3.98,-2.96 -0.24,-7.92 -2.48,-2.65 -9.8,-5.19 -13.54,-6.06l-1.44 -6.64c-0.13,-0.6 -0.26,-1.64 -0.63,-2.11l0.15 1.26z"/>
  <path class="fil13" d="M73.42 137.74l0.84 -0.21c-0.5,1.84 -1.93,2.44 -2.23,3.8 2.21,0.4 3.7,0.27 5.82,-0.25 0.47,-0.11 1.13,-0.35 1.65,-0.38 -1.06,0.34 -2.23,1.43 -5.53,2.3 0.4,0.3 -0.07,0.19 0.8,0.28 2.09,-0.01 8.32,-2.69 9.49,-3.81 0.41,-0.65 0.68,-0.68 1.14,-1.45l0.73 -1.76c0.53,-1.59 0.42,-2.62 0.35,-4.32 -0.72,0.87 -4.44,2.96 -5.81,3.61 -1.03,0.49 -2.24,0.93 -3.44,1.29 -1.05,0.31 -3.1,0.42 -3.81,0.9z"/>
  <path class="fil5" d="M65.6 71.88l1.64 10 -0.83 0.31c2.51,-0.13 4.65,-0.57 6.63,-1.53 -0.04,-3.33 -1.3,-6.69 -1.63,-10.1l-5.81 1.32z"/>
  <path class="fil5" d="M62.07 126.91l2.33 0.05c1.69,-2.97 3.55,-7.64 4.24,-11.55l-7.47 -0.04c-0.01,2.18 0.07,4.12 0.19,6.16 0.13,1.95 0.49,3.61 0.71,5.38z"/>
  <path class="fil4" d="M46.73 120.63c0.09,0.63 -0.05,0.3 0.54,0.92 0.21,0.22 0.57,0.54 0.83,0.74 0.54,0.4 1.44,0.82 1.9,1.3l0.33 0.08c0.93,-1.04 0.29,-4.58 0.68,-7.06 2.54,0.69 3.72,1.16 6.99,-0.37 0.88,-0.42 1.12,-0.47 1.69,-1.08 -4.82,-0.84 -7.54,-2.26 -10.83,-4.52 -0.49,2.27 -1.3,8.66 -2.13,9.99z"/>
  <path class="fil15" d="M74.49 92.57c0.53,-0.06 0.34,-0.31 0.61,1.83 0.1,0.81 0.21,1.57 0.32,2.37 0.21,1.53 0.5,3.01 0.66,4.55l-0.46 0.42c1.2,-0.31 1.98,-0.5 3.02,-0.97 0.5,-0.23 0.96,-0.47 1.33,-0.7 0.68,-0.43 0.72,-0.68 1.24,-0.52 0,-1.24 -1.71,-8.51 -2.11,-10.26l-0.52 -2.63c-0.28,-0.82 0.12,-0.38 -0.48,-0.69l0.78 4.13c-1.42,1.64 -2.81,1.35 -4.39,2.47z"/>
  <path class="fil4" d="M56.97 142.31l0.67 -0.03c-1.19,-0.65 -2.38,-1.54 -3.39,-2.08 -0.56,-0.76 -1.25,-1.19 -1.82,-2.04 -0.51,-0.78 -0.77,-1.77 -1.08,-2.73 -0.48,-0.56 -1.13,-0.44 -1.71,-1.25 -0.68,-0.09 -0.73,-0.15 -1.37,-0.61 -0.47,-0.34 -0.69,-0.49 -1.06,-0.74 -0.86,-0.59 -1.45,-1.07 -2.14,-1.71 -1.12,0.64 0.03,4.05 0.41,5.02 0.78,2.03 0.81,1.7 1.68,2.57 0.47,0.46 0.23,0.39 0.76,0.8 0.96,0.74 4.77,2.2 6.22,2.52 1.11,0.24 1.79,0.06 2.83,0.28z"/>
  <path class="fil6" d="M61.17 101.93l5.5 0.77c0.37,-2.59 0.68,-3.67 0.92,-6.55 0.03,-0.33 0.11,-0.93 0.11,-1.22 -0.01,-1.11 0.09,-0.52 -0.25,-1.05l-5.76 -0.18c0.32,1.05 0.04,7.51 -0.52,8.23z"/>
  <path class="fil15" d="M71.41 70.56c0.33,3.41 1.59,6.77 1.63,10.1 1.32,-0.42 2.2,-1.24 3.36,-1.7l1.7 7.01c0.33,-1.27 -2.32,-13.75 -3.03,-17.11l-0.48 -1.2 0 1.82 -3.18 1.08z"/>
  <path class="fil8" d="M68.63 64.26c-0.43,-0.17 -0.91,-1.09 -1.69,-1.68 -1.42,-1.07 -1.78,-0.89 -2.12,-1.62 -1.53,-0.06 -2.92,0.27 -4,0.87 1.23,1.11 4.06,0.15 5.02,1.56 -1.17,0.63 -2.53,-0.1 -3.27,1.35 0.65,1.13 2.28,0.82 3.56,1.57 -0.16,0.24 -0.01,0.1 -0.3,0.35 -0.03,0.02 -0.45,0.3 -0.53,0.35 -0.35,0.17 -0.79,0.29 -1.18,0.39l-2.19 0.82c-0.03,0.02 -0.1,0.07 -0.14,0.11 0.04,0.04 0.12,0.03 0.14,0.11 0.33,0.97 5.54,0.88 7.29,0.49l1.03 -0.41c-0.95,-0.4 -1.85,-0.56 -2.37,-1.34 1.15,-0.11 2.27,-0.16 2.72,-1.1 -0.42,-0.47 -1.68,-1.1 -2.47,-1.32 0.24,-0.8 -0.06,-0.08 0.5,-0.5z"/>
  <path class="fil5" d="M67.45 93.88c0.34,0.53 0.24,-0.06 0.25,1.05 0,0.29 -0.08,0.89 -0.11,1.22 -0.24,2.88 -0.55,3.96 -0.92,6.55l4.37 -0.27 0.86 -9.26 -4.45 0.71z"/>
  <path class="fil9" d="M71.9 93.17l-0.86 9.26 4.58 -0.69 0.46 -0.42c-0.16,-1.54 -0.45,-3.02 -0.66,-4.55 -0.11,-0.8 -0.22,-1.56 -0.32,-2.37 -0.27,-2.14 -0.08,-1.89 -0.61,-1.83l-2.59 0.6z"/>
  <path class="fil6" d="M63 82.12l0.62 0.21 2.79 -0.14 0.83 -0.31 -1.64 -10 -3.03 0.07c0.61,0.4 -0.67,0.08 0.88,0.37 0.47,0.09 0.73,0.02 1.2,-0.02 -0.8,3.14 -1.46,6.43 -1.65,9.82z"/>
  <path class="fil6" d="M57.95 142.85l-0.99 -0.01c-0.2,-0.33 -0.19,0 0.01,-0.53 -1.04,-0.22 -1.72,-0.04 -2.83,-0.28 -1.45,-0.32 -5.26,-1.78 -6.22,-2.52 -0.53,-0.41 -0.29,-0.34 -0.76,-0.8 -0.87,-0.87 -0.9,-0.54 -1.68,-2.57 -0.38,-0.97 -1.53,-4.38 -0.41,-5.02l-0.41 -0.46c-0.33,1.59 -0.37,4.63 -0.24,6.35 0.18,2.29 1.02,3.09 2.87,3.79 1.47,0.55 8.95,2.62 10.66,2.05z"/>
  <path class="fil15" d="M69.49 143.55l-0.47 0.34c1.76,0.12 4.44,0.13 5.75,-0.61 -0.87,-0.09 -0.4,0.02 -0.8,-0.28 3.3,-0.87 4.47,-1.96 5.53,-2.3 -0.52,0.03 -1.18,0.27 -1.65,0.38 -2.12,0.52 -3.61,0.65 -5.82,0.25 0.3,-1.36 1.73,-1.96 2.23,-3.8l-0.84 0.21 -0.71 -0.07c-0.91,1.48 -1.53,1.5 -0.92,3.54l-0.53 0.46c-1.34,1.11 -0.51,0.42 -1.41,1.52l-0.36 0.36z"/>
  <path class="fil6" d="M52.47 78.85c0.72,-0.26 0.5,0.09 1.48,0.52l1.5 -9.41c-0.51,-1.25 -0.7,-1.92 -0.61,-3.65 -0.51,0.51 -2.37,11.61 -2.37,12.54z"/>
  <path class="fil10" d="M53.95 79.37c0.29,0.36 0.62,0.52 1.16,0.55l2.09 -8.94c-0.68,-0.34 -1.33,-0.86 -1.75,-1.02l-1.5 9.41z"/>
  <path class="fil8" d="M64.82 60.96c0.34,0.73 0.7,0.55 2.12,1.62 0.78,0.59 1.26,1.51 1.69,1.68 0.02,-0.12 -0.67,-0.34 1.56,-0.52 0.77,-0.07 1.12,-0.09 1.9,-0.26 -0.5,-0.17 -1.21,-0.68 -1.95,-0.94 0.29,-0.27 0.04,-0.14 0.48,-0.33 0.66,-0.31 1.39,-0.22 2.08,-0.14 -0.97,-1.78 -5.48,-1.07 -7.88,-1.11z"/>
  <path class="fil6" d="M48.88 99.56c0.6,-1.04 0.49,-2.3 1.12,-3.19l1.11 0.92c-0.05,-1.34 0.25,-2.72 0.42,-4.02 0.09,-0.67 0.18,-1.3 0.25,-1.92 0.24,-2 0.28,-1.51 0.72,-1.6 -0.59,-0.47 -1.27,-0.75 -1.48,-1.67 -0.51,0.52 -0.02,-0.21 -0.28,0.49l-1.86 10.99z"/>
  <path class="fil6" d="M54.25 140.2c0.33,-0.86 0.83,-0.9 1.58,-1.42 0.59,-0.4 1.1,-0.9 1.49,-1.34 -0.99,-0.34 -2.03,-0.56 -3.03,-0.91 -1.02,-0.35 -1.93,-0.81 -2.94,-1.1 0.31,0.96 0.57,1.95 1.08,2.73 0.57,0.85 1.26,1.28 1.82,2.04z"/>
  <path class="fil6" d="M82.98 110.07c-0.11,1.06 0.59,4.35 0.83,5.67 0.32,1.76 0.82,4.4 0.8,6l0.87 -0.34 0.44 -0.02c0,-1.07 -2.17,-11.16 -2.47,-11.72l-0.47 0.41z"/>
  <path class="fil11" d="M103.29 151.2c1.85,-1.02 3.67,-3.16 2.38,-5.44 -0.19,-0.35 -0.33,-0.53 -0.67,-0.9 -0.4,-0.44 -0.44,-0.41 -0.76,-0.91 -0.35,-0.24 -0.74,-0.53 -1.19,-0.67 4.22,4.96 1.13,6.5 0.24,7.92z"/>
  <path class="fil16" d="M111.34 88.19l14.22 0 0 0.94 0.47 0 0 1.43 0.47 0 0 1.42 0.48 0 0 1.42 0.47 0 0 1.89 0.48 0 0 0.95 0.47 0 0 1.42 0.47 0 0 1.42 0.48 0 0 1.43 0.47 0 0 1.89 18.01 0 0 -1.42 0.47 0 0 -2.37 0.48 0 0 -0.95 0.47 0 0 -0.94 0.47 0 0 -2.37 0.48 0 0 -1.42 0.47 0 0 -1.43 0.47 0 0 -1.42 0.48 0 0 -1.42 0.47 0 0 -0.47 14.22 0 0 -12.32 -13.27 0 0 0.94 -0.47 0 0 1.43 -0.48 0 0 1.42 -0.47 0 0 1.89 -0.48 0 0 1.42 -0.47 0 0 1.43 -0.47 0 0 1.42 -0.48 0 0 1.42 -0.47 0 0 0.95 -0.47 0 0 1.42 -19.91 0 0 -0.48 -0.47 0 0 -1.42 -0.47 0 0 -1.89 -0.48 0 0 -1.42 -0.47 0 0 -0.95 -0.48 0 0 -1.9 -0.47 0 0 -1.89 -0.47 0 0 -0.48 -0.48 0 0 -1.89 -0.47 0 0 -1.42 -13.27 0 0 12.32zm48.81 22.27l0 -1.9 3.31 0 0.48 0 0 1.42 -0.48 0 0 0.48 -3.31 0zm-29.85 -2.37l2.84 0 0 8.53 1.89 0 0 -8.53 2.85 0 0 -1.42 -7.58 0 0 1.42zm-16.59 -0.95l-0.47 0 0 0.47 -0.95 0 0 0.95 -0.47 0 0 1.42 -0.48 0 0 3.79 0.48 0 0 0.95 0.47 0 0 0.48 0.47 0 0 0.47 0.48 0 0 0.47 0.95 0 0 0.48 3.31 0 0 -0.48 0.95 0 0 -0.47 0.47 0 0 -0.47 0.48 0 0 -0.95 0.47 0 0 -0.95 -1.89 0 0 0.47 -0.48 0 0 0.48 -0.47 0 0 0.47 -2.84 0 0 -0.47 -0.48 0 0 -0.95 -0.47 0 0 -3.32 0.47 0 0 -0.94 0.48 0 0 -0.48 0.47 0 0 -0.47 1.89 0 0 0.47 0.95 0 0 0.95 2.37 0 0 -0.95 -0.47 0 0 -0.95 -0.48 0 0 -0.47 -0.94 0 0 -0.47 -4.27 0 0 0.47zm36.01 0l-0.47 0 0 0.47 -0.47 0 0 3.32 0.47 0 0 0.47 0.95 0 0 0.48 0.94 0 0 0.47 1.9 0 0 0.48 0.95 0 0 1.89 -0.48 0 0 0.48 -1.89 0 0 -0.48 -0.95 0 0 -0.47 -0.47 0 0 -0.95 -1.9 0 0 1.42 0.48 0 0 0.95 0.47 0 0 0.47 0.95 0 0 0.48 4.26 0 0 -0.48 0.47 0 0 -0.47 0.48 0 0 -0.47 0.47 0 0 -0.48 0.48 0 0 -2.37 -0.48 0 0 -0.47 -0.47 0 0 -0.48 -0.48 0 0 -0.47 -1.42 0 0 -0.47 -0.94 0 0 -0.48 -1.9 0 0 -1.42 0.47 0 0 -0.47 1.9 0 0 0.47 0.47 0 0 0.48 0.48 0 0 0.47 1.89 0 0 -1.42 -0.47 0 0 -0.48 -0.48 0 0 -0.47 -0.47 0 0 -0.47 -4.74 0 0 0.47zm-27.95 9.48l7.58 0 0 -1.9 -5.69 0 0 -2.37 5.21 0 0 -1.89 -5.21 0 0 -2.37 5.21 0 0 -1.42 -7.1 0 0 9.95zm17.53 0l7.58 0 0 -1.9 -5.69 0 0 -2.37 5.22 0 0 -1.89 -5.22 0 0 -2.37 5.69 0 0 -1.42 -7.58 0 0 9.95zm20.85 -4.27l3.79 0 0 2.37 -3.79 0 0 -2.37zm-2.37 4.27l6.63 0 0 -0.48 0.95 0 0 -0.47 0.47 0 0 -0.95 0.48 0 0 -1.89 -0.48 0 0 -0.95 -0.47 0 0 -0.48 -0.95 0 0 -0.47 0.95 0 0 -0.95 0.47 0 0 -1.89 -0.47 0 0 -0.48 -0.47 0 0 -0.47 -0.48 0 0 -0.47 -6.63 0 0 9.95zm-46.44 -42.17l14.22 0 0 0.94 0.47 0 0 1.42 0.47 0 0 1.43 0.48 0 0 1.89 0.47 0 0 1.42 0.48 0 0 1.42 0.47 0 0 1.43 0.47 0 0 1.42 0.48 0 0 0.95 0.47 0 0 1.42 18.01 0 0 -1.42 0.47 0 0 -1.9 0.48 0 0 -0.95 0.47 0 0 -1.89 0.47 0 0 -1.43 0.48 0 0 -1.42 0.47 0 0 -1.42 0.47 0 0 -1.42 0.48 0 0 -1.42 0.47 0 0 -0.47 14.22 0 0 -12.32 -13.27 0 0 0.94 -0.47 0 0 1.42 -0.48 0 0 0.95 -0.47 0 0 1.9 -0.48 0 0 1.42 -0.47 0 0 1.42 -0.47 0 0 1.9 -0.48 0 0 0.47 -0.47 0 0 1.9 -0.47 0 0 1.42 -19.91 0 0 -0.95 -0.47 0 0 -1.9 -0.47 0 0 -0.94 -0.48 0 0 -1.42 -0.47 0 0 -1.43 -0.48 0 0 -1.89 -0.47 0 0 -1.42 -0.47 0 0 -0.95 -0.48 0 0 -1.42 -0.47 0 0 -1.42 -13.27 0 0 12.32zm0 -13.75l14.22 0 0 1.43 0.47 0 0 1.42 0.47 0 0 0.94 0.48 0 0 1.43 0.47 0 0 1.42 0.48 0 0 1.89 0.47 0 0 0.95 0.47 0 0 1.9 0.48 0 0 0.94 0.47 0 0 1.43 18.01 0 0 -0.95 0.47 0 0 -1.9 0.48 0 0 -1.89 0.47 0 0 -0.95 0.47 0 0 -0.95 0.48 0 0 -2.37 0.47 0 0 -0.95 0.47 0 0 -1.42 0.48 0 0 -1.89 0.47 0 0 -0.48 14.22 0 0 -11.37 0.47 0 0 -0.95 -13.74 0 0 1.43 -0.47 0 0 0.94 -0.48 0 0 1.9 -0.47 0 0 0.95 -0.48 0 0 0.94 -0.47 0 0 2.37 -0.47 0 0 1.43 -0.48 0 0 0.94 -0.47 0 0 1.9 -0.47 0 0 0.95 -19.91 0 0 -1.43 -0.47 0 0 -1.42 -0.47 0 0 -0.94 -0.48 0 0 -1.43 -0.47 0 0 -1.89 -0.48 0 0 -1.42 -0.47 0 0 -1.43 -0.47 0 0 -0.94 -0.48 0 0 -1.42 -0.47 0 0 -1.43 -13.27 0 0 12.32z"/>
 </g>
</svg>
