<?xml version="1.0" encoding="UTF-8"?>
<!DOCTYPE svg PUBLIC "-//W3C//DTD SVG 1.1//EN" "http://www.w3.org/Graphics/SVG/1.1/DTD/svg11.dtd">
<!-- Creator: CorelDRAW -->
<svg xmlns="http://www.w3.org/2000/svg" xml:space="preserve" width="200px" height="200px" version="1.1" style="shape-rendering:geometricPrecision; text-rendering:geometricPrecision; image-rendering:optimizeQuality; fill-rule:evenodd; clip-rule:evenodd"
viewBox="0 0 200 200"
 xmlns:xlink="http://www.w3.org/1999/xlink"
 xmlns:xodm="http://www.corel.com/coreldraw/odm/2003">
 <defs>
  <style type="text/css">
   <![CDATA[
    .fil7 {fill:#0B0A0D}
    .fil6 {fill:#292122}
    .fil35 {fill:#5A1921}
    .fil11 {fill:#615551}
    .fil5 {fill:#790E1E}
    .fil28 {fill:#851320}
    .fil3 {fill:#9D0A1C}
    .fil10 {fill:#A0948B}
    .fil27 {fill:#A11121}
    .fil18 {fill:#A30A1B}
    .fil25 {fill:#BA2515}
    .fil30 {fill:#C1151F}
    .fil1 {fill:#CB0E1B}
    .fil15 {fill:#D50D18}
    .fil21 {fill:#E33D14}
    .fil33 {fill:#EA5D1A}
    .fil29 {fill:#F2151A}
    .fil14 {fill:#FA0D14}
    .fil2 {fill:#FE0B14}
    .fil26 {fill:#FE7D10}
    .fil22 {fill:#FE9B0E}
    .fil8 {fill:#FEC50B}
    .fil17 {fill:#FEE51C}
    .fil24 {fill:#FF3213}
    .fil9 {fill:#FF3C11}
    .fil31 {fill:#FF5619}
    .fil4 {fill:#FF630E}
    .fil20 {fill:#FF6411}
    .fil32 {fill:#FF7419}
    .fil12 {fill:#FF8110}
    .fil34 {fill:#FFA416}
    .fil19 {fill:#FFCC06}
    .fil36 {fill:#FFCF13}
    .fil16 {fill:#FFF36A}
    .fil23 {fill:#FFFF3E}
    .fil13 {fill:#FFFF8E}
    .fil0 {fill:url(#id0)}
   ]]>
  </style>
  <linearGradient id="id0" gradientUnits="userSpaceOnUse" x1="99.96" y1="-0.03" x2="99.96" y2="192.5">
   <stop offset="0" style="stop-opacity:1; stop-color:#211F9C"/>
   <stop offset="1" style="stop-opacity:1; stop-color:#1C1A7D"/>
  </linearGradient>
 </defs>
 <g id="Camada_x0020_1">
  <metadata id="CorelCorpID_0Corel-Layer"/>
  <circle class="fil0" cx="100" cy="96.27" r="96.27"/>
  <g id="_2402057465104">
   <path class="fil1" d="M151.94 41.58c-0.55,0.17 -2.51,0.29 -3.15,0.29l-0.08 -0.17 -0.41 0.17c-0.28,0.09 -0.17,0.05 -0.4,0.12 -0.69,0.19 -1.61,0.41 -2.11,0.94 0.55,-0.14 0.96,-0.28 1.5,-0.39l1.31 -0.13c0.42,0.07 0.24,0.04 0.42,0.13 -0.06,1.57 -2.96,1.45 -5.41,5.56 -1.4,2.36 -1.69,5.67 -2.19,8.84 -1.1,6.93 -0.93,13.92 -0.66,21.16l-0.02 0.13c0.73,0.58 1.4,1.27 2.34,1.87 0.93,0.59 1.84,0.98 2.99,1.48 -0.43,-1.64 -1.02,-3.06 -1.37,-4.95 -1.58,-8.5 -0.08,-18.89 3.13,-26.67 1.61,-3.92 3.37,-5.17 4.95,-7.44l2.77 0c1.74,1.9 3.44,7.27 4.26,10.63 1.06,4.38 1.32,9.17 0.89,13.86 -0.43,4.59 -1.77,8.28 -3.86,11.24 -2.25,3.16 -5.59,4.65 -10.72,3.27 2.68,8 10.6,10.94 16.3,7.84 2.59,-1.41 3.08,-2.92 3.91,-4.89 0.39,2.99 -0.48,10.84 -0.75,14.74 -0.14,2.11 -0.31,2.72 -2.3,3.08 -1.58,0.28 -3.65,0.11 -5.28,0.07 -1.68,-0.04 -3.22,0.28 -5.19,0.21 -1.74,-0.07 -3.38,-0.39 -5.03,-0.4 -1.66,-0.01 -3.35,0.07 -4.99,0.02 1.78,1.37 12.4,1.5 15.38,1.39 2.37,-0.09 5.18,-0.47 6.81,-1.59 1.79,-1.23 2.17,-3.4 2.23,-6.14 0.26,-11.11 -0.35,-22.42 0.03,-33.45 -0.03,-1.11 -0.12,-2.61 -0.26,-3.71 -0.16,-1.42 -0.32,-1.88 -1.18,-2.5 -1.17,-0.83 -1.48,-0.48 -1.26,-2.25 0.15,-1.2 0.09,-2.38 -0.17,-3.51 -1.42,-6.13 -5.53,-7.1 -6.81,-8.22 -1.94,-0.49 -0.6,-0.96 -1.14,-3.46 -0.13,-0.63 -0.19,-0.79 -0.76,-0.9 -0.85,0.63 -0.05,1.28 -1.16,2.69 -0.9,1.15 -0.97,0.89 -2.56,1.04z"/>
   <path class="fil2" d="M146.07 81.58l0.05 -0.06c5.13,1.38 8.47,-0.11 10.72,-3.27 2.09,-2.96 3.43,-6.65 3.86,-11.24 0.43,-4.69 0.17,-9.48 -0.89,-13.86 -0.82,-3.36 -2.52,-8.73 -4.26,-10.63l-2.77 0c-1.58,2.27 -3.34,3.52 -4.95,7.44 -3.21,7.78 -4.71,18.17 -3.13,26.67 0.35,1.89 0.94,3.31 1.37,4.95z"/>
   <path class="fil3" d="M140.53 100.99c0.69,0.77 1.16,0.65 1.89,1.23l0.37 -0.03c1.64,0.05 3.33,-0.03 4.99,-0.02 1.65,0.01 3.29,0.33 5.03,0.4 1.97,0.07 3.51,-0.25 5.19,-0.21 1.63,0.04 3.7,0.21 5.28,-0.07 1.99,-0.36 2.16,-0.97 2.3,-3.08 0.27,-3.9 1.14,-11.75 0.75,-14.74 -0.83,1.97 -1.32,3.48 -3.91,4.89 -5.7,3.1 -13.62,0.16 -16.3,-7.84l-0.05 0.06c-1.15,-0.5 -2.06,-0.89 -2.99,-1.48 -0.94,-0.6 -1.61,-1.29 -2.34,-1.87 0.32,5.37 2.09,12.21 4.62,15.51 1.34,1.74 2.34,2.4 3.89,3.66l3.7 2.68 4.1 2.09c-2.93,-0.11 -5.74,-0.19 -8.77,-0.18 -1.39,0 -2.59,-0.3 -3.84,-0.48 -1.25,-0.18 -2.73,-0.36 -3.91,-0.52z"/>
   <path class="fil2" d="M151.14 32.34c2.74,0.01 5.57,-0.17 8.04,0.48 1.73,0.14 15.79,3.4 18.19,3.92 3.1,0.68 5.58,2.24 4.93,0.64 -0.26,-0.62 -1.18,-1.55 -1.77,-1.95 -1.82,-1.25 -6.22,-1.92 -8.58,-2.48l-12.1 -2.81c0.54,-0.81 7.77,-5.59 8.95,-6.3l6.91 -4.32c2.57,-1.43 4.53,-1.2 6.59,-2.29 -0.18,-0.68 -0.85,-1.25 -1.58,-1.44 -0.12,-0.04 -0.24,-0.06 -0.37,-0.07l-0.68 0c-2.44,0.21 -6.22,2.4 -7.98,3.29l-6.14 3.42c-11.27,6.52 -12.24,4.06 -13.56,4.7 -1.47,0.7 -0.85,3.32 -0.85,5.21z"/>
   <path class="fil2" d="M151.94 41.58c1.59,-0.15 1.66,0.11 2.56,-1.04 1.11,-1.41 0.31,-2.06 1.16,-2.69 0.57,0.11 0.63,0.27 0.76,0.9 0.54,2.5 -0.8,2.97 1.14,3.46 3.87,0.49 8.09,3.72 9.58,7.62 1.52,3.94 1.53,11.03 0.63,15.35 -0.59,-0.73 -0.34,-1.84 -0.53,-2.78 -0.38,11.03 0.23,22.34 -0.03,33.45 -0.06,2.74 -0.44,4.91 -2.23,6.14 -1.63,1.12 -4.44,1.5 -6.81,1.59 -2.98,0.11 -13.6,-0.02 -15.38,-1.39l-0.37 0.03c-2.9,-0.4 -4.02,-1.52 -4.79,-4.09 -0.75,-2.46 -0.66,-5.61 -0.53,-8.31 0.28,-5.74 0.21,-11.67 0.31,-17.44 0.05,-2.86 0.32,-5.69 0.4,-8.55 0.16,-5.27 -1.35,-11.28 1.58,-15.78 0.96,-1.48 2.8,-3.51 4.58,-4.23 0.8,-0.38 0.91,-0.62 1.82,-0.89 0.5,-0.53 1.42,-0.75 2.11,-0.94 0.23,-0.07 0.12,-0.03 0.4,-0.12l0.41 -0.17c-1.23,0.02 -3.39,0.91 -4.28,1.34 -1.64,0.8 -3.65,2.22 -4.66,3.72 -1.15,1.71 -2.33,3.63 -2.78,5.76 -0.34,1.57 -0.09,42.01 -0.09,44.83 -0.01,2.19 0.18,3.09 1.22,4.31 0.82,0.99 2.21,1.81 3.67,2.02l22.52 -0.02c1.55,-0.28 2.67,-1.04 3.54,-1.99 1.34,-1.44 1.21,-2.8 1.21,-4.49l0 -33.85c0,-6.02 1.02,-10.82 -1.6,-15.17 -2.06,-3.41 -6.68,-6.31 -10.46,-6.63 0,-1.66 0.24,-3.17 -0.33,-4.02l-5.39 -0.04c-0.91,1.91 -0.35,2.79 0.66,4.11z"/>
   <path class="fil4" d="M158.33 55.73c-1.63,1.06 -5.86,0.46 -3.3,-2.42 1.33,-1.48 1.2,-1.61 0.42,-2.69 -0.69,-0.97 -0.03,-0.89 -0.17,-1.68 -0.11,-0.61 -0.56,-0.55 -1.1,-0.86 0.01,-1.48 0.43,-0.65 0.81,-1.68 -0.47,-1.41 -2.09,-1.25 -1.47,-2.89 -0.88,0.1 -0.83,0.17 -0.63,0.94 1.27,4.93 0.16,16.39 -1.15,21.33 -0.65,2.48 -1.18,4.4 -1.39,7.19 -0.21,2.72 1,5.22 3.93,3.73 6.2,-3.15 4.33,-15.15 4.05,-20.97z"/>
   <path class="fil5" d="M139.82 100.39c0.24,0.42 0.23,0.37 0.71,0.6 1.18,0.16 2.66,0.34 3.91,0.52 1.25,0.18 2.45,0.48 3.84,0.48 3.03,-0.01 5.84,0.07 8.77,0.18l-4.1 -2.09 -3.7 -2.68c-1.55,-1.26 -2.55,-1.92 -3.89,-3.66 -2.53,-3.3 -4.3,-10.14 -4.62,-15.51l0.02 -0.13 -1.92 -2.94 0.12 13.14c0.06,2.19 -0.19,4.34 -0.18,6.54 0.01,2.73 0.11,3.32 1.04,5.55z"/>
   <path class="fil3" d="M145.79 42.93c-0.91,0.27 -1.02,0.51 -1.82,0.89 -2.2,2.8 -5.24,2.17 -5.35,10.95 -0.01,1.1 0.34,19.33 -0.07,20.1l-0.36 0.64c-0.32,0.99 0.02,9.72 0.04,10.95 0.08,4.19 -1.75,12.18 1.59,13.93 -0.93,-2.23 -1.03,-2.82 -1.04,-5.55 -0.01,-2.2 0.24,-4.35 0.18,-6.54l-0.12 -13.14 1.92 2.94c-0.27,-7.24 -0.44,-14.23 0.66,-21.16 0.5,-3.17 0.79,-6.48 2.19,-8.84 2.45,-4.11 5.35,-3.99 5.41,-5.56 -0.18,-0.09 0,-0.06 -0.42,-0.13l-1.31 0.13c-0.54,0.11 -0.95,0.25 -1.5,0.39z"/>
   <path class="fil1" d="M142.42 102.22c-0.73,-0.58 -1.2,-0.46 -1.89,-1.23 -0.48,-0.23 -0.47,-0.18 -0.71,-0.6 -3.34,-1.75 -1.51,-9.74 -1.59,-13.93 -0.02,-1.23 -0.36,-9.96 -0.04,-10.95l0.36 -0.64c0.41,-0.77 0.06,-19 0.07,-20.1 0.11,-8.78 3.15,-8.15 5.35,-10.95 -1.78,0.72 -3.62,2.75 -4.58,4.23 -2.93,4.5 -1.42,10.51 -1.58,15.78 -0.08,2.86 -0.35,5.69 -0.4,8.55 -0.1,5.77 -0.03,11.7 -0.31,17.44 -0.13,2.7 -0.22,5.85 0.53,8.31 0.77,2.57 1.89,3.69 4.79,4.09z"/>
   <path class="fil6" d="M118.24 57.29c0.36,0.38 0.07,0.21 0.56,0.34 1.24,0.58 4.14,1.74 5.59,1.88l-0.69 -0.58c-0.28,-0.21 -0.58,-0.4 -0.8,-0.55 0.65,-0.18 0.88,-0.21 1.32,-0.56l-0.34 -0.42c-1.77,-3.12 2.96,-12.73 7.2,-14.53l-0.12 0.95c0.32,-0.4 0.28,-0.86 0.28,-1.47 -0.39,-0.27 -0.08,-0.29 -0.86,-0.2 -0.92,0.11 -3.17,2.17 -3.68,2.76 -2.74,3.09 -5.45,6.89 -8.1,10.17 -0.66,0.82 -1.27,1.16 -0.36,2.21z"/>
   <path class="fil4" d="M167.24 62.4c0.19,0.94 -0.06,2.05 0.53,2.78 0.9,-4.32 0.89,-11.41 -0.63,-15.35 -1.49,-3.9 -5.71,-7.13 -9.58,-7.62 1.28,1.12 5.39,2.09 6.81,8.22 0.26,1.13 0.32,2.31 0.17,3.51 -0.22,1.77 0.09,1.42 1.26,2.25 0.86,0.62 1.02,1.08 1.18,2.5 0.14,1.1 0.23,2.6 0.26,3.71z"/>
   <path class="fil7" d="M124.22 57.82c1.59,-1.14 3.07,-4.22 4.04,-6.32 0.81,-1.76 2.91,-5.49 2.7,-7.68l0.12 -0.95c-4.24,1.8 -8.97,11.41 -7.2,14.53l0.34 0.42z"/>
   <path class="fil8" d="M156.23 62.03c-1.72,1.31 -1.55,2.95 -2.08,5.83 -0.21,1.11 -0.4,2.29 -0.27,3.46 0.26,2.3 2.94,3.93 4.17,-3.95 0.18,-1.18 0.31,-2.47 0.12,-3.69 -0.16,-1.01 -0.81,-2.5 -1.94,-1.65z"/>
   <path class="fil8" d="M153.52 43.51c-0.62,1.64 1,1.48 1.47,2.89 -0.38,1.03 -0.8,0.2 -0.81,1.68 0.54,0.31 0.99,0.25 1.1,0.86 0.14,0.79 -0.52,0.71 0.17,1.68 0.78,1.08 0.91,1.21 -0.42,2.69 -2.56,2.88 1.67,3.48 3.3,2.42 1.27,-2.34 -1.79,-12.03 -4.85,-12.45l0.02 0.05c0,0 0.01,0.03 0.01,0.04 0,0 0,0.03 0,0.04 0.01,0 0.01,0.04 0.01,0.04 0,0.01 0,0.04 0,0.06z"/>
   <path class="fil7" d="M118.24 57.29c-0.91,-1.05 -0.3,-1.39 0.36,-2.21 2.65,-3.28 5.36,-7.08 8.1,-10.17 0.51,-0.59 2.76,-2.65 3.68,-2.76 0.78,-0.09 0.47,-0.07 0.86,0.2 1.33,0.57 -1.6,7.92 -2.06,9.06 -1.23,3.02 -2.46,5.21 -3.1,8.81 -0.51,-0.02 -1.2,-0.49 -1.69,-0.71 -1.45,-0.14 -4.35,-1.3 -5.59,-1.88 0.9,1.19 4.4,1.82 5.67,2.21 0.96,0.29 1.02,0.79 1.7,0.97 0.62,-0.45 1.35,-3.52 1.61,-4.43 0.7,-2.46 2.21,-6.24 3.11,-8.96 0.46,-1.41 1.48,-3.48 1.48,-4.71 0.82,0.39 1.07,-0.15 1.46,-0.73 0.55,-0.83 0.53,-0.89 -0.12,-1.53l-1.62 -0.93c-1.27,-0.53 -1.58,0.85 -1.94,1.8 -0.27,0.69 -0.2,0.31 -1.06,0.95 -2.35,1.75 -3.31,3.42 -4.97,5.09 -1.93,1.95 -5.96,6.65 -7.16,8.92l0 0c0.29,0.45 0.73,0.83 1.28,1.01z"/>
   <path class="fil8" d="M149.22 34.05c1.21,0.91 0.56,2.28 5.43,1.86 2.94,-0.25 3.41,-0.67 4.04,-2.38 0.3,-0.82 -0.3,-0.45 0.49,-0.51l0 -0.2c-2.47,-0.65 -5.3,-0.47 -8.04,-0.48l-2.29 -0.02 0.37 1.73z"/>
   <path class="fil9" d="M148.46 37.51c0.47,0.12 -0.17,0.25 0.58,0l0.24 -0.16c1.28,-0.64 5.03,-0.15 6.72,-0.17 1.16,-0.02 2.27,-0.2 3.07,-0.79 0.72,-0.52 1.28,-1.44 0.69,-2.53 -0.32,0.31 0.01,-0.11 -0.22,0.33 -0.06,0.13 -0.09,0.24 -0.14,0.38 -0.78,2.02 -2.82,1.93 -5.08,1.87 -3.69,-0.08 -5.21,0.12 -5.1,-2.39l-0.37 -1.73 -0.06 0.16 -0.87 -0.7c0,1.23 0.67,5.67 -2.31,5.57 -0.9,-0.03 -1.06,-0.54 -1.73,-1.01 0.06,2.12 2.01,2.79 3.18,2.08 0.41,-0.24 0.82,-0.72 0.93,-1.24l0.37 0.2c0.02,0.02 0.07,0.08 0.1,0.13z"/>
   <path class="fil10" d="M132.09 39.52l1.62 0.93c0.23,-1.23 1.49,-3.29 2.39,-4.07 1.38,-1.19 4.59,-1.04 5.49,-0.76 0.28,-0.3 0.26,-0.28 0.32,-0.84 0.01,-0.14 0.01,-0.44 -0.02,-0.58 -0.07,-0.45 0.05,-0.11 -0.14,-0.38 -1.78,-0.39 -5.13,-0.38 -6.58,0.96 -0.35,0.34 -0.5,0.62 -0.83,1.01 -0.48,0.59 -2.18,3.1 -2.25,3.73z"/>
   <path class="fil11" d="M130.96 43.82c0.21,2.19 -1.89,5.92 -2.7,7.68 -0.97,2.1 -2.45,5.18 -4.04,6.32 -0.44,0.35 -0.67,0.38 -1.32,0.56 0.22,0.15 0.52,0.34 0.8,0.55l0.69 0.58c0.49,0.22 1.18,0.69 1.69,0.71 0.64,-3.6 1.87,-5.79 3.1,-8.81 0.46,-1.14 3.39,-8.49 2.06,-9.06 0,0.61 0.04,1.07 -0.28,1.47z"/>
   <path class="fil12" d="M143.25 33.47c-0.31,0.8 -0.09,2.21 -0.18,3.2 0.16,0.21 1.26,3.4 4.2,2.16 1.07,-0.45 1.09,-0.8 1.19,-1.32 -0.03,-0.05 -0.08,-0.11 -0.1,-0.13l-0.37 -0.2c-0.11,0.52 -0.52,1 -0.93,1.24 -1.17,0.71 -3.12,0.04 -3.18,-2.08 0.67,0.47 0.83,0.98 1.73,1.01 2.98,0.1 2.31,-4.34 2.31,-5.57l0.87 0.7c0,-0.77 -0.33,-0.71 -0.84,-1.04 -1,0.21 -0.08,-0.21 -0.56,1.66 -0.12,0.5 -0.34,0.91 -0.79,1.21 -1.47,1 -1.97,-0.27 -2.84,-0.63 -0.38,0.16 -0.28,-0.12 -0.43,0.63l-0.08 -0.84z"/>
   <path class="fil8" d="M143.25 32.99l0 0.48 0.08 0.84c0.15,-0.75 0.05,-0.47 0.43,-0.63 0.87,0.36 1.37,1.63 2.84,0.63 0.45,-0.3 0.67,-0.71 0.79,-1.21 0.48,-1.87 -0.44,-1.45 0.56,-1.66 -0.44,-0.32 -0.58,-0.49 -1.2,-0.6 -0.59,-0.11 -1.32,-0.02 -1.68,0.1 -0.89,0.33 -1.57,1.09 -1.82,2.05z"/>
   <path class="fil8" d="M167.17 54.39c1.15,-2.06 -1.82,-7.03 -2.71,-7.92 -0.43,-0.43 -1.58,-1.28 -2.27,-1.61 1.32,2.35 2.22,1.62 3.62,7.31 0.23,0.97 0.44,2.15 1.36,2.22z"/>
   <path class="fil1" d="M148.79 41.87c0.64,0 2.6,-0.12 3.15,-0.29 -1.01,-1.32 -1.57,-2.2 -0.66,-4.11l-1.99 0.05c-0.7,1.29 -0.06,2.89 -0.5,4.35z"/>
   <path class="fil12" d="M149.22 34.05c-0.11,2.51 1.41,2.31 5.1,2.39 2.26,0.06 4.3,0.15 5.08,-1.87 0.05,-0.14 0.08,-0.25 0.14,-0.38 0.23,-0.44 -0.1,-0.02 0.22,-0.33 -0.21,-0.54 -0.25,-0.56 -0.58,-0.84 -0.79,0.06 -0.19,-0.31 -0.49,0.51 -0.63,1.71 -1.1,2.13 -4.04,2.38 -4.87,0.42 -4.22,-0.95 -5.43,-1.86z"/>
   <path class="fil8" d="M159.76 33.86c0.59,1.09 0.03,2.01 -0.69,2.53 -0.8,0.59 -1.91,0.77 -3.07,0.79 -1.69,0.02 -5.44,-0.47 -6.72,0.17l-0.24 0.16 0.25 0.01 1.99 -0.05 5.39 0.04c1.66,0 2.74,-0.41 3.47,-1.38 0.86,-1.14 0.18,-2.91 -0.96,-3.11 0.33,0.28 0.37,0.3 0.58,0.84z"/>
   <path class="fil7" d="M141.75 33.82c0.19,0.27 0.07,-0.07 0.14,0.38 0.03,0.14 0.03,0.44 0.02,0.58 -0.06,0.56 -0.04,0.54 -0.32,0.84l0 1.05 0.67 0.51c0.39,-0.21 0.47,-0.25 0.81,-0.51 0.09,-0.99 -0.13,-2.4 0.18,-3.2l0 -0.48 -0.18 -0.33c-1.23,0.02 -0.92,0.35 -1.32,1.16z"/>
   <path class="fil4" d="M153.34 41c1.1,-0.94 1.32,-3.68 -1.11,-3.23 -0.37,1.21 -0.05,3.05 1.11,3.23z"/>
  </g>
  <g id="_2402198900272">
   <path class="fil13" d="M48.04 31.82l-0.4 0.26c0.25,0.47 1.25,5.59 1.3,6.45l0.08 -0.12c2.64,-0.76 5.6,-0.6 8.39,-0.24l-0.28 2.55c-3.25,-0.04 -4.56,0.12 -7.58,0.59 0.08,1.34 0.38,2.17 0.47,3.29l0.73 -0.02 5.97 0.05c0.02,-1.04 0.35,-2.7 0.43,-3.72 2.27,0.19 5.28,2.63 6.27,4.11 -0.35,0.53 -1.34,1.35 -1.94,1.51 0.4,0.92 0.82,1 1.15,1.55 0.74,0.38 0.38,0.29 1.01,0.8 0.63,-0.28 1.18,-0.66 1.95,-0.84 0.18,0.79 0.47,1.06 0.77,1.82 0.31,0.76 0.43,1.43 0.74,2.08l-3.32 0 0.04 2.59c1.23,0.26 2.52,0.98 3.71,1.08 0,0.83 -0.01,1.67 0.44,2.38 0.15,-0.65 0.37,-1.23 0.43,-1.95 1.19,0.03 6.93,1.83 7.81,2.38l0.55 0.42c0.01,0.01 0.07,0.03 0.08,0.04 0.65,0.17 0.3,-0.29 3.23,1.07 0.82,0.38 1.1,0.79 2.73,-0.53 2.49,-2.01 2.5,-6.84 2.25,-9.86 -1.25,0.33 -0.9,1.22 -3.24,1.09 -1.32,-0.07 -2.62,-0.56 -3.96,-0.66 -0.16,0.1 -1.87,0.82 -2.1,0.88 -1.43,1.16 -4.54,0.85 -7.14,0.85 0,-0.96 -0.12,-1.6 -0.3,-2.5 -0.19,-0.93 -0.49,-1.41 -0.56,-2.26l5.8 -2.81 -0.01 -0.2c-0.78,-2.2 -2,-3.71 -3.1,-5.43l-0.31 -0.04c-0.2,0.34 -3.26,3 -4.33,4.59 -1.51,-1.01 -2.08,-2.74 -5.58,-4.14 -0.73,-0.29 -2,-0.52 -2.63,-0.83 0,-1.32 0.29,-2.36 0.52,-3.58l0.64 -3.64c-1.73,0.18 -3.8,-0.02 -5.71,0.15 -1.78,0.16 -3.34,0.57 -5,0.79z"/>
   <path class="fil13" d="M36.18 38.3c-0.72,0.13 -1.73,1.67 -2.32,2.46 -0.66,0.89 -1.26,1.87 -1.84,2.86 0.9,0.64 2.19,1.17 3.22,1.69 1.17,0.58 2.02,1.08 3.1,1.65l-0.85 3.04c-0.3,1.36 0.21,2.66 -1.45,2.34 -1.78,-0.34 -2.25,-2.4 -6.13,-0.99l-0.11 0.08c-0.28,1.16 -0.33,2.38 -0.23,3.59 -0.5,-0.2 -0.65,0 -1.2,-1.33 -0.28,-0.68 -0.36,-1.07 -0.39,-1.83l-0.18 -0.36c-1.59,-0.33 -2.16,-1.86 -2.44,-0.24 -0.39,2.24 0.12,5.23 1.15,7.31 1.92,3.86 4.03,2.1 5.19,1.64 2.51,-0.99 7.75,-3.12 10.13,-3.3l-0.03 -4.19c-0.64,-0.15 -2.67,-0.3 -3.24,-0.35 0.11,-1.38 0.9,-3.06 1.52,-4.31 0.02,-0.04 0.05,-0.12 0.07,-0.15 0.01,-0.03 0.04,-0.09 0.06,-0.14 0.68,0.39 1.27,0.82 2.02,0.82 0.83,-0.59 1.97,-1.97 2.56,-2.71 -0.64,-0.47 -0.66,-0.86 -1.48,-1.08 0.25,-0.93 1.8,-1.66 2.66,-2.09 1.1,-0.55 2.75,-0.88 3.58,-1.4l-0.53 -2.9 -0.08 0.12c-0.79,-0.26 -1.41,0.07 -2.25,0.35 -3.71,1.24 -3.52,1.97 -5.54,3.33 -0.87,-0.59 -1.37,-1.39 -2.25,-2.07 -0.9,-0.7 -1.69,-1.37 -2.29,-2.25 -0.05,0.88 0.15,0.06 -0.43,0.41z"/>
   <path class="fil13" d="M73.34 35.07l0.02 0.27c1.08,1.5 2.78,4.72 3.23,6.93l0.17 0.15 11.62 -4.67c0.23,-0.26 0.5,-1.46 0.54,-1.84 0.01,-0.08 0.02,-0.17 0.02,-0.26l0 -0.67c-0.26,-4.55 -5.66,-10.12 -7.57,-10.28 -0.03,0.39 -0.21,1.41 -0.34,1.81 -0.44,1.41 -2.52,2.56 -3.67,3.25 -3.12,1.87 -2.88,1.65 -4.02,5.31z"/>
   <path class="fil14" d="M48.33 63.12c2.06,-0.04 3.77,-0.04 5.51,-0.88 1.81,-0.89 2.14,-1.62 3.32,-2.77 0.04,-0.04 0.1,-0.1 0.13,-0.13 0.03,-0.02 0.09,-0.08 0.14,-0.12l0.12 -0.51c0.21,-3.44 0.07,-6.91 -1.39,-9.68 -0.31,-0.6 -0.92,-1.26 -1.07,-1.72 -0.32,-1.03 0.02,-1.38 -0.99,-1.84 -1.18,-0.54 -3.48,-0.33 -4.7,0.24 -2.09,0.99 -1.69,0.76 -2.27,3.36 -0.68,3.08 -0.95,9.44 0.26,12.42l0.94 1.63z"/>
   <path class="fil13" d="M29.26 42.62l0.26 -0.04c0.52,-2.66 3.35,-7.35 4.74,-8.72l0.03 -0.3c-1.22,-3.13 -6.76,-2.59 -7.2,-7.78 -2.31,0.19 -7.14,6.28 -7.54,9.53l-0.02 0.18 0 1.94c0.32,1.95 1.84,1.98 3.64,2.65 1.24,0.46 5.29,1.89 6.09,2.54z"/>
   <path class="fil13" d="M46.56 26.96l0.16 0.04c1.96,-0.11 3.94,-0.57 6.11,-0.65 2.04,-0.08 4.94,0.37 6.53,0.21l0.61 0.13c0.11,-1.58 1.63,-4.69 1.48,-5.62 -0.21,-1.29 -3.09,-2.29 -4.59,-2.56 -0.18,-0.03 -0.36,-0.06 -0.54,-0.08l-3.65 0c-2.87,0.27 -5.98,1.13 -7.84,2.37 0.27,1.17 1.68,4.32 1.73,6.16z"/>
   <path class="fil15" d="M50.75 44.58l-1.74 0.47c-0.61,0.16 -1.1,0.34 -1.68,0.5 -1.37,0.37 -1.96,0.98 -2.45,1.9 -0.97,1.81 -1.02,5.1 -1.31,7.39 1.09,3.17 0.34,8.32 4.76,8.28l-0.94 -1.63c-1.21,-2.98 -0.94,-9.34 -0.26,-12.42 0.58,-2.6 0.18,-2.37 2.27,-3.36 1.22,-0.57 3.52,-0.78 4.7,-0.24 1.01,0.46 0.67,0.81 0.99,1.84 0.15,0.46 0.76,1.12 1.07,1.72 1.46,2.77 1.6,6.24 1.39,9.68l0.79 -1.07c0.62,-1.33 0.94,-2.71 1.21,-4.22 0.41,-2.31 0.58,-4.04 0.47,-6.63l1 1.36 1.64 1.89c0.28,0.95 0.95,2.63 0.61,3.49 0.32,-2.56 0.03,-3.37 -0.64,-5.45 -0.33,-0.55 -0.75,-0.63 -1.15,-1.55 -0.72,-0.48 -1.08,-0.92 -1.97,-1.27 -0.68,-0.27 -1.98,-0.63 -2.79,-0.63l-5.97 -0.05z"/>
   <path class="fil16" d="M34.29 33.56l-0.03 0.3c0.44,0.57 0.49,1.41 0.79,2.12 0.15,0.34 0.37,0.7 0.54,0.96 0.64,0.97 0.49,0.23 0.59,1.36 0.58,-0.35 0.38,0.47 0.43,-0.41 0.61,-0.93 3.71,-2.87 4.9,-3.54 1.36,-0.75 4.49,-2.02 6.13,-2.27l0.4 -0.26c-0.6,-0.33 -0.62,-1.47 -0.78,-2.21 -0.17,-0.87 -0.4,-1.72 -0.54,-2.61l-0.16 -0.04c-2.49,0.78 -4.99,1.24 -6.97,2.45 -1.08,0.66 -1.84,1.13 -2.86,1.89 -1.02,0.77 -1.55,1.54 -2.44,2.26z"/>
   <path class="fil16" d="M58.75 30.88c1.82,0.95 2.64,-0.47 9.25,5.02l2.13 2.58 0.31 0.04c0.57,-0.72 0.82,-0.9 1.43,-1.49 0.23,-0.21 0.5,-0.46 0.75,-0.77 0.38,-0.48 0.19,-0.49 0.74,-0.92l-0.02 -0.27 -2.51 -2.86c-4.67,-4.7 -9.65,-4.92 -10.86,-5.52l-0.61 -0.13c0.53,0.73 0.26,0.89 -0.04,2.01 -0.21,0.79 -0.38,1.5 -0.57,2.31z"/>
   <path class="fil17" d="M46.72 27c0.14,0.89 0.37,1.74 0.54,2.61 0.16,0.74 0.18,1.88 0.78,2.21 1.66,-0.22 3.22,-0.63 5,-0.79 1.91,-0.17 3.98,0.03 5.71,-0.15 0.19,-0.81 0.36,-1.52 0.57,-2.31 0.3,-1.12 0.57,-1.28 0.04,-2.01 -1.59,0.16 -4.49,-0.29 -6.53,-0.21 -2.17,0.08 -4.15,0.54 -6.11,0.65z"/>
   <path class="fil14" d="M44.79 45.88c-0.59,0.74 -1.73,2.12 -2.56,2.71 -0.61,1.5 -0.43,2.11 -0.43,4.13l0.03 4.19 -0.15 7.78 0.05 0.2c0.54,0.43 0.47,0.67 1.19,1.2 0.76,0.47 2.85,1.31 4.02,1.34 -3.39,-2.67 -3.26,-7.5 -3.37,-12.59 0.29,-2.29 0.34,-5.58 1.31,-7.39 0.49,-0.92 1.08,-1.53 2.45,-1.9 0.58,-0.16 1.07,-0.34 1.68,-0.5l1.74 -0.47 -0.73 0.02c-1.69,-0.05 -4.09,0.73 -5.23,1.28z"/>
   <path class="fil18" d="M42.92 66.09c-1.14,1.56 4.36,1.94 4.71,1.95l4.02 -0.48c1.84,-0.6 2.77,-0.41 4.33,-1.44 0.96,-0.65 2.01,-1.93 2.55,-3.24 -0.4,0.62 -1.46,1.27 -2.1,1.59 -1.21,0.59 -2.23,0.47 -2.52,0.87 -2.3,0 -1.93,0.18 -2.16,-0.4 -1.14,-0.11 -1.43,-0.06 -2.26,-0.56 -0.2,-0.12 -0.61,-0.42 -0.75,-0.57 -0.49,-0.54 -0.22,-0.12 -0.41,-0.69 -4.42,0.04 -3.67,-5.11 -4.76,-8.28 0.11,5.09 -0.02,9.92 3.37,12.59 -1.17,-0.03 -3.26,-0.87 -4.02,-1.34z"/>
   <path class="fil18" d="M57.55 58.71l-0.12 0.51c-0.1,1.19 -0.13,1.07 -0.62,2.07 -0.37,0.77 -0.61,1.23 -1.2,1.85 -0.75,0.78 -2.45,1.99 -3.86,1.8 0.23,0.58 -0.14,0.4 2.16,0.4 0.29,-0.4 1.31,-0.28 2.52,-0.87 0.64,-0.32 1.7,-0.97 2.1,-1.59 1.68,-3.72 1.4,-6.17 1.92,-10.48 0.98,2.76 0.29,6.15 -0.16,9.01 0.32,-0.26 0.06,0.11 0.32,-0.39l0.46 -1.94c0.49,-2.98 0.31,-6.31 0.37,-9.26l0.01 -0.49 -0.43 -1.18 -1 -1.36c0.11,2.59 -0.06,4.32 -0.47,6.63 -0.27,1.51 -0.59,2.89 -1.21,4.22l-0.79 1.07z"/>
   <path class="fil19" d="M46.36 74.3l0.01 -0.05c3.19,0.22 7.2,-0.88 8.43,-3.87 -0.94,-0.07 -1.89,-0.05 -2.84,-0.05 -0.8,0.01 -2.31,0.27 -2.84,-0.36 -0.47,-0.18 -1.74,-0.44 -2.33,-0.48 -1.2,0.29 -1.29,0.92 -1.33,2.12 -0.06,1.6 0.43,1.76 0.9,2.69z"/>
   <path class="fil17" d="M29.52 42.58l2.5 1.04c0.58,-0.99 1.18,-1.97 1.84,-2.86 0.59,-0.79 1.6,-2.33 2.32,-2.46 -0.1,-1.13 0.05,-0.39 -0.59,-1.36 -0.17,-0.26 -0.39,-0.62 -0.54,-0.96 -0.3,-0.71 -0.35,-1.55 -0.79,-2.12 -1.39,1.37 -4.22,6.06 -4.74,8.72z"/>
   <path class="fil20" d="M59.19 69.56c-0.39,0.74 -1.05,0.96 -1.74,1.48 -0.56,0.43 -1.22,0.93 -1.88,1.33 -2.1,1.29 -3.9,1.7 -4,2.43l1.09 0.49c0.96,-0.07 2.07,0.04 2.97,-0.05 0.93,-0.1 0.47,-0.18 1.34,-0.27 0.41,-0.05 0.9,0.04 1.19,-0.05 0.68,-1.11 1.21,-0.57 2.46,-2.45 0.74,-1.12 0.97,-1.94 0.82,-3.38 -1.32,0.06 -0.78,0.51 -2.25,0.47z"/>
   <path class="fil17" d="M70.44 38.52c1.1,1.72 2.32,3.23 3.1,5.43 0.74,-0.28 2.74,-1.08 3.05,-1.68 -0.45,-2.21 -2.15,-5.43 -3.23,-6.93 -0.55,0.43 -0.36,0.44 -0.74,0.92 -0.25,0.31 -0.52,0.56 -0.75,0.77 -0.61,0.59 -0.86,0.77 -1.43,1.49z"/>
   <path class="fil21" d="M38.22 69.37c-0.13,1.38 0.11,1.59 0.44,2.75 0.47,1.63 0.55,1.05 1.21,2.08l4.03 1.15c1.8,0.29 3.89,0.48 6,0.58l6.85 0c0.96,-0.05 1.16,-0.21 2.35,-0.21 1.18,-1.06 2.17,0.48 6.15,-2.31 0.04,-0.03 0.09,-0.06 0.12,-0.09l0.61 -0.47c1.23,-1.01 0.45,-1.17 0.44,-1.18 -0.95,0.59 -1.44,1.7 -2.88,1.91 -0.12,0.37 -1.59,0.73 -2.13,0.87 -0.32,0.08 -1.08,0.24 -1.52,0.31 -0.55,0.09 -1.09,0.07 -1.73,0.16 -0.29,0.09 -0.78,0 -1.19,0.05 -0.87,0.09 -0.41,0.17 -1.34,0.27 -0.9,0.09 -2.01,-0.02 -2.97,0.05 -1.81,-0.15 -2.92,0.05 -4.61,-0.38 -1.48,-0.04 -2.58,-0.3 -3.9,-0.52 -1.08,-0.18 -0.7,-0.28 -1.47,-0.64 -0.7,-0.31 -0.84,-0.07 -1.42,-0.61 -0.45,-0.3 -1.49,-1.11 -1.85,-1.52 -0.58,-0.66 -0.88,-1.62 -0.66,-2.74 -0.69,0.61 -0.33,-0.63 -0.53,0.49z"/>
   <path class="fil22" d="M38.34 68.45c-0.03,0.03 -0.08,0.03 -0.09,0.09 0,0.08 -0.06,0.1 -0.06,0.13 -0.05,0.56 -0.06,0.08 0.03,0.7 0.2,-1.12 -0.16,0.12 0.53,-0.49 -0.22,1.12 0.08,2.08 0.66,2.74 0.36,0.41 1.4,1.22 1.85,1.52 0.1,-1.43 -0.73,-0.29 -0.53,-2.37 0.44,0.64 0.25,0.72 0.9,1.25 1.8,1.46 2.69,1.71 4.73,2.28 -0.47,-0.93 -0.96,-1.09 -0.9,-2.69 0.04,-1.2 0.13,-1.83 1.33,-2.12 -0.2,-0.11 -0.15,-0.05 -0.49,-0.17 -0.2,-0.07 -0.2,-0.03 -0.51,-0.16 -0.85,-0.39 -0.35,0.04 -0.76,-0.66 -0.22,-0.07 -0.5,-0.17 -0.89,-0.13 -0.32,-0.09 -0.73,-0.15 -0.98,-0.24 -0.81,-0.3 -0.13,0.06 -0.72,-0.46 0.19,1.25 -0.88,2.16 -1.94,2.6 -0.47,-0.5 -0.7,-1.01 -1.14,-1.42 -0.7,-0.65 -0.74,0.2 -0.48,-1.29l-0.54 0.89z"/>
   <path class="fil23" d="M49.02 38.41l0.53 2.9c3.02,-0.47 4.33,-0.63 7.58,-0.59l0.28 -2.55c-2.79,-0.36 -5.75,-0.52 -8.39,0.24z"/>
   <path class="fil22" d="M64.3 64.47l0.07 0.69c0.07,2 -0.52,1.76 -1.11,2.8 0.83,0.35 1.58,1.27 1.59,2.57 0,1.49 -0.58,2.28 -1.31,3.05 1.44,-0.21 1.93,-1.32 2.88,-1.91 0.04,-0.04 0.11,-0.15 0.14,-0.11 0,0 0.55,-0.26 0.77,-1.03 0.19,-0.66 0.1,-0.82 0.42,-1.38 -0.08,-1.26 -0.43,-2.39 -0.93,-3.31 -0.54,-1.01 -1.12,-1.71 -2.53,-1.8l0.58 0.53c0.02,0.03 0.44,0.33 0.5,0.37 0.29,0.23 0.49,0.41 0.73,0.73 0.5,0.65 0.64,1.24 0.66,2.15 0.09,-0.54 -0.92,-3.18 -2.46,-3.35z"/>
   <path class="fil24" d="M61.44 69.09c0.15,1.44 -0.08,2.26 -0.82,3.38 -1.25,1.88 -1.78,1.34 -2.46,2.45 0.64,-0.09 1.18,-0.07 1.73,-0.16 0.44,-0.07 1.2,-0.23 1.52,-0.31 0.54,-0.14 2.01,-0.5 2.13,-0.87 0.73,-0.77 1.31,-1.56 1.31,-3.05 -0.01,-1.3 -0.76,-2.22 -1.59,-2.57 -0.68,0.11 -0.6,0.11 -1.07,0.45 -0.36,0.25 -0.17,0.12 -0.38,0.3 -0.3,0.28 -0.12,0.08 -0.37,0.38z"/>
   <path class="fil16" d="M73.54 43.95l0.01 0.2c0.66,1.04 2.17,5.15 2.2,6.72 0.23,-0.06 1.94,-0.78 2.1,-0.88 0.31,-2.73 -0.59,-5.39 -1.09,-7.57l-0.17 -0.15c-0.31,0.6 -2.31,1.4 -3.05,1.68z"/>
   <path class="fil25" d="M41.37 65.37l2.4 2.59c0.33,0.31 0.05,0.02 0.37,0.41 0.39,-0.04 0.67,0.06 0.89,0.13 1.47,0.1 2.02,0.9 3.47,0.91 1,0.01 1.26,-0.23 1.92,-0.2 0.46,0.02 1.42,0.37 1.81,0.4 0.97,0.09 0.8,-0.22 1.88,-0.22 2.13,0 1.21,0.31 4.06,-0.17 0.8,-0.14 1.35,-0.12 2.01,-0.53l-4.44 -0.13c0.06,-0.04 0.13,-0.08 0.19,-0.1l0.58 -0.2c0.9,-0.15 0.56,0.28 1.85,-0.31l-1.07 0.08 -5.64 -0.47 -4.02 0.48c-0.35,-0.01 -5.85,-0.39 -4.71,-1.95 -0.72,-0.53 -0.65,-0.77 -1.19,-1.2 -0.46,0.18 -0.36,-0.35 -0.36,0.48z"/>
   <path class="fil16" d="M27.8 51.5l0.18 0.36c0.24,-0.45 1.25,-0.36 1.82,-0.43l0.11 -0.08c0,-1.46 0.38,-2.83 0.73,-4.08 0.41,-1.43 1,-2.45 1.38,-3.65l-2.5 -1.04 -0.26 0.04c-0.11,1.29 -0.79,2.91 -1.03,4.18 -0.26,1.44 -0.59,3.09 -0.43,4.7z"/>
   <path class="fil14" d="M60.29 61.41c-0.4,0.83 -0.57,2.97 -1.51,3.63 0.05,1.44 -0.33,1.54 1.02,2.24l0.29 0.09c-0.55,-0.92 0.83,-1.97 1.33,-3.38 0.49,-1.38 0.67,-2.94 0.76,-4.48 0.11,-2.16 0.25,-8.13 -0.74,-9.69 -0.06,2.95 0.12,6.28 -0.37,9.26l-0.46 1.94c-0.26,0.5 0,0.13 -0.32,0.39z"/>
   <path class="fil20" d="M58.53 62.88c-0.54,1.31 -1.59,2.59 -2.55,3.24 -1.56,1.03 -2.49,0.84 -4.33,1.44l5.64 0.47 -0.22 -1.46c0.98,-0.75 1.43,-1.59 1.71,-1.53 0.94,-0.66 1.11,-2.8 1.51,-3.63 0.45,-2.86 1.14,-6.25 0.16,-9.01 -0.52,4.31 -0.24,6.76 -1.92,10.48z"/>
   <path class="fil22" d="M49.12 69.97c0.53,0.63 2.04,0.37 2.84,0.36 0.95,0 1.9,-0.02 2.84,0.05 -1.23,2.99 -5.24,4.09 -8.43,3.87l1.68 0.66c1.69,0.43 2.8,0.23 4.61,0.38l-1.09 -0.49c0.1,-0.73 1.9,-1.14 4,-2.43 0.66,-0.4 1.32,-0.9 1.88,-1.33 0.69,-0.52 1.35,-0.74 1.74,-1.48 -0.79,-0.06 -3.75,0.37 -4.68,0.44 -1.53,0.1 -3.86,0.09 -5.39,-0.03z"/>
   <path class="fil14" d="M61.02 48.15l0.43 1.18c-0.07,-0.96 -0.09,-0.19 0.3,-0.5 0.75,1.49 1.04,1.74 1.24,3.97 0.15,1.77 0,3.54 -0.06,5.31 -0.14,3.59 -0.02,6.63 -2.01,8.93 0.73,-0.33 1.3,-0.6 1.77,-1.14 0.63,-0.74 0.47,-1.01 1.2,-1.77l0.41 0.34c1.54,0.17 2.55,2.81 2.46,3.35 -0.02,-0.91 -0.16,-1.5 -0.66,-2.15 -0.24,-0.32 -0.44,-0.5 -0.73,-0.73 -0.06,-0.04 -0.48,-0.34 -0.5,-0.37l-0.58 -0.53c-0.09,-0.26 0.76,-0.21 -0.43,-0.21l-0.04 -9.3 -0.04 -2.59c0.18,-1.31 0.08,-2.04 -0.14,-3.06 -0.63,-0.51 -0.27,-0.42 -1.01,-0.8 0.67,2.08 0.96,2.89 0.64,5.45 0.34,-0.86 -0.33,-2.54 -0.61,-3.49l-1.64 -1.89z"/>
   <path class="fil26" d="M47.37 53.07c1.66,-0.27 0.8,-1.67 2.48,-3.68 0.49,-0.61 3.57,-2.35 1.89,-3.5 -0.88,-0.61 -3.03,0.02 -3.73,1.88 -0.58,1.5 -1.02,3.81 -0.64,5.3z"/>
   <path class="fil15" d="M48.33 63.12c0.19,0.57 -0.08,0.15 0.41,0.69 0.14,0.15 0.55,0.45 0.75,0.57 0.83,0.5 1.12,0.45 2.26,0.56 1.41,0.19 3.11,-1.02 3.86,-1.8 0.59,-0.62 0.83,-1.08 1.2,-1.85 0.49,-1 0.52,-0.88 0.62,-2.07 -0.05,0.04 -0.11,0.1 -0.14,0.12 -0.03,0.03 -0.09,0.09 -0.13,0.13 -1.18,1.15 -1.51,1.88 -3.32,2.77 -1.74,0.84 -3.45,0.84 -5.51,0.88z"/>
   <path class="fil24" d="M61.45 49.33l-0.01 0.49c0.99,1.56 0.85,7.53 0.74,9.69 -0.09,1.54 -0.27,3.1 -0.76,4.48 -0.5,1.41 -1.88,2.46 -1.33,3.38l0.83 -0.33c1.99,-2.3 1.87,-5.34 2.01,-8.93 0.06,-1.77 0.21,-3.54 0.06,-5.31 -0.2,-2.23 -0.49,-2.48 -1.24,-3.97 -0.39,0.31 -0.37,-0.46 -0.3,0.5z"/>
   <path class="fil19" d="M38.34 68.45l0.54 -0.89c-0.26,1.49 -0.22,0.64 0.48,1.29 0.44,0.41 0.67,0.92 1.14,1.42 1.06,-0.44 2.13,-1.35 1.94,-2.6 -0.52,-0.61 -0.97,-1.15 -1.07,-2.3 0,-0.83 -0.1,-0.3 0.36,-0.48l-0.05 -0.2c-1.17,0.08 -1.57,0.61 -2.2,1.36 -0.54,0.64 -1.07,1.39 -1.14,2.4z"/>
   <path class="fil21" d="M60.18 68.69c-0.66,0.41 -1.21,0.39 -2.01,0.53 -2.85,0.48 -1.93,0.17 -4.06,0.17 -1.08,0 -0.91,0.31 -1.88,0.22 -0.39,-0.03 -1.35,-0.38 -1.81,-0.4 -0.66,-0.03 -0.92,0.21 -1.92,0.2 -1.45,-0.01 -2,-0.81 -3.47,-0.91 0.41,0.7 -0.09,0.27 0.76,0.66 0.31,0.13 0.31,0.09 0.51,0.16 0.34,0.12 0.29,0.06 0.49,0.17 0.59,0.04 1.86,0.3 2.33,0.48 1.53,0.12 3.86,0.13 5.39,0.03 0.93,-0.07 3.89,-0.5 4.68,-0.44 1.47,0.04 0.93,-0.41 2.25,-0.47 0.25,-0.3 0.07,-0.1 0.37,-0.38 0.21,-0.18 0.02,-0.05 0.38,-0.3 0.47,-0.34 0.39,-0.34 1.07,-0.45 0.59,-1.04 1.18,-0.8 1.11,-2.8 -0.2,0.24 -0.03,-0.01 -0.28,0.4l-0.15 0.29c-0.18,0.32 -0.07,0.2 -0.33,0.55 -0.92,1.26 -2.53,1.47 -3.43,2.29z"/>
   <path class="fil23" d="M40.21 47.77c0.5,-0.64 0.81,-1.16 1.29,-1.76 0.51,-0.65 1.13,-1.02 1.57,-1.66 -0.78,-0.71 -1.16,-1.36 -1.92,-1.75 -1,1.03 -2.12,2.67 -2.61,4.43l1.67 0.74z"/>
   <path class="fil23" d="M63.71 45.02c0.17,0.32 1.53,2.42 1.88,2.82l1.97 -0.8c-0.3,-1.23 -1.24,-3.08 -1.97,-3.75 -0.7,0.36 -1.34,0.93 -1.88,1.73z"/>
   <path class="fil20" d="M66.42 71.67c0.01,0.01 0.79,0.17 -0.44,1.18l-0.61 0.47c-0.03,0.03 -0.08,0.06 -0.12,0.09 -3.98,2.79 -4.97,1.25 -6.15,2.31 2.27,-0.14 4.93,-0.58 6.64,-1.37 1,-0.46 1.63,-0.89 2,-1.89 0.35,-0.95 0.33,-2.36 0.01,-3.31 -0.32,0.56 -0.23,0.72 -0.42,1.38 -0.22,0.77 -0.77,1.03 -0.77,1.03 -0.03,-0.04 -0.1,0.07 -0.14,0.11z"/>
   <path class="fil18" d="M60.92 67.04l-0.83 0.33 -0.29 -0.09c-0.22,0.17 -0.11,0.11 -0.46,0.28 -0.06,0.03 -0.26,0.11 -0.32,0.14 -0.4,0.16 -0.31,0.04 -0.66,0.25 -1.29,0.59 -0.95,0.16 -1.85,0.31l-0.58 0.2c-0.06,0.02 -0.13,0.06 -0.19,0.1l4.44 0.13c0.9,-0.82 2.51,-1.03 3.43,-2.29 0.26,-0.35 0.15,-0.23 0.33,-0.55l0.15 -0.29c0.25,-0.41 0.08,-0.16 0.28,-0.4l-0.07 -0.69 -0.41 -0.34c-0.73,0.76 -0.57,1.03 -1.2,1.77 -0.47,0.54 -1.04,0.81 -1.77,1.14z"/>
   <path class="fil20" d="M41.26 73.14c0.58,0.54 0.72,0.3 1.42,0.61 0.77,0.36 0.39,0.46 1.47,0.64 1.32,0.22 2.42,0.48 3.9,0.52l-1.68 -0.66 -0.01 0.05c-2.04,-0.57 -2.93,-0.82 -4.73,-2.28 -0.65,-0.53 -0.46,-0.61 -0.9,-1.25 -0.2,2.08 0.63,0.94 0.53,2.37z"/>
   <path class="fil19" d="M48.34 49.72c1.33,0.02 2.54,-1.65 1.98,-2.87 -1.36,-0.26 -2.38,1.48 -1.98,2.87z"/>
   <path class="fil17" d="M27.98 51.86c0.03,0.76 0.11,1.15 0.39,1.83 0.55,1.33 0.7,1.13 1.2,1.33 -0.1,-1.21 -0.05,-2.43 0.23,-3.59 -0.57,0.07 -1.58,-0.02 -1.82,0.43z"/>
   <path class="fil26" d="M57.29 68.03l1.07 -0.08c0.35,-0.21 0.26,-0.09 0.66,-0.25 0.06,-0.03 0.26,-0.11 0.32,-0.14 0.35,-0.17 0.24,-0.11 0.46,-0.28 -1.35,-0.7 -0.97,-0.8 -1.02,-2.24 -0.28,-0.06 -0.73,0.78 -1.71,1.53l0.22 1.46z"/>
   <path class="fil23" d="M38.26 55.5l0.13 -2.98 -1.2 0.01c0.04,1.86 0.12,1.97 1.07,2.97z"/>
   <path class="fil19" d="M39.87 74.2c-0.66,-1.03 -0.74,-0.45 -1.21,-2.08 -0.33,-1.16 -0.57,-1.37 -0.44,-2.75 -0.34,0.05 -0.37,-0.27 -0.33,1.38 0.04,1.5 0.42,3.1 1.98,3.45z"/>
   <path class="fil20" d="M42.44 67.67c0.59,0.52 -0.09,0.16 0.72,0.46 0.25,0.09 0.66,0.15 0.98,0.24 -0.32,-0.39 -0.04,-0.1 -0.37,-0.41l-2.4 -2.59c0.1,1.15 0.55,1.69 1.07,2.3z"/>
  </g>
  <g id="_2401682886960">
   <path class="fil27" d="M74.15 173.7l-0.9 0.17 -0.63 0.98 0.63 0.81c4.43,0.82 8.87,0.12 13.42,0.13l37.21 0c1.37,0.01 2.74,0.28 3.38,-0.52l-12.17 0.08 0 -1.66 9.83 0.11c-0.54,-2.24 -0.78,-12.06 -1.39,-17.11l-1.21 -12.5c-0.16,-1.3 -0.15,-2.92 -0.95,-3.97 -0.32,3.18 -2.98,7.98 -4.61,9.26l-1.57 -0.22c-0.02,-0.1 -0.04,-0.18 -0.06,-0.3 -0.06,-0.29 -0.08,-0.56 -0.12,-0.85 -0.11,-0.79 -0.15,-0.77 -0.18,-1.58 -0.17,-5.92 -0.93,-4.7 -1.58,-9.29l-0.55 1.23c-1.54,4.96 -4.3,8.97 -10.55,9.7 -13.99,1.62 -19.45,-16.55 -6.9,-22.29 4,-1.82 9.03,-1.41 12.68,1.24 1.58,1.15 1.78,1.85 2.93,2.46 -0.44,-3.12 -1.88,-6.04 -2.65,-8.8 -2.46,-0.05 -3.94,0.36 -5.36,-1.1 -2.41,-2.51 -0.48,-1.4 -3.57,-2.73 1,-0.46 2.37,-0.48 3.38,-1.28 -4.5,-0.36 -8.76,0.55 -12.11,2.42 -1.74,0.98 -2.8,1.77 -4.13,2.88 -1.52,1.26 -2.02,2.49 -3.42,3.7 0,-3.12 0.34,-6.64 0.84,-9.58 0.25,-1.44 0.6,-2.92 1,-4.22 0.21,-0.66 0.44,-1.36 0.73,-2.02 0.17,-0.39 0.22,-0.51 0.42,-0.82 2.06,-3.06 8.63,1.71 12.37,1.92 -0.56,-0.72 -0.55,-0.69 -1.35,-1.22 -5.89,-3.92 -6.66,-0.79 -15.38,-1.66 -0.76,2.11 -2.51,4.03 -2.72,6.52 -0.3,3.72 2.33,1.92 0.79,7.68 -2.26,8.42 -3.45,25.07 -3.7,34.08 -0.16,5.63 0.79,13 -0.16,18.12l-1.69 0.23z"/>
   <path class="fil28" d="M73.25 105.5c-0.09,1.26 -0.29,1.63 -0.33,3.22 0,0 -0.03,1.27 -0.03,1.27 0.35,2.8 -0.24,0.88 0.85,1.78l1.93 -3.1c1.1,-0.95 0.81,-0.96 2.52,-1.39 1.21,-0.3 2.22,-0.47 3.44,-0.21 8.72,0.87 9.49,-2.26 15.38,1.66 0.8,0.53 0.79,0.5 1.35,1.22l0.15 -0.12c4.04,-0.67 11.12,2.33 13.29,4.26 0.76,0.98 0.23,0.56 0.33,0.97 0.01,0.04 0.13,0.75 0.13,0.76 0.08,0.68 0.09,1.2 0.11,1.88 -1.51,-0.47 -2.52,-1.07 -4.15,-1.5 -2.68,-0.7 -2.91,-0.16 -3.86,-0.31l-0.6 -0.27 -1.1 0.05c-1.01,0.8 -2.38,0.82 -3.38,1.28 3.09,1.33 1.16,0.22 3.57,2.73 1.42,1.46 2.9,1.05 5.36,1.1 0.77,2.76 2.21,5.68 2.65,8.8 -1.15,-0.61 -1.35,-1.31 -2.93,-2.46 -3.65,-2.65 -8.68,-3.06 -12.68,-1.24 -12.55,5.74 -7.09,23.91 6.9,22.29 6.25,-0.73 9.01,-4.74 10.55,-9.7l0.55 -1.23c0.65,4.59 1.41,3.37 1.58,9.29 0.03,0.81 0.07,0.79 0.18,1.58 0.04,0.29 0.06,0.56 0.12,0.85 0.02,0.12 0.04,0.2 0.06,0.3l1.57 0.22c1.63,-1.28 4.29,-6.08 4.61,-9.26 0.8,1.05 0.79,2.67 0.95,3.97l1.21 12.5c0.61,5.05 0.85,14.87 1.39,17.11l-9.83 -0.11 0 1.66 12.17 -0.08c0.15,-0.86 -0.42,-2.96 -0.55,-4.37 -0.15,-1.66 -0.26,-3.14 -0.31,-5.08 -0.43,-5.35 0.17,-10.57 0.28,-15.95 0.13,-6.5 0.36,-26.37 -2.16,-31.39 -1.01,-2.01 -2.15,-3.36 -1.71,-6.31 0.68,-4.52 -1.45,-3.09 -2.45,-5.57 1.54,-0.59 4.51,-1.18 6.46,-0.69 1.54,0.04 1.14,0 1.74,-0.54 -0.68,-0.75 0.27,-0.1 -0.74,-0.49 -1.26,-0.49 -4.68,0.12 -6.02,0.32 -6.56,0.96 -13.82,0.18 -20.79,0.17 -8.39,-0.02 -19.78,1.8 -27.76,0.13z"/>
   <path class="fil27" d="M104.48 60.35c0.24,1.64 -0.98,3.52 -1.95,3.79l0.95 -0.07c4.48,-0.41 9.17,2.11 11.07,5.91 2.03,4.07 0.58,11.06 -1.45,14.34l-14.82 -0.14 -21.21 0.11 -2.66 -0.03 -4.61 0.13c0.43,0.96 -0.23,0.6 -0.7,1.81l4.45 0.1 49.26 -0.04c1.82,0.04 4.34,-0.16 5.65,0.52 1.03,2.98 -2.2,3.42 -3.53,5.53 -1.58,2.49 1.08,3.13 -3.37,5.63 -4.05,2.27 -7.18,4.46 -12.05,5.99 -3.15,0.99 -4.8,1.01 -8.28,0.54 -6.25,-0.84 -10.43,-0.82 -16.67,-0.1 -1.53,0.17 -3.02,0.12 -4.21,0.35 -1.46,0.28 -2.41,0.52 -4.03,0.15l-3.05 -0.13 -0.63 0.25c0.26,0.3 0.21,0.35 0.61,0.51 7.98,1.67 19.37,-0.15 27.76,-0.13 6.97,0.01 14.23,0.79 20.79,-0.17 1.34,-0.2 4.76,-0.81 6.02,-0.32 1.01,0.39 0.06,-0.26 0.74,0.49 -0.6,0.54 -0.2,0.58 -1.74,0.54 1.82,0.91 1.58,3.27 1.44,5.86 -0.13,2.53 -0.08,5.08 -0.09,7.62 0,3.66 -0.43,11.89 0.25,14.91 -0.06,-2.04 -0.2,-3.99 -0.18,-6.07 0.03,-2.06 0.55,-4.59 0.35,-6.3 -0.33,-2.68 -0.55,-10.29 0.78,-12.3 -1.3,-0.54 -0.13,0.29 -0.48,-0.67 -0.16,-0.43 -0.15,-0.66 -0.16,-1.13 -0.03,-0.95 0.07,-1.14 -0.1,-2.16l0.05 -0.9c7.12,-0.06 10.23,-1 11.07,-7.66 0.49,-3.88 0.06,-8.51 -3.22,-10.48 -1.81,-1.08 -2.15,-0.18 -2.24,-2.37l-6.62 -0.07c-0.48,-1.4 -0.41,-3.81 -0.99,-5.74 -0.51,-1.72 -1.26,-3.38 -2.22,-4.38 3.92,11.47 2.79,10.27 -2.73,10.2 -0.24,-3.03 0.74,-4.41 -0.28,-8.17 -1.47,-5.4 -5.72,-9.66 -10.87,-11.68 -1.07,-0.42 -2.3,-0.61 -3.13,-1.11l-0.19 -3.51c0.59,0.82 0.33,0.06 0.79,1.18 0.74,-0.29 0.31,0.15 0.75,-0.58 0.26,-0.45 0.22,-0.42 0.22,-1.06 0,-0.75 -0.08,-1.06 -0.43,-1.52 -0.93,-0.42 -0.22,0.55 -0.87,-0.61 1,1.39 -2.2,2.88 -3.24,3.14z"/>
   <path class="fil29" d="M122.81 86.26l-49.26 0.04c0.71,2.96 0.02,5.66 1.47,8.43 3.52,6.74 15.91,7.72 22.98,6.76 5.77,-0.79 10.66,-2.58 15.52,-4.61 4.29,-1.81 10.55,-4.62 9.29,-10.62z"/>
   <path class="fil30" d="M126.4 165.82c0.05,1.94 0.16,3.42 0.31,5.08 0.13,1.41 0.7,3.51 0.55,4.37 -0.64,0.8 -2.01,0.53 -3.38,0.52l-37.21 0c-4.55,-0.01 -8.99,0.69 -13.42,-0.13 -1.25,0.18 -2.85,0.19 -3.98,1.93 -1.12,1.71 -1.18,6.38 3.28,6.72l29.98 0c7.83,0 15.66,0 23.49,0l4.78 0c1.95,-0.17 3.39,-0.8 3.94,-2.87 0.52,-1.92 -0.1,-3.63 -1.01,-4.54 -1.24,-1.24 -2.6,-1.13 -4.97,-1.13l0 -21.91c-0.11,0.23 -1.46,11.63 -1.65,13.23l-0.71 -1.27z"/>
   <path class="fil30" d="M115.09 173.69c-0.25,-2.72 0.81,-7.44 0.9,-10.72 0.11,-4.08 -0.13,-7.66 -0.36,-11.67 -4.78,3.04 -7.68,6.44 -16.47,5.91 -5.49,-0.33 -12.78,-3.88 -14.83,-7.79 -0.05,0.08 -0.1,0.12 -0.11,0.26 -0.01,0.13 -0.08,0.18 -0.1,0.25 -0.42,1.99 1.36,9.17 1.86,10.98 1.15,4.17 2.22,6.75 4.78,9.26 4,3.92 6.08,3.52 10.25,3.52 4.69,0 9.4,-0.03 14.08,0z"/>
   <path class="fil30" d="M76.32 104.87c1.62,0.37 2.57,0.13 4.03,-0.15 1.19,-0.23 2.68,-0.18 4.21,-0.35 6.24,-0.72 10.42,-0.74 16.67,0.1 3.48,0.47 5.13,0.45 8.28,-0.54 4.87,-1.53 8,-3.72 12.05,-5.99 4.45,-2.5 1.79,-3.14 3.37,-5.63 1.33,-2.11 4.56,-2.55 3.53,-5.53 -1.31,-0.68 -3.83,-0.48 -5.65,-0.52 1.26,6 -5,8.81 -9.29,10.62 -4.86,2.03 -9.75,3.82 -15.52,4.61 -7.07,0.96 -19.46,-0.02 -22.98,-6.76 -1.45,-2.77 -0.76,-5.47 -1.47,-8.43l-4.45 -0.1c-0.65,0.49 -0.1,-0.01 -0.66,0.65 -0.03,0.04 -0.34,0.46 -0.39,0.53 -0.4,0.56 -0.55,0.81 -0.83,1.3 -2.89,5.01 -0.55,10.51 3.6,13.62 2.77,2.07 3.38,1.31 4.92,2.12 0.55,0.29 0.21,0.07 0.58,0.45z"/>
   <path class="fil29" d="M77.07 84.29l21.21 -0.11c1.62,-2.48 8.39,-5.36 8.05,-15.1 -0.15,-4.32 -2,-4.22 -2.85,-5.01l-0.95 0.07c-2.02,-0.11 -3.87,-0.39 -5.53,-0.88 -0.44,2.15 -2.66,2.31 -3.89,4.04 -2.97,4.19 -5.85,14.34 -0.41,16.29 -4.08,0.34 -12.38,-0.49 -15.63,0.7z"/>
   <path class="fil28" d="M128.42 134.3l0.34 8.13 0 -5.06c1.36,0 10.36,0.36 11.28,-0.31 0.74,-0.54 0,-0.09 0.43,-0.49l7.39 -3.6c0.37,-0.13 0.88,-0.32 1.1,-0.42l1.02 -0.67 0.07 -2.39c-2.01,-0.81 -3.37,-0.54 -4.94,-1.79 -4.72,-3.76 -4.18,-9.06 -4.62,-14.52l0.17 -0.39c-0.97,-0.09 -0.8,-0.53 -1.34,3.32l-0.18 10.43c0,-0.02 1.22,0.01 -0.41,-0.49 -1.57,-0.49 -2.3,2.18 -5.2,0.96 -1.93,-0.81 -2.72,-2.59 -3.55,-4.57 -1.09,0.89 -0.39,-0.06 -0.85,1.2l0 2.76c0.17,2.98 1.89,6.31 3.9,7.28 3.67,1.78 4.46,-2.07 6.73,-3.32l-0.13 5.14c-0.98,-0.95 -0.36,1.22 -0.81,-1.48 -0.22,-1.3 0.22,-0.91 0.34,-0.99l-0.28 3.47c-2.88,-0.62 -0.06,-0.55 -1.7,-0.73l-8.11 -0.58c-0.68,-1 -0.19,-3.54 -0.23,-5.14 -0.04,-1.46 -0.56,-4.09 0.38,-5.27 0.18,-0.8 0.49,-6.26 0.47,-7.22 -0.04,-2.27 -0.88,-4.63 0.03,-6.72l0.01 -1.21 -0.36 0c-1.33,2.01 -1.11,9.62 -0.78,12.3 0.2,1.71 -0.32,4.24 -0.35,6.3 -0.02,2.08 0.12,4.03 0.18,6.07z"/>
   <path class="fil30" d="M98.28 84.18l14.82 0.14c2.03,-3.28 3.48,-10.27 1.45,-14.34 -1.9,-3.8 -6.59,-6.32 -11.07,-5.91 0.85,0.79 2.7,0.69 2.85,5.01 0.34,9.74 -6.43,12.62 -8.05,15.1z"/>
   <path class="fil29" d="M72.64 104.99l0.63 -0.25c-6.52,-1.2 -7.98,-2.7 -9.52,-9.07 -0.86,-3.59 -0.84,-8.38 2.61,-10.31 0.84,-0.47 2.27,-0.99 3.44,-0.97l4.61 -0.13c-1.04,-4.53 1.65,-8.91 3.56,-11.66 1.72,-2.49 4.94,-6.29 8.19,-7.56 1.26,-0.58 4.16,-2.31 4.99,-3.06 1.41,-1.31 1.45,-3.88 2.74,-5.28 0.85,-0.77 1.76,-0.7 3.42,-0.65 0.67,3.19 -1.51,1.53 -0.56,6.59l7.73 -2.29c-0.14,-2.73 -0.19,-4.84 -2.99,-5.16l-0.04 -2.1c-1.06,-0.47 -2.02,-0.58 -2.78,-1.37l-1.02 0 0 2.75c-5.07,0 -7.09,2.17 -6.71,6.7 -1.89,0.16 -5.65,2.08 -7.11,2.95 -2.56,1.53 -3.76,2.6 -5.78,4.59 -1.61,1.59 -3.07,3.78 -4.1,5.97 -1.22,2.63 -1.62,5.01 -1.62,8.74 -7.43,0 -10.36,3.24 -10.37,10.98 -0.01,7.14 3.09,11.29 10.68,10.59z"/>
   <path class="fil31" d="M93.89 56.7c0.66,-0.04 0.55,-0.17 1.11,0.24 -0.74,0.48 -1.17,1.01 -1.45,2.24 -0.22,0.98 -0.22,2.51 -0.26,3.55 -2.26,2.04 -4.41,2.13 -7.18,7.63 -2.3,4.57 -1.93,7.18 -2.09,12.77l-7.95 -0.09c-0.07,-3.7 1.98,-7.76 3.52,-10.35 2.33,-3.91 3.7,-4.71 6.57,-7.65 -3.25,1.27 -6.47,5.07 -8.19,7.56 -1.91,2.75 -4.6,7.13 -3.56,11.66l2.66 0.03c3.25,-1.19 11.55,-0.36 15.63,-0.7 -5.44,-1.95 -2.56,-12.1 0.41,-16.29 1.23,-1.73 3.45,-1.89 3.89,-4.04 -0.61,-0.51 -0.76,-0.1 -0.25,-0.62 -0.95,-5.06 1.23,-3.4 0.56,-6.59 -1.66,-0.05 -2.57,-0.12 -3.42,0.65z"/>
   <path class="fil32" d="M103.41 87.76c-5.62,-0.26 -11.44,-0.39 -17.04,-0.75 -3.3,-0.22 -10.14,-1.23 -9.65,3.04 0.36,3.2 9.74,6.54 16.1,5.01 4.11,-0.99 10.37,-3.56 10.59,-7.3z"/>
   <path class="fil28" d="M51.89 128.32l-0.6 -0.09 0 2.74 2.48 1.18c3.73,1.47 6.04,3.44 7.58,3.1 1.49,1.15 0.37,0.94 2.73,0.9l9.08 -0.33c0.72,-6.28 0.89,-7.69 0.23,-13.7l-0.52 -1.56c-0.32,2 0.08,5.25 0.03,7.53 -0.1,3.98 0.68,6.59 -1.52,7.17 -1.28,0.34 -2.39,0.02 -3.38,-0.21 -1.47,-0.34 -3.15,-0.19 -4.72,-0.19 1.89,-0.28 1.15,0.14 1.47,0.46 -2.11,0.17 -1.65,1.21 -2.04,-1.03 -0.4,1.39 0.23,0.62 -0.82,0.89l-0.5 -1.43 -5.88 -2.88c3.63,0.06 4.74,-2.85 6.74,-4.61 0.07,3.18 -0.13,3.07 1.48,5.09 4.13,5.19 8.82,-0.96 8.88,-6.13l0.01 -3.39c-2.27,0.79 -0.46,0.07 -2.26,2.66 -0.48,0.68 -1.28,1.4 -2.06,1.72 -2.63,1.11 -3.03,-0.71 -4.51,-0.94 -1.89,-0.28 -1.16,0.27 -1.22,0.44 0,-2.21 0.52,-12.14 -1.16,-13.98 -1.09,3.92 -0.1,7.24 -1.91,11.4 -1.16,2.66 -3.64,5.32 -7.61,5.19z"/>
   <path class="fil30" d="M51.29 119.06l0.42 0 0.08 -3.75c2.04,-0.1 6.55,-1.37 8.34,-2.6l0.93 -0.73c-0.59,1.32 -6.37,3.21 -8.38,10.97 -0.31,1.19 -0.15,1.32 -0.78,1.95l-0.01 3.42c3.97,0.13 6.45,-2.53 7.61,-5.19 1.81,-4.16 0.82,-7.48 1.91,-11.4 0.87,-0.92 0.1,-0.29 0.49,-0.99 0.53,-0.94 -0.12,-0.46 0.79,-0.89 0.9,-0.72 3.49,-0.64 4.82,-0.7 0.87,-0.04 1.74,-0.07 2.6,0 1.44,0.12 1.82,0.04 1.67,1.2l0.26 -0.52 0.17 -0.81c1.06,1.31 0.85,3.54 0.8,5.49 -0.04,1.75 0.14,4.51 -0.14,6.05l0.52 1.56c0.66,6.01 0.49,7.42 -0.23,13.7l-9.08 0.33c-2.36,0.04 -1.24,0.25 -2.73,-0.9 0.15,0.83 0.02,0.69 0.31,1.21l11.59 0 0 37.41 0.9 -0.17c-0.79,-6.75 0.34,-11.56 0.4,-18.04 0.05,-6.08 0.46,-12.97 -0.09,-18.94l-0.72 -24.95c-1.09,-0.9 -0.5,1.02 -0.85,-1.78 0,0 0.03,-1.27 0.03,-1.27l-10.38 -0.03c-1.65,0.17 -1.19,0.66 -1.19,2.47 -3.03,1.6 -0.14,0.61 -4.84,2.17 -1.46,0.49 -3.89,1.15 -5.22,1.79l0 3.94z"/>
   <path class="fil33" d="M75.67 108.67c0.55,0.6 0.2,0.01 0.44,0.96 1.08,4.25 0,8.5 -0.37,12.81 -0.2,2.29 -0.57,13.2 -1.28,14.28 0.55,5.97 0.14,12.86 0.09,18.94 -0.06,6.48 -1.19,11.29 -0.4,18.04l1.69 -0.23c0.95,-5.12 0,-12.49 0.16,-18.12 0.25,-9.01 1.44,-25.66 3.7,-34.08 1.54,-5.76 -1.09,-3.96 -0.79,-7.68 0.21,-2.49 1.96,-4.41 2.72,-6.52 -1.22,-0.26 -2.23,-0.09 -3.44,0.21 -1.71,0.43 -1.42,0.44 -2.52,1.39z"/>
   <path class="fil30" d="M102.66 115.67l1.1 -0.05c0.32,-0.53 -0.08,-0.67 -0.68,-1.32l-4.57 -4.47 -0.15 0.12c-3.74,-0.21 -10.31,-4.98 -12.37,-1.92 -0.2,0.31 -0.25,0.43 -0.42,0.82 -0.29,0.66 -0.52,1.36 -0.73,2.02 -0.4,1.3 -0.75,2.78 -1,4.22 -0.5,2.94 -0.84,6.46 -0.84,9.58 1.4,-1.21 1.9,-2.44 3.42,-3.7 1.33,-1.11 2.39,-1.9 4.13,-2.88 3.35,-1.87 7.61,-2.78 12.11,-2.42z"/>
   <path class="fil33" d="M126.4 165.82l0.71 1.27c0.19,-1.6 1.54,-13 1.65,-13.23l0 -11.43 -0.34 -8.13c-0.68,-3.02 -0.25,-11.25 -0.25,-14.91 0.01,-2.54 -0.04,-5.09 0.09,-7.62 0.14,-2.59 0.38,-4.95 -1.44,-5.86 -1.95,-0.49 -4.92,0.1 -6.46,0.69 1,2.48 3.13,1.05 2.45,5.57 -0.44,2.95 0.7,4.3 1.71,6.31 2.52,5.02 2.29,24.89 2.16,31.39 -0.11,5.38 -0.71,10.6 -0.28,15.95z"/>
   <path class="fil34" d="M86.16 65.04c-2.87,2.94 -4.24,3.74 -6.57,7.65 -1.54,2.59 -3.59,6.65 -3.52,10.35l7.95 0.09c0.16,-5.59 -0.21,-8.2 2.09,-12.77 2.77,-5.5 4.92,-5.59 7.18,-7.63 0.04,-1.04 0.04,-2.57 0.26,-3.55 0.28,-1.23 0.71,-1.76 1.45,-2.24 -0.56,-0.41 -0.45,-0.28 -1.11,-0.24 -1.29,1.4 -1.33,3.97 -2.74,5.28 -0.83,0.75 -3.73,2.48 -4.99,3.06z"/>
   <path class="fil29" d="M108.59 57.82c0.35,0.46 0.43,0.77 0.43,1.52 0,0.64 0.04,0.61 -0.22,1.06 -0.44,0.73 -0.01,0.29 -0.75,0.58l0.23 1.97c3.66,0.51 7.39,2.28 9.72,4.11 4.81,3.76 3.22,3.16 6.46,7.01 0.96,1 1.71,2.66 2.22,4.38 0.58,1.93 0.51,4.34 0.99,5.74l6.62 0.07c0.09,2.19 0.43,1.29 2.24,2.37 3.28,1.97 3.71,6.6 3.22,10.48 -0.84,6.66 -3.95,7.6 -11.07,7.66l-0.05 0.9c4.18,0 7.18,-0.57 9.51,-2.52 4.32,-3.62 4.32,-14.53 -0.04,-17.78 -2.78,-2.08 -5.57,-1.95 -10.25,-1.95 0,-8.5 -3.81,-14.41 -10.74,-18.84 -1.39,-0.89 -5.1,-2.95 -6.95,-3.1 0,-1.92 0.58,-3.96 -2.2,-6.03 -1.46,-1.08 -2.59,-0.98 -4.7,-0.98 0.59,1 -0.13,0.45 1.6,0.79 0.56,0.11 1.03,0.12 1.71,0.38 1.22,0.47 1.63,1.03 2.02,2.18z"/>
   <path class="fil33" d="M124.46 74.07c-3.24,-3.85 -1.65,-3.25 -6.46,-7.01 -2.33,-1.83 -6.06,-3.6 -9.72,-4.11l-0.23 -1.97c-0.46,-1.12 -0.2,-0.36 -0.79,-1.18l0.19 3.51c0.83,0.5 2.06,0.69 3.13,1.11 5.15,2.02 9.4,6.28 10.87,11.68 1.02,3.76 0.04,5.14 0.28,8.17 5.52,0.07 6.65,1.27 2.73,-10.2z"/>
   <path class="fil27" d="M138.34 116.92c0.09,4.37 -3.69,5.79 -6.4,3.26 -2.62,-2.46 -1.84,-5.36 -2.22,-9.34 -0.91,2.09 -0.07,4.45 -0.03,6.72 0.02,0.96 -0.29,6.42 -0.47,7.22l-0.09 1.62 0 -2.76c0.46,-1.26 -0.24,-0.31 0.85,-1.2 0.83,1.98 1.62,3.76 3.55,4.57 2.9,1.22 3.63,-1.45 5.2,-0.96 1.63,0.5 0.41,0.47 0.41,0.49l0.18 -10.43c0.54,-3.85 0.37,-3.41 1.34,-3.32 0.58,0.22 1.34,1.04 4.18,2.07 1.59,0.58 3.14,1.04 5.09,1.17l0.03 3.86 0.45 -0.2 0.01 -3.96c-1.66,-0.39 -3.35,-1.07 -5.07,-1.64l-3.57 -1.33c-0.94,-0.52 -0.49,-0.61 -1.42,-0.38l-0.68 -1.18c-0.44,-0.67 0.2,-0.27 -0.55,-0.6 -0.85,0.65 -0.29,1.37 -0.34,3 -0.04,1.28 -0.4,2.16 -0.45,3.32z"/>
   <path class="fil27" d="M61.41 111.73c1.68,1.84 1.16,11.77 1.16,13.98 0.06,-0.17 -0.67,-0.72 1.22,-0.44 1.48,0.23 1.88,2.05 4.51,0.94 0.78,-0.32 1.58,-1.04 2.06,-1.72 1.8,-2.59 -0.01,-1.87 2.26,-2.66l-0.01 3.39c-0.09,-4.55 -0.47,-7.32 -0.04,-11.65 0.09,-0.93 0.3,-2 -0.02,-2.9 -0.28,-0.81 -0.28,-0.56 -0.51,-0.84l-0.26 0.52 0.11 0.35c0.22,3.8 -0.21,7.49 -2.52,9.09 -1.3,0.9 -3.07,1.05 -4.42,0.28 -1.22,-0.69 -1.57,-2.01 -1.64,-3.91 0.04,-1.31 -0.37,-2.02 -0.4,-3.48 -0.02,-1.17 0.38,-2.17 -0.22,-2.83 -0.91,0.43 -0.26,-0.05 -0.79,0.89 -0.39,0.7 0.38,0.07 -0.49,0.99z"/>
   <path class="fil35" d="M72.04 109.83c0.23,0.28 0.23,0.03 0.51,0.84 0.32,0.9 0.11,1.97 0.02,2.9 -0.43,4.33 -0.05,7.1 0.04,11.65 -0.06,5.17 -4.75,11.32 -8.88,6.13 -1.61,-2.02 -1.41,-1.91 -1.48,-5.09 -2,1.76 -3.11,4.67 -6.74,4.61l5.88 2.88 0.5 1.43c1.05,-0.27 0.42,0.5 0.82,-0.89 0.39,2.24 -0.07,1.2 2.04,1.03 -0.32,-0.32 0.42,-0.74 -1.47,-0.46 1.57,0 3.25,-0.15 4.72,0.19 0.99,0.23 2.1,0.55 3.38,0.21 2.2,-0.58 1.42,-3.19 1.52,-7.17 0.05,-2.28 -0.35,-5.53 -0.03,-7.53 0.28,-1.54 0.1,-4.3 0.14,-6.05 0.05,-1.95 0.26,-4.18 -0.8,-5.49l-0.17 0.81z"/>
   <path class="fil31" d="M73.27 104.74l3.05 0.13c-0.37,-0.38 -0.03,-0.16 -0.58,-0.45 -1.54,-0.81 -2.15,-0.05 -4.92,-2.12 -4.15,-3.11 -6.49,-8.61 -3.6,-13.62 0.28,-0.49 0.43,-0.74 0.83,-1.3 0.05,-0.07 0.36,-0.49 0.39,-0.53 0.56,-0.66 0.01,-0.16 0.66,-0.65 0.47,-1.21 1.13,-0.85 0.7,-1.81 -1.17,-0.02 -2.6,0.5 -3.44,0.97 -3.45,1.93 -3.47,6.72 -2.61,10.31 1.54,6.37 3,7.87 9.52,9.07z"/>
   <path class="fil30" d="M129.72 110.84c0.38,3.98 -0.4,6.88 2.22,9.34 2.71,2.53 6.49,1.11 6.4,-3.26 -0.06,0.06 -0.13,0.08 -0.16,0.19l-0.98 0.74c-2.19,0.73 -2.22,-1.86 -2.95,-3.36 -1.2,-2.47 -4.21,-0.58 -4.29,-4.25 2.17,-0.52 5.72,-0.36 7.95,-0.01l1.22 0.37c0.75,0.33 0.11,-0.07 0.55,0.6l0.68 1.18c0,-3.64 -0.08,-2.76 -3.97,-2.75 -2.22,0.01 -4.44,0 -6.66,0l-0.01 1.21z"/>
   <path class="fil27" d="M103.76 115.62l0.6 0.27c0.95,0.15 1.18,-0.39 3.86,0.31 1.63,0.43 2.64,1.03 4.15,1.5 -0.02,-0.68 -0.03,-1.2 -0.11,-1.88 0,-0.01 -0.12,-0.72 -0.13,-0.76 -0.1,-0.41 0.43,0.01 -0.33,-0.97 -2.17,-1.93 -9.25,-4.93 -13.29,-4.26l4.57 4.47c0.6,0.65 1,0.79 0.68,1.32z"/>
   <path class="fil30" d="M63.31 116.16c0.07,1.9 0.42,3.22 1.64,3.91 1.35,0.77 3.12,0.62 4.42,-0.28 2.31,-1.6 2.74,-5.29 2.52,-9.09 -2.68,1.62 -3.98,1.96 -4.62,3.6 -1.47,3.73 -1.41,3.36 -3.96,1.86z"/>
   <path class="fil27" d="M149.98 131.88c0.47,-0.51 0.23,-0.04 0.42,-0.93 0.06,-0.26 0.07,-1.11 0.11,-1.5l-0.74 -0.52 0.13 -3.29 -0.36 -0.37c-0.56,-0.77 -0.56,-1.62 -0.84,-2.53 -1.86,1.11 -3.4,3.75 -5.49,-0.43 -1.55,-3.09 -0.58,-4.75 -1.17,-8.13l-1.55 -1c0.44,5.46 -0.1,10.76 4.62,14.52 1.57,1.25 2.93,0.98 4.94,1.79l-0.07 2.39z"/>
   <path class="fil34" d="M73.74 111.77l0.72 24.95c0.71,-1.08 1.08,-11.99 1.28,-14.28 0.37,-4.31 1.45,-8.56 0.37,-12.81 -0.24,-0.95 0.11,-0.36 -0.44,-0.96l-1.93 3.1z"/>
   <path class="fil33" d="M62.69 109.85c0.6,0.66 0.2,1.66 0.22,2.83 0.03,1.46 0.44,2.17 0.4,3.48 2.55,1.5 2.49,1.87 3.96,-1.86 0.64,-1.64 1.94,-1.98 4.62,-3.6l-0.11 -0.35c0.15,-1.16 -0.23,-1.08 -1.67,-1.2 -0.86,-0.07 -1.73,-0.04 -2.6,0 -1.33,0.06 -3.92,-0.02 -4.82,0.7z"/>
   <path class="fil33" d="M138.34 116.92c0.05,-1.16 0.41,-2.04 0.45,-3.32 0.05,-1.63 -0.51,-2.35 0.34,-3l-1.22 -0.37c-2.23,-0.35 -5.78,-0.51 -7.95,0.01 0.08,3.67 3.09,1.78 4.29,4.25 0.73,1.5 0.76,4.09 2.95,3.36l0.98 -0.74c0.03,-0.11 0.1,-0.13 0.16,-0.19z"/>
   <path class="fil30" d="M148.7 122.74c-1.81,-4.16 -3.26,-6.73 -6.66,-8.56 0.59,3.38 -0.38,5.04 1.17,8.13 2.09,4.18 3.63,1.54 5.49,0.43z"/>
   <path class="fil35" d="M129.13 126.4l0.09 -1.62c-0.94,1.18 -0.42,3.81 -0.38,5.27 0.04,1.6 -0.45,4.14 0.23,5.14l8.11 0.58c1.64,0.18 -1.18,0.11 1.7,0.73l0.28 -3.47c-0.12,0.08 -0.56,-0.31 -0.34,0.99 0.45,2.7 -0.17,0.53 0.81,1.48l0.13 -5.14c-2.27,1.25 -3.06,5.1 -6.73,3.32 -2.01,-0.97 -3.73,-4.3 -3.9,-7.28z"/>
   <polygon class="fil35" points="149.96,119.89 149.9,125.64 149.77,128.93 150.51,129.45 153.17,129.45 153.17,119.69 150.41,119.69 "/>
   <path class="fil35" d="M51.29 128.23l0.6 0.09 0.01 -3.42 -0.19 -5.84 -0.42 0 -2.75 0.02 0 9.45c1.35,0 1.54,0.16 2.75,-0.3z"/>
   <path class="fil33" d="M140.49 113.18l1.55 1c3.4,1.83 4.85,4.4 6.66,8.56 0.28,0.91 0.28,1.76 0.84,2.53l0.36 0.37 0.06 -5.75 -0.03 -3.86c-1.95,-0.13 -3.5,-0.59 -5.09,-1.17 -2.84,-1.03 -3.6,-1.85 -4.18,-2.07l-0.17 0.39z"/>
   <path class="fil33" d="M51.71 119.06l0.19 5.84c0.63,-0.63 0.47,-0.76 0.78,-1.95 2.01,-7.76 7.79,-9.65 8.38,-10.97l-0.93 0.73c-1.79,1.23 -6.3,2.5 -8.34,2.6l-0.08 3.75z"/>
   <path class="fil30" d="M104.48 60.35c1.04,-0.26 4.24,-1.75 3.24,-3.14 0.65,1.16 -0.06,0.19 0.87,0.61 -0.39,-1.15 -0.8,-1.71 -2.02,-2.18 -0.68,-0.26 -1.15,-0.27 -1.71,-0.38 -1.73,-0.34 -1.01,0.21 -1.6,-0.79l0.21 -2.74 -4.8 -0.01c0.76,0.79 1.72,0.9 2.78,1.37l0.04 2.1c2.8,0.32 2.85,2.43 2.99,5.16z"/>
   <path class="fil36" d="M83.31 69.83c-1.14,0.9 -2.66,3.67 -3.31,5.05 -0.33,0.73 -2.51,5.42 -1.07,6.24 1.42,0.8 2.78,-4.15 3.02,-4.86 0.51,-1.51 2.07,-4.94 1.36,-6.43z"/>
   <path class="fil30" d="M96.75 62.64c-0.51,0.52 -0.36,0.11 0.25,0.62 1.66,0.49 3.51,0.77 5.53,0.88 0.97,-0.27 2.19,-2.15 1.95,-3.79l-7.73 2.29z"/>
  </g>
 </g>
</svg>
