<?xml version="1.0" encoding="UTF-8"?>
<!DOCTYPE svg PUBLIC "-//W3C//DTD SVG 1.1//EN" "http://www.w3.org/Graphics/SVG/1.1/DTD/svg11.dtd">
<!-- Creator: CorelDRAW 2018 (64 Bit Versão de avaliação) -->
<svg xmlns="http://www.w3.org/2000/svg" xml:space="preserve" width="68px" height="60px" version="1.1" shape-rendering="geometricPrecision" text-rendering="geometricPrecision" image-rendering="optimizeQuality" fill-rule="evenodd" clip-rule="evenodd"
viewBox="0 0 68 60"
 xmlns:xlink="http://www.w3.org/1999/xlink">
 <g id="Camada_x0020_1">
  <metadata id="CorelCorpID_0Corel-Layer"/>
  <rect fill="none" width="68" height="60"/>
  <g id="_1816064992048">
   <path fill="#0D0D0D" d="M-0.19 30.46c0.21,1.96 0.63,3.14 1.66,4.73 2.37,3.67 7.19,6.35 11.17,7.9 12.57,4.89 30.25,4.87 42.81,-0.04 5.3,-2.07 12.46,-6.3 12.74,-12.73 0.09,-4.07 -2.45,-6.86 -4.31,-8.5 -4.49,-3.95 -11.56,-6.36 -17.59,-7.46 -1.8,-0.33 -3.58,-0.58 -5.42,-0.78 -1.95,-0.2 -3.87,-0.26 -5.85,-0.33 -7.88,-0.08 -15.73,1.05 -22.35,3.64 -5.46,2.13 -13.1,6.52 -12.86,13.57z"/>
   <path fill="#FFF212" d="M31.64 13.79c-4.22,0.23 -6.9,0.44 -11.05,1.3 -3.35,0.7 -6.55,1.69 -9.47,2.99 -2.6,1.16 -4.63,2.37 -6.75,4.18 -1.38,1.17 -2.66,2.79 -3.41,4.47 -0.69,1.58 -0.91,3.63 -0.37,5.46 1.59,5.46 8.18,9.12 14.02,11.09 12.49,4.21 30.11,4.08 42.25,-1.36 3.09,-1.38 5.56,-2.96 7.57,-4.94 1.79,-1.76 4.14,-5.11 2.98,-9.17 -1.54,-5.42 -8.24,-9.15 -14.01,-11.09 -3.21,-1.08 -6.48,-1.82 -10.07,-2.34 -3.43,-0.49 -8.25,-0.77 -11.69,-0.59z"/>
   <path fill="#0D0D0D" d="M34.73 45.16c4.92,-0.01 9.96,-0.69 14.56,-2.25 0.17,-0.05 0.76,-0.23 0.84,-0.34 0.1,-0.13 0.06,-0.36 -0.04,-0.47 -0.12,-0.13 -0.29,-0.08 -0.5,-0.1 -0.03,-0.3 -0.01,-4.96 -0.01,-5.39 0,-0.43 0.11,-0.95 -0.36,-0.98 -0.41,-0.03 -0.92,0 -1.34,0l-5.41 0c-1.88,0 -1.77,-0.17 -1.77,0.95 0,0.63 0.04,4.9 0,5.42l-7.3 0.01c-0.05,-0.48 -0.01,-12.01 -0.01,-13.53 0,-0.35 0.06,-0.74 -0.29,-0.79 -0.19,-0.02 -0.39,0.16 -0.52,0.24 -2.6,1.63 -6.08,1.57 -9.16,1.58 -0.88,0 -1.75,0 -2.63,0 -0.47,0 -0.86,-0.1 -0.87,0.44 -0.01,0.76 0.04,6.28 -0.01,6.58l-7.34 0c-0.05,-0.35 -0.01,-12.8 -0.01,-13.61 0,-0.26 0.06,-1.46 -0.09,-1.63 -0.29,-0.31 -0.71,0.16 -1.05,0.44 -6.69,5.62 -5.75,12.76 1.67,17.79 5.83,3.95 14.26,5.65 21.64,5.64z"/>
   <path fill="#1C1A7D" d="M34.73 44.82l2.18 -0.05c0.67,-0.02 2.36,-0.13 3.06,-0.23 0.33,-0.05 0.66,-0.06 1,-0.1 0.64,-0.09 1.26,-0.2 1.92,-0.29 0.53,-0.06 1.27,-0.23 1.81,-0.34 0.75,-0.16 1.92,-0.43 2.66,-0.65 0.27,-0.08 0.58,-0.19 0.85,-0.26 0.56,-0.15 1.11,-0.37 1.63,-0.54l-0.6 -0.02 0 -6.36 -8.2 -0.01 0 6.36c-2.59,0.04 -5.37,0.04 -7.98,0.01l0 -14.29c-0.07,0 -0.69,0.4 -0.82,0.47 -0.3,0.16 -0.58,0.28 -0.92,0.42 -2.23,0.92 -5.54,0.9 -8.03,0.9l-3.01 0.01 -0.02 7.01c-2.43,0.03 -4.96,0.01 -7.4,0.01 -0.82,0 -0.64,0.25 -0.64,-1.35l0 -11.96c0,-0.64 0.04,-1.38 0,-2.01 -0.16,0.04 -0.78,0.62 -0.95,0.76 -0.36,0.3 -0.59,0.55 -0.89,0.85 -0.57,0.58 -1.06,1.18 -1.56,1.92 -0.95,1.4 -1.66,3.33 -1.54,5.4 0.23,3.88 3.18,6.75 5.51,8.42 5.35,3.84 13.7,5.95 21.94,5.92z"/>
   <path fill="#0D0D0D" d="M40.7 24.45c0.03,1.77 0,3.57 0,5.35 0,1.06 -0.06,0.88 1.74,0.88l6.69 0c0.55,0 0.45,-0.4 0.45,-0.88 0,-1.78 -0.03,-3.57 0,-5.34l7.32 -0.01c0.04,1.05 0,2.18 0,3.23l0 10.5c0,0.27 -0.02,0.49 0.2,0.59 0.27,0.14 0.69,-0.3 0.99,-0.55 0.46,-0.39 1.27,-1.13 1.64,-1.58 0.64,-0.78 0.81,-0.94 1.39,-1.85 1.48,-2.33 1.82,-5.14 0.88,-7.77 -0.27,-0.75 -0.69,-1.55 -1.09,-2.14 -1.32,-1.95 -2.99,-3.44 -4.99,-4.7 -1.3,-0.84 -2.75,-1.6 -4.25,-2.21 -6.62,-2.71 -14.41,-3.69 -22.46,-2.84l-2.1 0.28c-0.25,0.04 -0.41,0.19 -0.31,0.48 0.07,0.23 0.29,0.21 0.55,0.23 0.26,0.03 0.48,0.05 0.73,0.08 1.96,0.24 4.32,1.06 5.63,2.47 0.59,0.63 0.93,1 1.31,1.92 0.34,0.85 0.49,1.77 0.41,2.81 -0.11,1.2 -0.44,1.05 1.99,1.05 1.09,0 2.19,-0.02 3.28,0z"/>
   <path fill="#1C1A7D" d="M27.36 15.73c0.12,0.12 0.26,0.06 0.48,0.09 1.19,0.19 1.76,0.26 2.98,0.68 1.88,0.65 3.73,2.04 4.5,3.94 0.21,0.5 0.39,1.08 0.43,1.68 0.02,0.35 0.05,0.65 0.03,1.02 -0.01,0.33 -0.09,0.7 -0.09,0.96 1.08,0.05 2.83,0.01 4.03,0.01 0.3,0 1.09,-0.04 1.32,0.01l0.01 6.22 8.18 0.01 0.01 -6.23 7.99 -0.01 0.01 14.3c0.33,-0.03 1.93,-1.67 2.12,-1.86 0.59,-0.62 1.24,-1.5 1.67,-2.29 1.01,-1.81 1.56,-4.11 0.86,-6.48 -0.57,-1.93 -1.69,-3.56 -3.06,-4.88 -1.35,-1.29 -2.96,-2.47 -4.62,-3.34 -1.82,-0.95 -3.59,-1.73 -5.58,-2.35 -1.64,-0.5 -3.07,-0.86 -4.76,-1.2 -2.84,-0.56 -6.19,-0.84 -9.1,-0.84 -1.33,0 -2.56,0.08 -3.84,0.14 -0.5,0.02 -3.21,0.3 -3.57,0.42z"/>
   <path fill="#0D0D0D" d="M19.92 20.26l0 4.74c0,0.36 0.08,0.51 0.46,0.51 1.7,0 3.89,0.07 5.39,-0.39 1.12,-0.34 1.96,-0.99 2.01,-2.36 0.11,-3.33 -4.57,-2.93 -7.4,-2.93 -0.32,0 -0.46,0.11 -0.46,0.43z"/>
   <path fill="#1C1A7D" d="M20.26 25.17c0.72,0.06 1.65,0 2.39,0 0.75,0 1.51,-0.1 2.23,-0.19 0.21,-0.03 0.76,-0.16 0.97,-0.24 0.31,-0.11 0.57,-0.22 0.81,-0.4 0.45,-0.34 0.78,-0.87 0.78,-1.65 0.02,-1.56 -1.14,-2.14 -2.52,-2.33 -1.37,-0.19 -2.11,-0.19 -3.46,-0.19 -0.33,0 -0.89,-0.04 -1.2,0.01l0 4.99z"/>
  </g>
 </g>
</svg>
