<?xml version="1.0" encoding="UTF-8"?>
<!DOCTYPE svg PUBLIC "-//W3C//DTD SVG 1.1//EN" "http://www.w3.org/Graphics/SVG/1.1/DTD/svg11.dtd">
<!-- Creator: CorelDRAW 2018 (64 Bit Versão de avaliação) -->
<svg xmlns="http://www.w3.org/2000/svg" xml:space="preserve" width="35px" height="35px" version="1.1" shape-rendering="geometricPrecision" text-rendering="geometricPrecision" image-rendering="optimizeQuality" fill-rule="evenodd" clip-rule="evenodd"
viewBox="0 0 35 35"
 xmlns:xlink="http://www.w3.org/1999/xlink">
 <g id="Camada_x0020_1">
  <metadata id="CorelCorpID_0Corel-Layer"/>
  <circle fill="#1C1A7D" cx="17.5" cy="17.5" r="15.46"/>
  <path fill="#0D0D0D" fill-rule="nonzero" d="M17.5 4.08c-1.82,0 -3.56,0.36 -5.14,1.02 -1.64,0.68 -3.12,1.68 -4.35,2.91 -1.23,1.23 -2.23,2.71 -2.91,4.35 -0.66,1.58 -1.02,3.32 -1.02,5.14 0,1.82 0.36,3.55 1.02,5.13 0.68,1.64 1.67,3.12 2.91,4.36 1.23,1.23 2.71,2.23 4.35,2.91 1.58,0.66 3.32,1.02 5.14,1.02 1.82,0 3.56,-0.36 5.14,-1.01 1.64,-0.68 3.12,-1.68 4.36,-2.91 1.23,-1.24 2.23,-2.73 2.91,-4.37 0.65,-1.58 1.01,-3.31 1.01,-5.13 0,-1.82 -0.36,-3.56 -1.02,-5.14 -0.68,-1.64 -1.68,-3.12 -2.91,-4.35 -1.24,-1.23 -2.72,-2.23 -4.36,-2.91 -1.58,-0.66 -3.31,-1.02 -5.13,-1.02zm-5.66 -0.23c1.75,-0.72 3.66,-1.12 5.66,-1.12 2,0 3.91,0.4 5.65,1.12 1.81,0.75 3.43,1.84 4.79,3.21 1.37,1.35 2.47,2.98 3.21,4.78 0.72,1.75 1.12,3.66 1.12,5.66 0,2 -0.39,3.9 -1.11,5.64 -0.75,1.81 -1.85,3.44 -3.2,4.81 -1.37,1.36 -3,2.46 -4.81,3.21 -1.74,0.72 -3.65,1.12 -5.65,1.12 -2,0 -3.91,-0.4 -5.66,-1.13 -1.8,-0.75 -3.43,-1.84 -4.78,-3.21 -1.37,-1.36 -2.47,-2.98 -3.22,-4.79 -0.72,-1.74 -1.12,-3.65 -1.12,-5.65 0,-2 0.4,-3.91 1.13,-5.66 0.75,-1.8 1.84,-3.43 3.2,-4.78 1.36,-1.37 2.99,-2.47 4.79,-3.21zm-6.71 1.28c1.61,-1.62 3.54,-2.92 5.67,-3.8 2.07,-0.86 4.33,-1.33 6.7,-1.33 2.37,0 4.63,0.47 6.7,1.33 2.13,0.88 4.06,2.18 5.67,3.8 1.62,1.61 2.92,3.54 3.8,5.67 0.86,2.07 1.33,4.33 1.33,6.7 0,2.37 -0.47,4.63 -1.33,6.7 -0.88,2.14 -2.19,4.06 -3.8,5.67 -1.62,1.61 -3.55,2.92 -5.69,3.8 -2.06,0.86 -4.32,1.33 -6.68,1.33 -2.37,0 -4.63,-0.47 -6.7,-1.33 -2.13,-0.88 -4.06,-2.18 -5.67,-3.8 -1.62,-1.61 -2.92,-3.54 -3.8,-5.67 -0.86,-2.07 -1.33,-4.33 -1.33,-6.7 0,-2.37 0.47,-4.63 1.33,-6.7 0.88,-2.13 2.18,-4.06 3.8,-5.67zm6.19 -2.55c-1.97,0.82 -3.75,2.02 -5.23,3.51 -1.49,1.48 -2.69,3.26 -3.51,5.23 -0.79,1.9 -1.22,3.99 -1.22,6.18 0,2.19 0.43,4.28 1.22,6.18 0.82,1.97 2.02,3.75 3.51,5.23 1.48,1.49 3.26,2.69 5.23,3.51 1.9,0.79 3.99,1.22 6.18,1.22 2.18,0 4.26,-0.43 6.16,-1.22 1.98,-0.82 3.76,-2.02 5.25,-3.51 1.49,-1.48 2.69,-3.26 3.51,-5.23 0.79,-1.9 1.22,-3.99 1.22,-6.18 0,-2.19 -0.43,-4.28 -1.22,-6.18 -0.82,-1.97 -2.02,-3.75 -3.51,-5.23 -1.48,-1.49 -3.26,-2.69 -5.23,-3.51 -1.9,-0.79 -3.99,-1.22 -6.18,-1.22 -2.19,0 -4.28,0.43 -6.18,1.22z"/>
  <path id="_1" fill="#FFF212" fill-rule="nonzero" d="M17.5 3.41c-3.9,0 -7.42,1.57 -9.97,4.12 -2.55,2.55 -4.13,6.07 -4.13,9.97 0,3.9 1.58,7.41 4.13,9.97 2.54,2.55 6.07,4.13 9.97,4.13 3.9,0 7.42,-1.58 9.98,-4.12 2.54,-2.57 4.11,-6.08 4.11,-9.98 0,-3.9 -1.57,-7.42 -4.12,-9.97 -2.56,-2.55 -6.07,-4.12 -9.97,-4.12zm-11.89 2.2c3.04,-3.05 7.25,-4.93 11.89,-4.93 4.64,0 8.85,1.88 11.89,4.93 3.05,3.04 4.93,7.24 4.93,11.89 0,4.64 -1.88,8.85 -4.93,11.89 -3.05,3.04 -7.25,4.93 -11.89,4.93 -4.64,0 -8.85,-1.88 -11.89,-4.93 -3.05,-3.04 -4.93,-7.25 -4.93,-11.89 0,-4.64 1.88,-8.85 4.93,-11.89z"/>
  <path fill="#0D0D0D" fill-rule="nonzero" d="M11.35 25.55l-0.2 0.16c-0.58,0.41 -1.27,0.58 -1.94,0.52l-0.05 -0.01c-0.66,-0.07 -1.29,-0.38 -1.76,-0.9 -0.09,-0.08 -0.15,-0.17 -0.21,-0.26 -0.41,-0.57 -0.58,-1.25 -0.52,-1.91 0.06,-0.72 0.4,-1.42 1,-1.92l8.05 -6.66c0.26,-0.2 0.55,-0.35 0.84,-0.44l0.1 -0.03c0.28,-0.08 0.56,-0.11 0.84,-0.11 0.31,-0.01 0.63,0.04 0.94,0.14 0.32,0.11 0.63,0.28 0.91,0.51l8.07 6.68c0.53,0.49 0.84,1.14 0.91,1.81 0.07,0.72 -0.14,1.48 -0.63,2.08 -0.5,0.6 -1.19,0.95 -1.91,1.02 -0.72,0.07 -1.47,-0.14 -2.07,-0.63l-6.22 -5.14 -6.15 5.09zm6.12 -8.61l-0.17 0.14c0.13,-0.01 0.26,-0.01 0.39,0l-0.17 -0.14 -0.05 0z"/>
  <path id="_1_0" fill="#FFF212" fill-rule="nonzero" d="M10.35 24.46c-0.58,0.48 -1.43,0.4 -1.91,-0.18 -0.48,-0.58 -0.4,-1.44 0.17,-1.92l7.96 -6.59c0.28,-0.22 0.61,-0.32 0.93,-0.3 0.32,-0.02 0.65,0.08 0.92,0.3l7.95 6.59c0.58,0.48 0.67,1.34 0.19,1.92 -0.48,0.58 -1.33,0.66 -1.92,0.18l-7.14 -5.92 -7.15 5.92 0 0z"/>
  <path fill="#0D0D0D" fill-rule="nonzero" d="M11.29 17.52c-0.6,0.49 -1.35,0.7 -2.06,0.64 -0.73,-0.07 -1.42,-0.41 -1.92,-1.01 -0.5,-0.6 -0.7,-1.34 -0.64,-2.06 0.06,-0.72 0.4,-1.42 0.99,-1.92 1.78,-1.79 5.89,-5.02 8,-6.62 0.27,-0.21 0.57,-0.37 0.89,-0.48 0.3,-0.1 0.62,-0.15 0.95,-0.15 0.33,0 0.66,0.05 0.96,0.15 0.32,0.11 0.63,0.28 0.9,0.5l7.96 6.59c0.6,0.5 0.94,1.19 1.01,1.91 0.07,0.72 -0.14,1.47 -0.63,2.07l-0.01 0.02c-0.49,0.59 -1.19,0.93 -1.92,1 -0.71,0.06 -1.46,-0.14 -2.05,-0.63l-6.22 -5.15 -6.21 5.14z"/>
  <path id="_1_1" fill="#FFF212" fill-rule="nonzero" d="M10.35 16.39c-0.58,0.47 -1.43,0.39 -1.91,-0.18 -0.48,-0.58 -0.4,-1.44 0.17,-1.92l7.96 -6.58c0.28,-0.22 0.61,-0.33 0.93,-0.31 0.32,-0.02 0.65,0.09 0.92,0.31l7.95 6.58c0.58,0.48 0.67,1.34 0.19,1.92 -0.48,0.57 -1.33,0.65 -1.92,0.18l-7.14 -5.92 -7.15 5.92 0 0z"/>
 </g>
</svg>
